{
.appVersion = "1230";
DisplayStrings = (
"/smiddletilde",
"C/Chook",
"/rhookturned",
"/k.ss04",
k
);
classes = (
{
automatic = 1;

glyphs = (
{
color = 6;
glyphname = A;
lastChange = "2019-10-03 21:03:21 +0000";
layers = (
{
anchors = (
{
name = abovecomb;
position = "{572, 866}";
},
{
name = bottom;
position = "{334, -93}";
},
{
name = dotbelowcomb;
position = "{344, 8}";
},
{
name = ogonek;
position = "{595, 0}";
},
{
name = top;
position = "{600, 934}";
},
{
name = topleft;
position = "{365, 850}";
}
);
guideLines = (
{
angle = 90.9113;
position = "{603, 56}";
}
);
hints = (
{
horizontal = 1;
origin = "{0, 2}";
target = up;
type = BottomGhost;
},
{
horizontal = 1;
place = "{-4, -2}";
type = Stem;
},
{
horizontal = 1;
origin = "{0, 3}";
target = down;
type = TopGhost;
},
{
horizontal = 1;
origin = "{0, 6}";
target = up;
type = BottomGhost;
},
{
horizontal = 1;
place = "{637, 1917}";
type = Stem;
},
{
origin = "{0, 2}";
target = "{0, 7}";
type = Stem;
}
);
layerId = "BA196CD0-EE58-4274-B8DF-4393D3617A29";
paths = (
{
closed = 1;
nodes = (
"619 846 LINE",
"516 848 LINE",
"-24 0 LINE",
"123 0 LINE",
"201 154 LINE",
"544 131 LINE",
"544 0 LINE",
"710 0 LINE"
);
},
{
closed = 1;
nodes = (
"268 268 LINE",
"563 775 LINE",
"563 268 LINE"
);
}
);
width = 836;
},
{
anchors = (
{
name = abovecomb;
position = "{653, 897}";
},
{
name = bottom;
position = "{419, 3}";
},
{
name = dotbelow;
position = "{432, 10}";
},
{
name = dotbelowcomb;
position = "{429, 11}";
},
{
name = gram;
position = "{933, 369}";
},
{
name = greekcap;
position = "{365, 679}";
},
{
name = ogonek;
position = "{678, 3}";
},
{
name = polyomicron;
position = "{375, 681}";
},
{
name = top;
position = "{676, 947}";
}
);
layerId = "BBDB329E-CE83-4304-A6B1-53EA5ACC004E";
paths = (
{
closed = 1;
nodes = (
"207 0 LINE",
"284 106 LINE",
"609 106 LINE",
"606 0 LINE",
"834 0 LINE",
"719 850 LINE",
"573 850 LINE",
"-12 0 LINE"
);
},
{
closed = 1;
nodes = (
"387 297 LINE",
"591 649 LINE",
"608 297 LINE"
);
}
);
width = 836;
}
);
unicode = 0041;
},
{
glyphname = "Alpha-latin";
lastChange = "2019-09-05 22:37:16 +0000";
layers = (
{
anchors = (
{
name = bottom;
position = "{407, 0}";
},
{
name = ogonek;
position = "{577, 29}";
},
{
name = top;
position = "{551, 577}";
}
);
hints = (
{
horizontal = 1;
origin = "{0, 14}";
target = "{1, 14}";
type = Stem;
},
{
horizontal = 1;
origin = "{1, 5}";
target = "{0, 2}";
type = Stem;
},
{
horizontal = 1;
origin = "{0, 18}";
target = "{1, 14}";
type = Stem;
},
{
place = "{127.25, 104.4}";
type = Stem;
},
{
place = "{678.76, 51.24}";
type = Stem;
}
);
layerId = "BA196CD0-EE58-4274-B8DF-4393D3617A29";
paths = (
{
closed = 1;
nodes = (
"629 655 OFFCURVE",
"594 677 OFFCURVE",
"541 677 CURVE SMOOTH",
"530 677 OFFCURVE",
"519 676 OFFCURVE",
"506 674 CURVE SMOOTH",
"405 658 OFFCURVE",
"248 547 OFFCURVE",
"155 387 CURVE SMOOTH",
"115 318 OFFCURVE",
"91 261 OFFCURVE",
"78 214 CURVE SMOOTH",
"22 13 OFFCURVE",
"183 -14 OFFCURVE",
"311 -14 CURVE SMOOTH",
"392 -14 OFFCURVE",
"473 17 OFFCURVE",
"529 82 CURVE",
"507 0 LINE",
"616 0 LINE",
"636 75 OFFCURVE",
"612 60 OFFCURVE",
"684 329 CURVE SMOOTH",
"758 605 OFFCURVE",
"790 600 OFFCURVE",
"809 673 CURVE",
"713 673 LINE",
"670 602 LINE"
);
},
{
closed = 1;
nodes = (
"279 485 OFFCURVE",
"424 598 OFFCURVE",
"488 610 CURVE SMOOTH",
"499 612 OFFCURVE",
"510 613 OFFCURVE",
"523 613 CURVE SMOOTH",
"583 613 OFFCURVE",
"648 582 OFFCURVE",
"602 396 CURVE SMOOTH",
"595 368 OFFCURVE",
"583 335 OFFCURVE",
"570 299 CURVE SMOOTH",
"524 172 OFFCURVE",
"522 138 OFFCURVE",
"340 138 CURVE SMOOTH",
"214 138 OFFCURVE",
"152 205 OFFCURVE",
"177 296 CURVE SMOOTH",
"182 314 OFFCURVE",
"190 333 OFFCURVE",
"201 352 CURVE"
);
}
);
width = 769;
},
{
anchors = (
{
name = bottom;
position = "{354, 0}";
},
{
name = ogonek;
position = "{524, 29}";
},
{
name = top;
position = "{497, 577}";
}
);
layerId = "BBDB329E-CE83-4304-A6B1-53EA5ACC004E";
paths = (
{
closed = 1;
nodes = (
"640 688 OFFCURVE",
"603 704 OFFCURVE",
"554 704 CURVE SMOOTH",
"542 704 OFFCURVE",
"530 703 OFFCURVE",
"516 701 CURVE SMOOTH",
"390 683 OFFCURVE",
"227 551 OFFCURVE",
"137 395 CURVE SMOOTH",
"98 327 OFFCURVE",
"71 266 OFFCURVE",
"57 214 CURVE SMOOTH",
"12 43 OFFCURVE",
"98 -41 OFFCURVE",
"310 -41 CURVE SMOOTH",
"375 -41 OFFCURVE",
"437 -23 OFFCURVE",
"489 11 CURVE",
"479 -27 LINE",
"641 -27 LINE",
"670 54 OFFCURVE",
"655 95 OFFCURVE",
"717 329 CURVE SMOOTH",
"791 602 OFFCURVE",
"833 605 OFFCURVE",
"849 700 CURVE",
"708 700 LINE",
"677 649 LINE"
);
},
{
closed = 1;
nodes = (
"294 451 OFFCURVE",
"430 574 OFFCURVE",
"493 583 CURVE",
"501 585 OFFCURVE",
"511 586 OFFCURVE",
"523 586 CURVE SMOOTH",
"595 586 OFFCURVE",
"615 525 OFFCURVE",
"581 396 CURVE SMOOTH",
"573 368 OFFCURVE",
"563 336 OFFCURVE",
"550 302 CURVE SMOOTH",
"500 171 OFFCURVE",
"500 165 OFFCURVE",
"353 165 CURVE SMOOTH",
"246 165 OFFCURVE",
"190 218 OFFCURVE",
"211 296 CURVE SMOOTH",
"215 311 OFFCURVE",
"222 328 OFFCURVE",
"232 344 CURVE SMOOTH"
);
}
);
width = 663;
}
);
unicode = 2C6D;
},
{
color = 6;
glyphname = B;
lastChange = "2019-09-25 14:25:00 +0000";
layers = (
{
anchors = (
{
name = bottom;
position = "{275, 0}";
},
{
name = top;
position = "{488, 811}";
},
{
name = top_hook;
position = "{5, 591}";
}
);
layerId = "BA196CD0-EE58-4274-B8DF-4393D3617A29";
paths = (
{
closed = 1;
nodes = (
"273 0 LINE SMOOTH",
"460 0 OFFCURVE",
"587 28 OFFCURVE",
"638 231 CURVE SMOOTH",
"674 375 OFFCURVE",
"622 454 OFFCURVE",
"482 478 CURVE",
"587 493 OFFCURVE",
"642 548 OFFCURVE",
"658 681 CURVE SMOOTH",
"681 873 OFFCURVE",
"570 849 OFFCURVE",
"455 849 CURVE SMOOTH",
"195 849 LINE",
"-25 0 LINE"
);
},
{
closed = 1;
nodes = (
"193 427 LINE",
"373 427 LINE SMOOTH",
"433 427 OFFCURVE",
"476 416 OFFCURVE",
"498 391 CURVE SMOOTH",
"520 365 OFFCURVE",
"535 349 OFFCURVE",
"526 293 CURVE SMOOTH",
"507 180 OFFCURVE",
"432 164 OFFCURVE",
"311 164 CURVE SMOOTH",
"132 164 LINE"
);
},
{
closed = 1;
nodes = (
"288 774 LINE",
"455 774 LINE SMOOTH",
"564 774 OFFCURVE",
"593 775 OFFCURVE",
"580 687 CURVE SMOOTH",
"561 549 OFFCURVE",
"493 518 OFFCURVE",
"384 518 CURVE SMOOTH",
"216 518 LINE"
);
}
);
width = 694;
},
{
anchors = (
{
name = bottom;
position = "{331, -41}";
},
{
name = stroke;
position = "{216, 264}";
},
{
name = top;
position = "{587, 916}";
},
{
name = top_hook;
position = "{27, 563}";
}
);
layerId = "BBDB329E-CE83-4304-A6B1-53EA5ACC004E";
paths = (
{
closed = 1;
nodes = (
"331 2 LINE SMOOTH",
"519 2 OFFCURVE",
"665 2 OFFCURVE",
"735 234 CURVE SMOOTH",
"766 338 OFFCURVE",
"731 414 OFFCURVE",
"646 453 CURVE",
"703 488 OFFCURVE",
"746 547 OFFCURVE",
"766 624 CURVE SMOOTH",
"806 772 OFFCURVE",
"717 858 OFFCURVE",
"530 858 CURVE SMOOTH",
"239 858 LINE",
"1 2 LINE"
);
},
{
closed = 1;
nodes = (
"282 366 LINE",
"431 366 LINE SMOOTH",
"487 366 OFFCURVE",
"521 357 OFFCURVE",
"538 338 CURVE SMOOTH",
"557 317 OFFCURVE",
"565 295 OFFCURVE",
"562 284 CURVE SMOOTH",
"544 216 OFFCURVE",
"510 198 OFFCURVE",
"386 198 CURVE SMOOTH",
"237 198 LINE"
);
},
{
closed = 1;
nodes = (
"377 722 LINE",
"513 722 LINE SMOOTH",
"599 722 OFFCURVE",
"634 683 OFFCURVE",
"616 611 CURVE SMOOTH",
"598 547 OFFCURVE",
"552 518 OFFCURVE",
"458 518 CURVE SMOOTH",
"322 518 LINE"
);
}
);
width = 694;
}
);
unicode = 0042;
},
{
color = 6;
glyphname = C;
lastChange = "2019-10-04 14:16:22 +0000";
layers = (
{
anchors = (
{
name = bottom;
position = "{319, -64}";
},
{
name = center;
position = "{181, 454}";
},
{
name = top;
position = "{564, 906}";
},
{
name = top_hook;
position = "{781, 772}";
},
{
name = topleft;
position = "{300, 761}";
},
{
name = vcenter;
position = "{454, 414}";
}
);
layerId = "BA196CD0-EE58-4274-B8DF-4393D3617A29";
paths = (
{
closed = 1;
nodes = (
"747 860 OFFCURVE",
"639 860 OFFCURVE",
"603 859 CURVE SMOOTH",
"351 851 OFFCURVE",
"149 682 OFFCURVE",
"82 418 CURVE SMOOTH",
"11 137 OFFCURVE",
"153 -13 OFFCURVE",
"225 -13 CURVE SMOOTH",
"319 -13 OFFCURVE",
"354 -13 OFFCURVE",
"579 -13 CURVE",
"631 181 LINE",
"570 164 OFFCURVE",
"491 159 OFFCURVE",
"427 159 CURVE SMOOTH",
"283 159 OFFCURVE",
"158 187 OFFCURVE",
"217 418 CURVE SMOOTH",
"278 657 OFFCURVE",
"486 735 OFFCURVE",
"587 757 CURVE SMOOTH",
"678 776 OFFCURVE",
"723 760 OFFCURVE",
"790 738 CURVE",
"829 840 LINE"
);
}
);
width = 724;
},
{
anchors = (
{
name = bottom;
position = "{381, 5}";
},
{
name = top;
position = "{739, 924}";
},
{
name = top_hook;
position = "{846, 776}";
}
);
layerId = "BBDB329E-CE83-4304-A6B1-53EA5ACC004E";
paths = (
{
closed = 1;
nodes = (
"803 875 OFFCURVE",
"780 879 OFFCURVE",
"668 879 CURVE SMOOTH",
"399 879 OFFCURVE",
"184 704 OFFCURVE",
"108 421 CURVE SMOOTH",
"32 138 OFFCURVE",
"17 0 OFFCURVE",
"272 0 CURVE SMOOTH",
"372 0 OFFCURVE",
"407 0 OFFCURVE",
"659 0 CURVE",
"730 228 LINE",
"646 201 OFFCURVE",
"605 193 OFFCURVE",
"492 193 CURVE SMOOTH",
"295 193 OFFCURVE",
"226 264 OFFCURVE",
"269 421 CURVE SMOOTH",
"321 617 OFFCURVE",
"460 734 OFFCURVE",
"636 734 CURVE SMOOTH",
"744 734 OFFCURVE",
"734 733 OFFCURVE",
"862 711 CURVE",
"929 858 LINE"
);
}
);
width = 724;
}
);
unicode = 0043;
},
{
color = 6;
glyphname = D;
lastChange = "2019-09-25 14:25:00 +0000";
layers = (
{
anchors = (
{
name = bottom;
position = "{268, -92}";
},
{
name = hook_top;
position = "{167, 785}";
},
{
name = stroke;
position = "{214, 427}";
},
{
name = top;
position = "{516, 912}";
}
);
layerId = "BA196CD0-EE58-4274-B8DF-4393D3617A29";
paths = (
{
closed = 1;
nodes = (
"194 0 LINE SMOOTH",
"516 0 OFFCURVE",
"678 23 OFFCURVE",
"784 435 CURVE SMOOTH",
"856 718 OFFCURVE",
"749 846 OFFCURVE",
"426 846 CURVE SMOOTH",
"194 846 LINE",
"-37 0 LINE"
);
},
{
closed = 1;
nodes = (
"291 767 LINE",
"428 767 LINE SMOOTH",
"657 767 OFFCURVE",
"756 670 OFFCURVE",
"700 467 CURVE SMOOTH",
"663 329 OFFCURVE",
"561 215 OFFCURVE",
"274 215 CURVE SMOOTH",
"139 215 LINE"
);
}
);
width = 781;
},
{
anchors = (
{
name = bottom;
position = "{352, -72}";
},
{
name = hook_top;
position = "{222, 768}";
},
{
name = stroke;
position = "{239, 441}";
},
{
name = top;
position = "{613, 894}";
}
);
layerId = "BBDB329E-CE83-4304-A6B1-53EA5ACC004E";
paths = (
{
closed = 1;
nodes = (
"257 0 LINE SMOOTH",
"578 0 OFFCURVE",
"756 0 OFFCURVE",
"874 416 CURVE SMOOTH",
"959 716 OFFCURVE",
"832 858 OFFCURVE",
"493 858 CURVE SMOOTH",
"231 858 LINE",
"-6 0 LINE"
);
},
{
closed = 1;
nodes = (
"377 704 LINE",
"479 704 LINE SMOOTH",
"691 704 OFFCURVE",
"770 617 OFFCURVE",
"723 442 CURVE SMOOTH",
"686 302 OFFCURVE",
"587 249 OFFCURVE",
"357 249 CURVE SMOOTH",
"255 249 LINE"
);
}
);
width = 781;
}
);
unicode = 0044;
},
{
color = 6;
glyphname = E;
lastChange = "2019-09-25 14:25:00 +0000";
layers = (
{
anchors = (
{
name = bottom;
position = "{339, -54}";
},
{
name = ogonek;
position = "{261, 13}";
},
{
name = top;
position = "{492, 956}";
},
{
name = topleft;
position = "{78, 791}";
}
);
layerId = "BA196CD0-EE58-4274-B8DF-4393D3617A29";
paths = (
{
closed = 1;
nodes = (
"526 0 LINE",
"534 171 LINE",
"153 171 LINE",
"208 397 LINE",
"492 415 LINE",
"518 508 LINE",
"234 496 LINE",
"301 729 LINE",
"637 750 LINE",
"684 863 LINE",
"218 847 LINE",
"-27 0 LINE"
);
}
);
width = 649;
},
{
anchors = (
{
name = bottom;
position = "{323, -68}";
},
{
name = ogonek;
position = "{339, 14}";
},
{
name = top;
position = "{566, 962}";
},
{
name = topleft;
position = "{186, 795}";
}
);
layerId = "BBDB329E-CE83-4304-A6B1-53EA5ACC004E";
paths = (
{
closed = 1;
nodes = (
"619 0 LINE",
"629 205 LINE",
"255 205 LINE",
"294 349 LINE",
"578 367 LINE",
"619 521 LINE",
"337 509 LINE",
"386 695 LINE",
"761 715 LINE",
"842 859 LINE",
"259 841 LINE",
"-4 0 LINE"
);
}
);
width = 649;
}
);
unicode = 0045;
},
{
color = 6;
glyphname = F;
lastChange = "2019-09-25 14:25:00 +0000";
layers = (
{
anchors = (
{
name = bottom;
position = "{225, 0}";
},
{
name = bottom_hook;
position = "{11, -43}";
},
{
name = top;
position = "{454, 891}";
}
);
layerId = "BA196CD0-EE58-4274-B8DF-4393D3617A29";
paths = (
{
closed = 1;
nodes = (
"133 0 LINE",
"219 431 LINE",
"525 451 LINE",
"555 566 LINE",
"243 546 LINE",
"330 767 LINE",
"667 786 LINE",
"686 861 LINE",
"245 847 LINE",
"-17 0 LINE"
);
}
);
width = 589;
},
{
anchors = (
{
name = bottom;
position = "{283, 4}";
},
{
name = bottom_hook;
position = "{68, -39}";
},
{
name = top;
position = "{545, 899}";
}
);
layerId = "BBDB329E-CE83-4304-A6B1-53EA5ACC004E";
paths = (
{
closed = 1;
nodes = (
"214 0 LINE",
"301 368 LINE",
"605 389 LINE",
"652 565 LINE",
"346 545 LINE",
"407 704 LINE",
"747 724 LINE",
"783 859 LINE",
"280 843 LINE",
"-1 0 LINE"
);
}
);
width = 589;
}
);
unicode = 0046;
},
{
color = 6;
glyphname = G;
lastChange = "2019-09-25 14:25:00 +0000";
layers = (
{
anchors = (
{
name = bottom;
position = "{334, -79}";
},
{
name = top;
position = "{589, 940}";
},
{
name = top_hook;
position = "{789, 804}";
}
);
layerId = "BA196CD0-EE58-4274-B8DF-4393D3617A29";
paths = (
{
closed = 1;
nodes = (
"482 -14 OFFCURVE",
"574 10 OFFCURVE",
"685 58 CURVE",
"736 292 LINE",
"812 279 LINE",
"822 387 LINE",
"510 423 LINE",
"496 334 LINE",
"643 308 LINE",
"617 207 LINE",
"582 179 OFFCURVE",
"511 166 OFFCURVE",
"431 166 CURVE SMOOTH",
"229 166 OFFCURVE",
"171 221 OFFCURVE",
"217 424 CURVE",
"302 718 OFFCURVE",
"386 731 OFFCURVE",
"589 731 CURVE SMOOTH",
"644 731 OFFCURVE",
"731 728 OFFCURVE",
"813 707 CURVE",
"824 818 LINE",
"798 822 OFFCURVE",
"710 833 OFFCURVE",
"601 833 CURVE SMOOTH",
"340 833 OFFCURVE",
"143 776 OFFCURVE",
"73 413 CURVE SMOOTH",
"21 144 OFFCURVE",
"102 -14 OFFCURVE",
"374 -14 CURVE SMOOTH"
);
}
);
width = 847;
},
{
anchors = (
{
name = bottom;
position = "{428, -68}";
},
{
name = top;
position = "{697, 959}";
},
{
name = top_hook;
position = "{849, 796}";
}
);
layerId = "BBDB329E-CE83-4304-A6B1-53EA5ACC004E";
paths = (
{
closed = 1;
nodes = (
"623 210 OFFCURVE",
"569 200 OFFCURVE",
"503 200 CURVE SMOOTH",
"301 200 OFFCURVE",
"248 255 OFFCURVE",
"289 429 CURVE",
"366 717 OFFCURVE",
"443 726 OFFCURVE",
"643 726 CURVE SMOOTH",
"738 726 OFFCURVE",
"834 714 OFFCURVE",
"901 692 CURVE",
"921 847 LINE",
"873 856 OFFCURVE",
"783 868 OFFCURVE",
"672 868 CURVE SMOOTH",
"343 868 OFFCURVE",
"160 750 OFFCURVE",
"105 417 CURVE SMOOTH",
"57 133 OFFCURVE",
"150 -31 OFFCURVE",
"428 -31 CURVE SMOOTH",
"553 -31 OFFCURVE",
"655 -6 OFFCURVE",
"783 70 CURVE",
"823 265 LINE",
"903 252 LINE",
"918 419 LINE",
"548 462 LINE",
"525 318 LINE",
"669 292 LINE",
"653 226 LINE"
);
}
);
width = 847;
}
);
unicode = 0047;
},
{
color = 6;
glyphname = H;
lastChange = "2019-09-25 14:25:00 +0000";
layers = (
{
anchors = (
{
name = bottom;
position = "{371, -39}";
},
{
name = caccent;
position = "{794, 173}";
},
{
name = center;
position = "{480, 508}";
},
{
name = eng;
position = "{657, 59}";
},
{
name = gram;
position = "{951, 365}";
},
{
name = greek_top;
position = "{196, 739}";
},
{
name = mark;
position = "{1022, 771}";
},
{
name = top;
position = "{623, 968}";
},
{
name = top_hook;
position = "{67, 592}";
},
{
name = topleft;
position = "{172, 804}";
}
);
hints = (
{
horizontal = 1;
origin = "{0, 0}";
target = up;
type = BottomGhost;
},
{
horizontal = 1;
origin = "{2, 0}";
target = "{2, 3}";
type = Stem;
},
{
origin = "{0, 0}";
target = "{1, 2}";
type = Stem;
}
);
layerId = "BA196CD0-EE58-4274-B8DF-4393D3617A29";
paths = (
{
closed = 1;
nodes = (
"23 0 LINE",
"196 0 LINE",
"385 847 LINE",
"266 847 LINE"
);
},
{
closed = 1;
nodes = (
"539 0 LINE",
"720 0 LINE",
"906 847 LINE",
"787 847 LINE"
);
},
{
closed = 1;
nodes = (
"195 211 LINE",
"645 211 LINE",
"697 375 LINE",
"239 375 LINE"
);
}
);
width = 893;
},
{
anchors = (
{
name = bottom;
position = "{380, 4}";
},
{
name = caccent;
position = "{801, 176}";
},
{
name = center;
position = "{487, 416}";
},
{
name = eng;
position = "{664, 62}";
},
{
name = gram;
position = "{885, 368}";
},
{
name = greek_top;
position = "{190, 743}";
},
{
name = mark;
position = "{1029, 774}";
},
{
name = top;
position = "{630, 919}";
},
{
name = top_hook;
position = "{49, 538}";
},
{
name = topleft;
position = "{180, 795}";
}
);
layerId = "BBDB329E-CE83-4304-A6B1-53EA5ACC004E";
paths = (
{
closed = 1;
nodes = (
"-10 -27 LINE",
"227 -27 LINE",
"430 862 LINE",
"252 862 LINE"
);
},
{
closed = 1;
nodes = (
"506 -27 LINE",
"751 -27 LINE",
"950 862 LINE",
"773 862 LINE"
);
},
{
closed = 1;
nodes = (
"163 184 LINE",
"673 184 LINE",
"743 409 LINE",
"224 409 LINE"
);
}
);
width = 779;
}
);
unicode = 0048;
},
{
color = 6;
glyphname = I;
lastChange = "2019-10-04 00:08:37 +0000";
layers = (
{
anchors = (
{
name = bottom;
position = "{84, 5}";
},
{
name = ogonek;
position = "{55, 0}";
},
{
name = top;
position = "{332, 968}";
},
{
name = topleft;
position = "{177, 850}";
}
);
layerId = "BA196CD0-EE58-4274-B8DF-4393D3617A29";
paths = (
{
closed = 1;
nodes = (
"156 0 LINE",
"201 275 OFFCURVE",
"277 580 OFFCURVE",
"360 847 CURVE",
"236 847 LINE",
"217 738 OFFCURVE",
"120 330 OFFCURVE",
"-3 0 CURVE"
);
}
);
width = 303;
},
{
anchors = (
{
name = bottom;
position = "{131, -66}";
},
{
name = ogonex;
position = "{149, 30}";
},
{
name = top;
position = "{396, 968}";
},
{
name = topleft;
position = "{210, 795}";
}
);
layerId = "BBDB329E-CE83-4304-A6B1-53EA5ACC004E";
paths = (
{
closed = 1;
nodes = (
"246 0 LINE",
"293 305 OFFCURVE",
"368 584 OFFCURVE",
"456 862 CURVE",
"265 862 LINE",
"260 715 OFFCURVE",
"148 334 OFFCURVE",
"18 0 CURVE"
);
}
);
width = 303;
}
);
unicode = 0049;
},
{
color = 6;
glyphname = J;
lastChange = "2019-09-25 14:25:00 +0000";
layers = (
{
anchors = (
{
name = bottom;
position = "{172, 25}";
},
{
name = top;
position = "{440, 849}";
}
);
layerId = "BA196CD0-EE58-4274-B8DF-4393D3617A29";
paths = (
{
closed = 1;
nodes = (
"237 -226 OFFCURVE",
"301 -140 OFFCURVE",
"360 60 CURVE SMOOTH",
"598 873 LINE",
"440 873 LINE",
"221 89 LINE SMOOTH",
"204 30 OFFCURVE",
"144 -59 OFFCURVE",
"66 -9 CURVE SMOOTH",
"14 12 LINE",
"-71 -159 LINE",
"35 -182 LINE SMOOTH"
);
}
);
width = 486;
},
{
anchors = (
{
name = bottom;
position = "{239, 26}";
},
{
name = top;
position = "{507, 850}";
}
);
layerId = "BBDB329E-CE83-4304-A6B1-53EA5ACC004E";
paths = (
{
closed = 1;
nodes = (
"230 42 OFFCURVE",
"194 -16 OFFCURVE",
"96 10 CURVE SMOOTH",
"-14 40 LINE",
"-167 -175 LINE",
"139 -200 LINE SMOOTH",
"230 -207 OFFCURVE",
"353 -156 OFFCURVE",
"423 59 CURVE SMOOTH",
"719 963 LINE",
"526 963 LINE",
"268 159 LINE SMOOTH"
);
}
);
width = 486;
}
);
unicode = 004A;
},
{
color = 6;
glyphname = K;
lastChange = "2019-10-05 01:04:19 +0000";
layers = (
{
anchors = (
{
name = bottom;
position = "{233, -38}";
},
{
name = center;
position = "{273, 750}";
},
{
name = top;
position = "{520, 951}";
},
{
name = top_hook;
position = "{762, 564}";
}
);
layerId = "BA196CD0-EE58-4274-B8DF-4393D3617A29";
paths = (
{
closed = 1;
nodes = (
"114 1 LINE",
"227 339 LINE",
"353 1 LINE",
"619 1 LINE",
"355 393 LINE",
"744 849 LINE",
"587 849 LINE",
"259 452 LINE",
"364 849 LINE",
"259 849 LINE",
"-32 1 LINE"
);
}
);
width = 737;
},
{
anchors = (
{
name = bottom;
position = "{297, 0}";
},
{
name = center;
position = "{412, 770}";
},
{
name = top;
position = "{584, 824}";
},
{
name = top_hook;
position = "{767, 582}";
}
);
layerId = "BBDB329E-CE83-4304-A6B1-53EA5ACC004E";
paths = (
{
closed = 1;
nodes = (
"200 0 LINE",
"282 233 LINE",
"393 0 LINE",
"751 0 LINE",
"436 374 LINE",
"927 848 LINE",
"708 848 LINE",
"369 530 LINE",
"536 848 LINE",
"364 848 LINE",
"-22 0 LINE"
);
}
);
width = 737;
}
);
unicode = 004B;
},
{
color = 6;
glyphname = L;
lastChange = "2019-09-25 14:25:00 +0000";
layers = (
{
anchors = (
{
name = "_ circumflexbelowcomb";
position = "{252, -80}";
},
{
name = bottom;
position = "{244, -81}";
},
{
name = center;
position = "{185, 406}";
},
{
name = right;
position = "{458, 728}";
},
{
name = top;
position = "{310, 962}";
},
{
name = topright;
position = "{797, 791}";
}
);
layerId = "BA196CD0-EE58-4274-B8DF-4393D3617A29";
paths = (
{
closed = 1;
nodes = (
"521 0 LINE",
"555 172 LINE",
"159 165 LINE",
"326 847 LINE",
"214 847 LINE",
"-36 0 LINE"
);
}
);
width = 635;
},
{
anchors = (
{
name = "_ circumflexbelowcomb";
position = "{315, -26}";
},
{
name = bottom;
position = "{322, 9}";
},
{
name = center;
position = "{257, 460}";
},
{
name = right;
position = "{521, 731}";
},
{
name = top;
position = "{357, 884}";
},
{
name = topright;
position = "{860, 795}";
}
);
layerId = "BBDB329E-CE83-4304-A6B1-53EA5ACC004E";
paths = (
{
closed = 1;
nodes = (
"610 0 LINE",
"655 205 LINE",
"251 198 LINE",
"428 851 LINE",
"255 851 LINE",
"-13 0 LINE"
);
}
);
width = 635;
}
);
unicode = 004C;
},
{
color = 6;
glyphname = M;
lastChange = "2019-09-25 14:25:00 +0000";
layers = (
{
anchors = (
{
name = _top;
position = "{591, 910}";
},
{
name = bottom;
position = "{366, -63}";
},
{
name = hookbelow;
position = "{830, 177}";
},
{
name = top;
position = "{614, 954}";
}
);
layerId = "BA196CD0-EE58-4274-B8DF-4393D3617A29";
paths = (
{
closed = 1;
nodes = (
"122 0 LINE",
"285 702 LINE",
"338 71 LINE",
"462 71 LINE",
"862 702 LINE",
"590 0 LINE",
"774 0 LINE",
"960 824 LINE",
"804 824 LINE",
"460 327 LINE",
"378 824 LINE",
"209 824 LINE",
"-41 0 LINE"
);
}
);
width = 883;
},
{
anchors = (
{
name = _top;
position = "{599, 753}";
},
{
name = bottom;
position = "{430, 4}";
},
{
name = hookbelow;
position = "{894, 181}";
},
{
name = top;
position = "{643, 795}";
}
);
layerId = "BBDB329E-CE83-4304-A6B1-53EA5ACC004E";
paths = (
{
closed = 1;
nodes = (
"211 0 LINE",
"368 764 LINE",
"305 752 LINE",
"360 44 LINE",
"530 44 LINE",
"942 753 LINE",
"885 764 LINE",
"614 0 LINE",
"862 0 LINE",
"1061 858 LINE",
"855 858 LINE",
"545 408 LINE",
"470 858 LINE",
"252 858 LINE",
"-17 0 LINE"
);
}
);
width = 883;
}
);
unicode = 004D;
},
{
color = 6;
glyphname = N;
lastChange = "2019-09-25 14:56:28 +0000";
layers = (
{
anchors = (
{
name = _;
position = "{349, 0}";
},
{
name = bottom;
position = "{329, -67}";
},
{
name = center;
position = "{439, 388}";
},
{
name = eng;
position = "{523, 14}";
},
{
name = top;
position = "{591, 920}";
}
);
layerId = "BA196CD0-EE58-4274-B8DF-4393D3617A29";
paths = (
{
closed = 1;
nodes = (
"150 0 LINE",
"314 696 LINE",
"419 0 LINE",
"602 0 LINE",
"869 822 LINE",
"765 822 LINE",
"531 157 LINE",
"385 791 LINE",
"245 791 LINE",
"-34 0 LINE"
);
}
);
width = 765;
},
{
anchors = (
{
name = _;
position = "{411, 4}";
},
{
name = bottom;
position = "{370, 4}";
},
{
name = eng;
position = "{585, 17}";
},
{
name = top;
position = "{648, 880}";
}
);
layerId = "BBDB329E-CE83-4304-A6B1-53EA5ACC004E";
paths = (
{
closed = 1;
nodes = (
"236 0 LINE",
"408 701 LINE",
"344 688 LINE",
"452 0 LINE",
"686 0 LINE",
"972 856 LINE",
"807 856 LINE",
"601 272 LINE",
"476 825 LINE",
"287 825 LINE",
"-13 0 LINE"
);
}
);
width = 765;
}
);
unicode = 004E;
},
{
color = 6;
glyphname = O;
lastChange = "2019-10-03 20:29:46 +0000";
layers = (
{
anchors = (
{
name = abovecomb;
position = "{645, 998}";
},
{
name = bottom;
position = "{332, -94}";
},
{
name = center;
position = "{466, 439}";
},
{
name = horn;
position = "{797, 724}";
},
{
name = ogonek;
position = "{389, 13}";
},
{
name = polyomicron;
position = "{205, 761}";
},
{
name = top;
position = "{623, 956}";
},
{
name = topleft;
position = "{112, 793}";
},
{
name = topright;
position = "{1008, 793}";
}
);
layerId = "BA196CD0-EE58-4274-B8DF-4393D3617A29";
paths = (
{
closed = 1;
nodes = (
"633 -16 OFFCURVE",
"741 63 OFFCURVE",
"843 413 CURVE SMOOTH",
"919 673 OFFCURVE",
"807 840 OFFCURVE",
"573 840 CURVE SMOOTH",
"339 840 OFFCURVE",
"142 673 OFFCURVE",
"72 413 CURVE SMOOTH",
"-22 63 OFFCURVE",
"79 -12 OFFCURVE",
"343 -14 CURVE SMOOTH"
);
},
{
closed = 1;
nodes = (
"237 197 OFFCURVE",
"146 243 OFFCURVE",
"191 413 CURVE SMOOTH",
"247 621 OFFCURVE",
"389 761 OFFCURVE",
"551 761 CURVE SMOOTH",
"715 761 OFFCURVE",
"780 621 OFFCURVE",
"724 413 CURVE SMOOTH",
"679 243 OFFCURVE",
"564 197 OFFCURVE",
"401 197 CURVE SMOOTH"
);
}
);
width = 843;
},
{
anchors = (
{
name = abovecomb;
position = "{793, 915}";
},
{
name = bottom;
position = "{370, -56}";
},
{
name = center;
position = "{504, 443}";
},
{
name = horn;
position = "{884, 745}";
},
{
name = ogonek;
position = "{766, 17}";
},
{
name = polyomicron;
position = "{243, 765}";
},
{
name = top;
position = "{699, 949}";
},
{
name = topleft;
position = "{232, 757}";
},
{
name = topright;
position = "{884, 806}";
}
);
layerId = "BBDB329E-CE83-4304-A6B1-53EA5ACC004E";
paths = (
{
closed = 1;
nodes = (
"689 -34 OFFCURVE",
"808 58 OFFCURVE",
"912 416 CURVE SMOOTH",
"991 690 OFFCURVE",
"872 874 OFFCURVE",
"619 874 CURVE SMOOTH",
"367 874 OFFCURVE",
"153 692 OFFCURVE",
"80 417 CURVE SMOOTH",
"-11 78 OFFCURVE",
"64 -30 OFFCURVE",
"374 -32 CURVE SMOOTH"
);
},
{
closed = 1;
nodes = (
"275 231 OFFCURVE",
"224 283 OFFCURVE",
"261 417 CURVE SMOOTH",
"313 611 OFFCURVE",
"439 734 OFFCURVE",
"582 734 CURVE SMOOTH",
"724 734 OFFCURVE",
"784 611 OFFCURVE",
"732 417 CURVE SMOOTH",
"696 282 OFFCURVE",
"618 231 OFFCURVE",
"447 231 CURVE SMOOTH"
);
}
);
width = 919;
}
);
unicode = 004F;
},
{
color = 6;
glyphname = P;
lastChange = "2019-09-25 15:30:30 +0000";
layers = (
{
anchors = (
{
name = bend;
position = "{163, 380}";
},
{
name = bottom;
position = "{268, 0}";
},
{
name = center;
position = "{424, 597}";
},
{
name = stroke;
position = "{135, 194}";
},
{
name = top;
position = "{533, 971}";
},
{
name = top_hook;
position = "{45, 591}";
},
{
name = topleft;
position = "{136, 841}";
}
);
layerId = "BA196CD0-EE58-4274-B8DF-4393D3617A29";
paths = (
{
closed = 1;
nodes = (
"159 0 LINE",
"219 310 LINE",
"357 316 LINE SMOOTH",
"547 325 OFFCURVE",
"621 413 OFFCURVE",
"665 576 CURVE SMOOTH",
"695 688 OFFCURVE",
"677 850 OFFCURVE",
"467 850 CURVE SMOOTH",
"254 850 LINE",
"-9 0 LINE"
);
},
{
closed = 1;
nodes = (
"328 740 LINE",
"452 740 LINE SMOOTH",
"567 740 OFFCURVE",
"588 664 OFFCURVE",
"578 629 CURVE SMOOTH",
"543 506 OFFCURVE",
"524 478 OFFCURVE",
"411 473 CURVE SMOOTH",
"256 467 LINE"
);
}
);
width = 652;
},
{
anchors = (
{
name = bottom;
position = "{317, 4}";
},
{
name = top;
position = "{552, 840}";
},
{
name = top_hook;
position = "{63, 547}";
}
);
layerId = "BBDB329E-CE83-4304-A6B1-53EA5ACC004E";
paths = (
{
closed = 1;
nodes = (
"234 0 LINE",
"295 284 LINE",
"400 289 LINE SMOOTH",
"604 300 OFFCURVE",
"730 393 OFFCURVE",
"778 574 CURVE SMOOTH",
"820 731 OFFCURVE",
"716 843 OFFCURVE",
"524 843 CURVE SMOOTH",
"283 843 LINE",
"-1 0 LINE"
);
},
{
closed = 1;
nodes = (
"401 709 LINE",
"492 709 LINE SMOOTH",
"585 709 OFFCURVE",
"645 670 OFFCURVE",
"633 624 CURVE SMOOTH",
"608 531 OFFCURVE",
"579 512 OFFCURVE",
"468 507 CURVE SMOOTH",
"344 502 LINE"
);
}
);
width = 652;
}
);
unicode = 0050;
},
{
glyphname = Thorn;
lastChange = "2019-09-05 22:37:16 +0000";
layers = (
{
layerId = "BA196CD0-EE58-4274-B8DF-4393D3617A29";
paths = (
{
closed = 1;
nodes = (
"81 0 LINE",
"170 0 LINE",
"357 700 LINE",
"268 700 LINE"
);
},
{
closed = 1;
nodes = (
"343 144 OFFCURVE",
"550 245 OFFCURVE",
"584 371 CURVE SMOOTH",
"618 496 OFFCURVE",
"463 597 OFFCURVE",
"318 597 CURVE",
"216 459 OFFCURVE",
"166 282 OFFCURVE",
"196 144 CURVE"
);
},
{
closed = 1;
nodes = (
"218 231 OFFCURVE",
"196 329 OFFCURVE",
"209 375 CURVE SMOOTH",
"221 421 OFFCURVE",
"291 520 OFFCURVE",
"344 520 CURVE SMOOTH",
"397 520 OFFCURVE",
"526 421 OFFCURVE",
"514 375 CURVE SMOOTH",
"501 329 OFFCURVE",
"324 231 OFFCURVE",
"272 231 CURVE SMOOTH"
);
}
);
width = 566;
},
{
layerId = "BBDB329E-CE83-4304-A6B1-53EA5ACC004E";
paths = (
{
closed = 1;
nodes = (
"46 -27 LINE",
"190 -27 LINE",
"392 727 LINE",
"248 727 LINE"
);
},
{
closed = 1;
nodes = (
"189 117 LINE",
"369 117 OFFCURVE",
"576 240 OFFCURVE",
"611 371 CURVE SMOOTH",
"646 501 OFFCURVE",
"504 624 OFFCURVE",
"325 624 CURVE",
"296 608 LINE",
"187 461 OFFCURVE",
"137 275 OFFCURVE",
"169 132 CURVE"
);
},
{
closed = 1;
nodes = (
"251 258 OFFCURVE",
"224 331 OFFCURVE",
"236 375 CURVE SMOOTH",
"248 421 OFFCURVE",
"310 493 OFFCURVE",
"337 493 CURVE SMOOTH",
"379 493 OFFCURVE",
"493 400 OFFCURVE",
"486 375 CURVE SMOOTH",
"480 350 OFFCURVE",
"321 258 OFFCURVE",
"279 258 CURVE SMOOTH"
);
}
);
width = 566;
}
);
unicode = 00DE;
},
{
color = 6;
glyphname = Q;
lastChange = "2019-09-25 14:25:00 +0000";
layers = (
{
anchors = (
{
name = bottom;
position = "{369, 17}";
},
{
name = top;
position = "{648, 989}";
}
);
layerId = "BA196CD0-EE58-4274-B8DF-4393D3617A29";
paths = (
{
closed = 1;
nodes = (
"734 -129 LINE",
"610 64 LINE",
"695 137 OFFCURVE",
"791 236 OFFCURVE",
"842 428 CURVE SMOOTH",
"912 688 OFFCURVE",
"809 855 OFFCURVE",
"575 855 CURVE SMOOTH",
"341 855 OFFCURVE",
"135 655 OFFCURVE",
"74 428 CURVE SMOOTH",
"-23 62 OFFCURVE",
"114 1 OFFCURVE",
"340 1 CURVE SMOOTH",
"352 1 OFFCURVE",
"364 1 OFFCURVE",
"387 3 CURVE",
"470 -129 LINE"
);
},
{
closed = 1;
nodes = (
"261 191 OFFCURVE",
"133 190 OFFCURVE",
"196 428 CURVE SMOOTH",
"244 603 OFFCURVE",
"387 765 OFFCURVE",
"551 765 CURVE SMOOTH",
"714 765 OFFCURVE",
"778 636 OFFCURVE",
"723 428 CURVE SMOOTH",
"700 342 OFFCURVE",
"636 226 OFFCURVE",
"601 226 CURVE SMOOTH",
"556 226 OFFCURVE",
"499 250 OFFCURVE",
"447 281 CURVE",
"386 195 LINE",
"325 193 LINE SMOOTH"
);
}
);
width = 878;
},
{
anchors = (
{
name = bottom;
position = "{429, 20}";
},
{
name = top;
position = "{642, 811}";
}
);
layerId = "BBDB329E-CE83-4304-A6B1-53EA5ACC004E";
paths = (
{
closed = 1;
nodes = (
"857 -156 LINE",
"711 68 LINE",
"825 172 OFFCURVE",
"893 282 OFFCURVE",
"932 432 CURVE SMOOTH",
"1007 710 OFFCURVE",
"893 889 OFFCURVE",
"643 889 CURVE SMOOTH",
"406 889 OFFCURVE",
"173 690 OFFCURVE",
"104 432 CURVE SMOOTH",
"16 102 OFFCURVE",
"97 -26 OFFCURVE",
"392 -26 CURVE SMOOTH",
"401 -26 OFFCURVE",
"410 -26 OFFCURVE",
"427 -25 CURVE",
"509 -156 LINE"
);
},
{
closed = 1;
nodes = (
"328 225 OFFCURVE",
"232 224 OFFCURVE",
"288 432 CURVE SMOOTH",
"335 607 OFFCURVE",
"469 738 OFFCURVE",
"602 738 CURVE SMOOTH",
"747 738 OFFCURVE",
"805 625 OFFCURVE",
"753 432 CURVE SMOOTH",
"737 375 OFFCURVE",
"676 260 OFFCURVE",
"670 260 CURVE SMOOTH",
"628 260 OFFCURVE",
"570 284 OFFCURVE",
"504 328 CURVE",
"434 228 LINE",
"393 227 LINE SMOOTH"
);
}
);
width = 878;
}
);
unicode = 0051;
},
{
color = 6;
glyphname = R;
lastChange = "2019-09-25 14:25:00 +0000";
layers = (
{
anchors = (
{
name = bottom;
position = "{246, 0}";
},
{
name = bottom_hook;
position = "{18, -23}";
},
{
name = top;
position = "{507, 918}";
}
);
layerId = "BA196CD0-EE58-4274-B8DF-4393D3617A29";
paths = (
{
closed = 1;
nodes = (
"558 421 OFFCURVE",
"621 478 OFFCURVE",
"649 586 CURVE SMOOTH",
"692 746 OFFCURVE",
"615 824 OFFCURVE",
"447 824 CURVE SMOOTH",
"245 824 LINE",
"-29 0 LINE",
"151 0 LINE",
"218 319 LINE",
"280 329 LINE SMOOTH",
"351 340 OFFCURVE",
"471 332 OFFCURVE",
"432 211 CURVE SMOOTH",
"366 0 LINE",
"571 0 LINE",
"567 225 LINE SMOOTH",
"565 313 OFFCURVE",
"518 384 OFFCURVE",
"476 409 CURVE"
);
},
{
closed = 1;
nodes = (
"528 765 OFFCURVE",
"607 728 OFFCURVE",
"570 586 CURVE SMOOTH",
"551 515 OFFCURVE",
"446 458 OFFCURVE",
"361 458 CURVE SMOOTH",
"219 458 LINE",
"301 765 LINE",
"444 765 LINE SMOOTH"
);
}
);
width = 692;
},
{
anchors = (
{
name = bottom;
position = "{294, -75}";
},
{
name = bottom_hook;
position = "{87, -19}";
},
{
name = top;
position = "{563, 875}";
}
);
layerId = "BBDB329E-CE83-4304-A6B1-53EA5ACC004E";
paths = (
{
closed = 1;
nodes = (
"677 435 OFFCURVE",
"726 500 OFFCURVE",
"750 590 CURVE SMOOTH",
"796 762 OFFCURVE",
"714 858 OFFCURVE",
"526 858 CURVE SMOOTH",
"294 858 LINE",
"0 -27 LINE",
"245 -27 LINE",
"312 297 LINE",
"347 302 LINE SMOOTH",
"445 318 OFFCURVE",
"494 286 OFFCURVE",
"471 216 CURVE SMOOTH",
"396 -27 LINE",
"674 -27 LINE",
"668 236 LINE SMOOTH",
"667 297 OFFCURVE",
"644 361 OFFCURVE",
"608 402 CURVE"
);
},
{
closed = 1;
nodes = (
"600 738 OFFCURVE",
"635 689 OFFCURVE",
"608 590 CURVE SMOOTH",
"596 541 OFFCURVE",
"513 492 OFFCURVE",
"439 492 CURVE SMOOTH",
"328 492 LINE",
"393 738 LINE",
"504 738 LINE SMOOTH"
);
}
);
width = 692;
}
);
unicode = 0052;
},
{
color = 6;
glyphname = S;
lastChange = "2019-09-25 14:29:55 +0000";
layers = (
{
anchors = (
{
name = bottom;
position = "{307, -66}";
},
{
name = center;
position = "{428, 433}";
},
{
name = top;
position = "{582, 963}";
}
);
layerId = "BA196CD0-EE58-4274-B8DF-4393D3617A29";
paths = (
{
closed = 1;
nodes = (
"476 -14 OFFCURVE",
"697 16 OFFCURVE",
"713 259 CURVE SMOOTH",
"722 397 OFFCURVE",
"648 439 OFFCURVE",
"487 473 CURVE SMOOTH",
"423 487 LINE SMOOTH",
"330 507 OFFCURVE",
"263 540 OFFCURVE",
"281 622 CURVE SMOOTH",
"296 692 OFFCURVE",
"359 746 OFFCURVE",
"525 750 CURVE SMOOTH",
"605 752 OFFCURVE",
"619 746 OFFCURVE",
"671 732 CURVE",
"731 825 LINE",
"651 845 OFFCURVE",
"604 850 OFFCURVE",
"528 850 CURVE SMOOTH",
"345 850 OFFCURVE",
"211 782 OFFCURVE",
"172 635 CURVE SMOOTH",
"139 510 OFFCURVE",
"195 437 OFFCURVE",
"350 390 CURVE SMOOTH",
"426 367 LINE SMOOTH",
"531 335 OFFCURVE",
"557 308 OFFCURVE",
"549 257 CURVE SMOOTH",
"536 176 OFFCURVE",
"449 122 OFFCURVE",
"355 124 CURVE SMOOTH",
"291 125 OFFCURVE",
"191 158 OFFCURVE",
"157 191 CURVE",
"-7 98 LINE",
"60 31 OFFCURVE",
"201 -14 OFFCURVE",
"353 -14 CURVE SMOOTH"
);
}
);
width = 768;
},
{
anchors = (
{
name = bottom;
position = "{374, -68}";
},
{
name = top;
position = "{695, 939}";
}
);
layerId = "BBDB329E-CE83-4304-A6B1-53EA5ACC004E";
paths = (
{
closed = 1;
nodes = (
"490 -41 OFFCURVE",
"768 15 OFFCURVE",
"811 232 CURVE SMOOTH",
"839 371 OFFCURVE",
"762 466 OFFCURVE",
"568 506 CURVE SMOOTH",
"504 519 LINE SMOOTH",
"405 542 OFFCURVE",
"362 580 OFFCURVE",
"369 626 CURVE SMOOTH",
"378 685 OFFCURVE",
"465 715 OFFCURVE",
"585 723 CURVE SMOOTH",
"670 729 OFFCURVE",
"673 719 OFFCURVE",
"744 700 CURVE",
"860 839 LINE",
"754 866 OFFCURVE",
"704 874 OFFCURVE",
"613 874 CURVE SMOOTH",
"414 874 OFFCURVE",
"253 783 OFFCURVE",
"208 619 CURVE SMOOTH",
"171 477 OFFCURVE",
"242 390 OFFCURVE",
"414 354 CURVE SMOOTH",
"478 341 LINE SMOOTH",
"586 318 OFFCURVE",
"615 284 OFFCURVE",
"606 241 CURVE SMOOTH",
"590 167 OFFCURVE",
"476 139 OFFCURVE",
"430 140 CURVE SMOOTH",
"349 142 OFFCURVE",
"195 237 OFFCURVE",
"178 272 CURVE",
"1 106 LINE",
"106 16 OFFCURVE",
"212 -41 OFFCURVE",
"343 -41 CURVE SMOOTH"
);
}
);
width = 768;
}
);
unicode = 0053;
},
{
glyphname = Saltillo;
lastChange = "2019-09-05 22:37:16 +0000";
layers = (
{
layerId = "BA196CD0-EE58-4274-B8DF-4393D3617A29";
paths = (
{
closed = 1;
nodes = (
"192 120 LINE",
"296 120 LINE",
"520 763 LINE",
"285 763 LINE"
);
}
);
width = 396;
},
{
layerId = "BBDB329E-CE83-4304-A6B1-53EA5ACC004E";
paths = (
{
closed = 1;
nodes = (
"265 93 LINE",
"419 93 LINE",
"661 790 LINE",
"367 790 LINE"
);
}
);
width = 606;
}
);
unicode = A78B;
},
{
color = 6;
glyphname = T;
lastChange = "2019-09-25 14:25:00 +0000";
layers = (
{
anchors = (
{
name = bottom;
position = "{288, -50}";
},
{
name = bottom_hook;
position = "{352, -19}";
},
{
name = center;
position = "{429, 412}";
},
{
name = hook_top;
position = "{206, 781}";
},
{
name = top;
position = "{586, 949}";
}
);
layerId = "BA196CD0-EE58-4274-B8DF-4393D3617A29";
paths = (
{
closed = 1;
nodes = (
"460 741 LINE",
"240 0 LINE",
"398 0 LINE",
"573 741 LINE",
"866 730 LINE",
"891 824 LINE",
"187 824 LINE",
"162 730 LINE"
);
}
);
width = 785;
},
{
anchors = (
{
name = bottom;
position = "{380, -47}";
},
{
name = bottom_hook;
position = "{389, -23}";
},
{
name = center;
position = "{479, 416}";
},
{
name = hook_top;
position = "{286, 784}";
},
{
name = top;
position = "{599, 866}";
}
);
layerId = "BBDB329E-CE83-4304-A6B1-53EA5ACC004E";
paths = (
{
closed = 1;
nodes = (
"472 0 LINE",
"647 713 LINE",
"939 702 LINE",
"980 858 LINE",
"214 858 LINE",
"173 702 LINE",
"470 713 LINE",
"250 0 LINE"
);
}
);
width = 785;
}
);
unicode = 0054;
},
{
color = 6;
glyphname = U;
lastChange = "2019-09-25 14:25:00 +0000";
layers = (
{
anchors = (
{
name = bottom;
position = "{283, -118}";
},
{
name = horn;
position = "{875, 809}";
},
{
name = ogonek;
position = "{488, 13}";
},
{
name = top;
position = "{564, 998}";
},
{
name = top_hook;
position = "{786, 751}";
},
{
name = topright;
position = "{923, 793}";
}
);
layerId = "BA196CD0-EE58-4274-B8DF-4393D3617A29";
paths = (
{
closed = 1;
nodes = (
"-7 -14 OFFCURVE",
"90 -14 OFFCURVE",
"301 -14 CURVE SMOOTH",
"510 -14 OFFCURVE",
"603 -14 OFFCURVE",
"706 311 CURVE SMOOTH",
"868 826 LINE",
"720 826 LINE",
"622 402 LINE SMOOTH",
"568 162 OFFCURVE",
"492 162 OFFCURVE",
"349 162 CURVE SMOOTH",
"204 162 OFFCURVE",
"127 162 OFFCURVE",
"201 402 CURVE SMOOTH",
"329 826 LINE",
"188 826 LINE",
"68 311 LINE SMOOTH"
);
}
);
width = 764;
},
{
anchors = (
{
name = bottom;
position = "{350, -51}";
},
{
name = horn;
position = "{950, 829}";
},
{
name = ogonek;
position = "{544, 45}";
},
{
name = top;
position = "{627, 975}";
},
{
name = top_hook;
position = "{827, 779}";
},
{
name = topright;
position = "{979, 796}";
}
);
layerId = "BBDB329E-CE83-4304-A6B1-53EA5ACC004E";
paths = (
{
closed = 1;
nodes = (
"18 -12 OFFCURVE",
"138 -24 OFFCURVE",
"350 -24 CURVE SMOOTH",
"559 -24 OFFCURVE",
"689 -14 OFFCURVE",
"793 314 CURVE SMOOTH",
"966 860 LINE",
"753 860 LINE",
"648 404 LINE SMOOTH",
"601 196 OFFCURVE",
"557 196 OFFCURVE",
"413 196 CURVE SMOOTH",
"268 196 OFFCURVE",
"223 196 OFFCURVE",
"288 404 CURVE SMOOTH",
"427 860 LINE",
"221 860 LINE",
"94 314 LINE SMOOTH"
);
}
);
width = 764;
}
);
unicode = 0055;
},
{
color = 6;
glyphname = V;
lastChange = "2019-09-25 14:25:00 +0000";
layers = (
{
anchors = (
{
name = bottom;
position = "{344, 0}";
},
{
name = top;
position = "{556, 903}";
},
{
name = top_hook;
position = "{832, 703}";
}
);
layerId = "BA196CD0-EE58-4274-B8DF-4393D3617A29";
paths = (
{
closed = 1;
nodes = (
"946 824 LINE",
"829 824 LINE",
"425 242 LINE",
"371 242 LINE",
"301 824 LINE",
"183 824 LINE",
"222 0 LINE",
"454 0 LINE"
);
}
);
width = 836;
},
{
anchors = (
{
name = bottom;
position = "{392, 4}";
},
{
name = top;
position = "{620, 853}";
},
{
name = top_hook;
position = "{880, 706}";
}
);
layerId = "BBDB329E-CE83-4304-A6B1-53EA5ACC004E";
paths = (
{
closed = 1;
nodes = (
"1044 858 LINE",
"865 858 LINE",
"471 286 LINE",
"419 276 LINE",
"369 858 LINE",
"197 858 LINE",
"239 0 LINE",
"517 0 LINE"
);
}
);
width = 836;
}
);
unicode = 0056;
},
{
glyphname = Gammaafrican;
lastChange = "2019-09-05 22:37:16 +0000";
layers = (
{
layerId = "BA196CD0-EE58-4274-B8DF-4393D3617A29";
paths = (
{
closed = 1;
nodes = (
"475 749 CURVE SMOOTH",
"469 771 OFFCURVE",
"466 775 OFFCURVE",
"456 800 CURVE",
"295 800 LINE",
"303 780 OFFCURVE",
"317 738 OFFCURVE",
"322 726 CURVE SMOOTH",
"564 16 OFFCURVE",
"616 -78 OFFCURVE",
"449 -73 CURVE SMOOTH",
"237 -67 OFFCURVE",
"387 98 OFFCURVE",
"1012 713 CURVE SMOOTH",
"1022 723 OFFCURVE",
"1087 783 OFFCURVE",
"1105 800 CURVE",
"919 800 LINE",
"903 783 OFFCURVE",
"906 789 OFFCURVE",
"892 772 CURVE SMOOTH",
"291 93 OFFCURVE",
"-113 -194 OFFCURVE",
"419 -200 CURVE SMOOTH",
"859 -205 OFFCURVE",
"664 27 OFFCURVE"
);
}
);
width = 972;
},
{
layerId = "BBDB329E-CE83-4304-A6B1-53EA5ACC004E";
paths = (
{
closed = 1;
nodes = (
"896 -233 OFFCURVE",
"678 62 OFFCURVE",
"496 762 CURVE SMOOTH",
"488 791 OFFCURVE",
"483 794 OFFCURVE",
"470 827 CURVE",
"245 827 LINE",
"269 767 OFFCURVE",
"282 725 OFFCURVE",
"288 712 CURVE",
"533 -6 OFFCURVE",
"565 -49 OFFCURVE",
"450 -46 CURVE SMOOTH",
"297 -42 OFFCURVE",
"365 49 OFFCURVE",
"1023 697 CURVE",
"1016 690 OFFCURVE",
"1046 716 OFFCURVE",
"1170 827 CURVE",
"905 827 LINE",
"877 797 OFFCURVE",
"883 806 OFFCURVE",
"865 786 CURVE SMOOTH",
"281 127 OFFCURVE",
"-179 -220 OFFCURVE",
"405 -227 CURVE SMOOTH"
);
}
);
width = 957;
}
);
unicode = 0194;
},
{
color = 6;
glyphname = W;
lastChange = "2019-09-25 14:25:00 +0000";
layers = (
{
anchors = (
{
name = bottom;
position = "{473, 0}";
},
{
name = center;
position = "{575, 395}";
},
{
name = top;
position = "{736, 992}";
},
{
name = top_hook;
position = "{1326, 564}";
}
);
layerId = "BA196CD0-EE58-4274-B8DF-4393D3617A29";
paths = (
{
closed = 1;
nodes = (
"308 0 LINE",
"592 445 LINE",
"626 0 LINE",
"790 0 LINE",
"1220 824 LINE",
"1111 824 LINE",
"759 221 LINE",
"683 614 LINE",
"585 614 LINE",
"285 233 LINE",
"275 824 LINE",
"166 824 LINE",
"131 0 LINE"
);
}
);
width = 1094;
},
{
anchors = (
{
name = bottom;
position = "{523, 4}";
},
{
name = center;
position = "{619, 374}";
},
{
name = top;
position = "{741, 827}";
},
{
name = top_hook;
position = "{1273, 569}";
}
);
layerId = "BBDB329E-CE83-4304-A6B1-53EA5ACC004E";
paths = (
{
closed = 1;
nodes = (
"371 0 LINE",
"617 357 LINE",
"646 0 LINE",
"856 0 LINE",
"1318 858 LINE",
"1147 858 LINE",
"826 310 LINE",
"761 648 LINE",
"626 648 LINE",
"366 319 LINE",
"357 858 LINE",
"186 858 LINE",
"149 0 LINE"
);
}
);
width = 1094;
}
);
unicode = 0057;
},
{
color = 6;
glyphname = X;
lastChange = "2019-09-25 14:25:00 +0000";
layers = (
{
anchors = (
{
name = bottom;
position = "{324, 0}";
},
{
name = bottom_hook;
position = "{585, 24}";
},
{
name = top;
position = "{556, 921}";
}
);
layerId = "BA196CD0-EE58-4274-B8DF-4393D3617A29";
paths = (
{
closed = 1;
nodes = (
"501 0 LINE",
"682 0 LINE",
"330 824 LINE",
"229 824 LINE"
);
},
{
closed = 1;
nodes = (
"-35 0 LINE",
"148 0 LINE",
"875 825 LINE",
"776 825 LINE"
);
}
);
width = 797;
},
{
anchors = (
{
name = bottom;
position = "{388, 4}";
},
{
name = bottom_hook;
position = "{649, 27}";
},
{
name = top;
position = "{601, 795}";
}
);
layerId = "BBDB329E-CE83-4304-A6B1-53EA5ACC004E";
paths = (
{
closed = 1;
nodes = (
"540 0 LINE",
"796 0 LINE",
"419 858 LINE",
"247 858 LINE"
);
},
{
closed = 1;
nodes = (
"-38 0 LINE",
"221 0 LINE",
"1003 859 LINE",
"832 859 LINE"
);
}
);
width = 797;
}
);
unicode = 0058;
},
{
color = 6;
glyphname = Y;
lastChange = "2019-10-03 21:07:12 +0000";
layers = (
{
anchors = (
{
name = bottom;
position = "{299, -88}";
},
{
name = top;
position = "{570, 994}";
},
{
name = top_hook;
position = "{865, 565}";
},
{
name = topleft;
position = "{119, 824}";
}
);
layerId = "BA196CD0-EE58-4274-B8DF-4393D3617A29";
paths = (
{
closed = 1;
nodes = (
"234 0 LINE",
"385 0 LINE",
"461 282 LINE",
"877 824 LINE",
"756 824 LINE",
"420 402 LINE",
"308 824 LINE",
"187 824 LINE",
"309 282 LINE"
);
}
);
width = 772;
},
{
anchors = (
{
name = bottom;
position = "{360, 4}";
},
{
name = top;
position = "{603, 940}";
},
{
name = top_hook;
position = "{913, 569}";
},
{
name = topleft;
position = "{100, 795}";
}
);
layerId = "BBDB329E-CE83-4304-A6B1-53EA5ACC004E";
paths = (
{
closed = 1;
nodes = (
"243 0 LINE",
"457 0 LINE",
"538 279 LINE",
"982 858 LINE",
"794 858 LINE",
"486 471 LINE",
"383 858 LINE",
"195 858 LINE",
"325 279 LINE"
);
}
);
width = 772;
}
);
unicode = 0059;
},
{
color = 6;
glyphname = Z;
lastChange = "2019-09-25 14:25:00 +0000";
layers = (
{
anchors = (
{
name = bottom;
position = "{301, -94}";
},
{
name = center;
position = "{418, 395}";
},
{
name = top;
position = "{570, 948}";
}
);
hints = (
{
origin = "{0, 3}";
type = Delta;
settings = {
deltaH = {
"{100, 400, 0, 0, 0, 0}" = {
"55" = 0;
};
};
};
},
{
origin = "{0, 2}";
type = Delta;
settings = {
deltaH = {
"{100, 400, 0, 0, 0, 0}" = {
"55" = 0;
};
};
};
}
);
layerId = "BA196CD0-EE58-4274-B8DF-4393D3617A29";
paths = (
{
closed = 1;
nodes = (
"657 7 LINE",
"646 185 LINE",
"193 185 LINE",
"886 649 LINE",
"886 770 LINE",
"232 770 LINE",
"200 663 LINE",
"660 656 LINE",
"-15 185 LINE",
"-57 0 LINE"
);
}
);
width = 813;
},
{
anchors = (
{
name = bottom;
position = "{395, 4}";
},
{
name = center;
position = "{501, 399}";
},
{
name = top;
position = "{752, 884}";
}
);
layerId = "BBDB329E-CE83-4304-A6B1-53EA5ACC004E";
paths = (
{
closed = 1;
nodes = (
"715 656 LINE",
"42 204 LINE",
"-13 0 LINE",
"775 0 LINE",
"759 199 LINE",
"301 199 LINE",
"974 675 LINE",
"1008 804 LINE",
"268 804 LINE",
"317 656 LINE"
);
}
);
width = 813;
}
);
unicode = 005A;
},
{
color = 6;
glyphname = A.001;
layers = (
{
anchors = (
{
name = abovecomb;
position = "{655, 866}";
},
{
name = bottom;
position = "{417, -93}";
},
{
name = dotbelow;
position = "{431, 7}";
},
{
name = dotbelowcomb;
position = "{427, 8}";
},
{
name = greekcap;
position = "{363, 682}";
},
{
name = ogonek;
position = "{678, 0}";
},
{
name = polyomicron;
position = "{373, 684}";
},
{
name = top;
position = "{683, 955}";
}
);
guideLines = (
{
angle = 90.9113;
position = "{603, 56}";
}
);
hints = (
{
horizontal = 1;
origin = "{0, 2}";
target = up;
type = BottomGhost;
},
{
horizontal = 1;
place = "{79, 81}";
type = Stem;
},
{
horizontal = 1;
origin = "{0, 3}";
target = down;
type = TopGhost;
},
{
horizontal = 1;
origin = "{0, 6}";
target = up;
type = BottomGhost;
},
{
horizontal = 1;
place = "{720, 2000}";
type = Stem;
},
{
origin = "{0, 2}";
target = "{0, 7}";
type = Stem;
}
);
layerId = "BA196CD0-EE58-4274-B8DF-4393D3617A29";
paths = (
{
closed = 1;
nodes = (
"702 846 LINE",
"599 848 LINE",
"59 -1 LINE",
"206 -1 LINE",
"284 154 LINE",
"627 131 LINE",
"627 -1 LINE",
"793 -1 LINE"
);
},
{
closed = 1;
nodes = (
"351 268 LINE",
"646 775 LINE",
"646 268 LINE"
);
}
);
width = 836;
},
{
anchors = (
{
name = abovecomb;
position = "{655, 878}";
},
{
name = bottom;
position = "{419, 3}";
},
{
name = dotbelow;
position = "{432, 10}";
},
{
name = dotbelowcomb;
position = "{429, 11}";
},
{
name = gram;
position = "{933, 369}";
},
{
name = greekcap;
position = "{365, 679}";
},
{
name = ogonek;
position = "{678, 3}";
},
{
name = polyomicron;
position = "{375, 681}";
},
{
name = top;
position = "{661, 853}";
}
);
layerId = "BBDB329E-CE83-4304-A6B1-53EA5ACC004E";
paths = (
{
closed = 1;
nodes = (
"207 -27 LINE",
"284 106 LINE",
"609 106 LINE",
"606 -27 LINE",
"834 -27 LINE",
"719 850 LINE",
"573 850 LINE",
"-12 -27 LINE"
);
},
{
closed = 1;
nodes = (
"387 297 LINE",
"591 649 LINE",
"608 297 LINE"
);
}
);
width = 836;
}
);
},
{
color = 6;
glyphname = B.001;
layers = (
{
anchors = (
{
name = bottom;
position = "{342, 0}";
},
{
name = top;
position = "{555, 811}";
},
{
name = top_hook;
position = "{72, 591}";
}
);
layerId = "BA196CD0-EE58-4274-B8DF-4393D3617A29";
paths = (
{
closed = 1;
nodes = (
"340 0 LINE SMOOTH",
"527 0 OFFCURVE",
"654 28 OFFCURVE",
"705 231 CURVE SMOOTH",
"741 375 OFFCURVE",
"689 454 OFFCURVE",
"549 478 CURVE",
"654 493 OFFCURVE",
"709 548 OFFCURVE",
"725 681 CURVE SMOOTH",
"748 873 OFFCURVE",
"637 849 OFFCURVE",
"522 849 CURVE SMOOTH",
"262 849 LINE",
"42 0 LINE"
);
},
{
closed = 1;
nodes = (
"260 427 LINE",
"440 427 LINE SMOOTH",
"500 427 OFFCURVE",
"543 416 OFFCURVE",
"565 391 CURVE SMOOTH",
"587 365 OFFCURVE",
"602 349 OFFCURVE",
"593 293 CURVE SMOOTH",
"574 180 OFFCURVE",
"499 164 OFFCURVE",
"378 164 CURVE SMOOTH",
"199 164 LINE"
);
},
{
closed = 1;
nodes = (
"355 774 LINE",
"522 774 LINE SMOOTH",
"631 774 OFFCURVE",
"660 775 OFFCURVE",
"647 687 CURVE SMOOTH",
"628 549 OFFCURVE",
"560 518 OFFCURVE",
"451 518 CURVE SMOOTH",
"283 518 LINE"
);
}
);
width = 694;
},
{
anchors = (
{
name = bottom;
position = "{347, 0}";
},
{
name = top;
position = "{535, 700}";
},
{
name = top_hook;
position = "{66, 470}";
}
);
layerId = "BBDB329E-CE83-4304-A6B1-53EA5ACC004E";
paths = (
{
closed = 1;
nodes = (
"476 321 OFFCURVE",
"506 313 OFFCURVE",
"521 296 CURVE SMOOTH",
"538 277 OFFCURVE",
"545 258 OFFCURVE",
"542 248 CURVE SMOOTH",
"526 188 OFFCURVE",
"496 172 OFFCURVE",
"386 172 CURVE SMOOTH",
"254 172 LINE",
"294 321 LINE",
"426 321 LINE SMOOTH"
);
},
{
closed = 1;
nodes = (
"575 636 OFFCURVE",
"606 601 OFFCURVE",
"590 538 CURVE SMOOTH",
"574 481 OFFCURVE",
"533 455 OFFCURVE",
"450 455 CURVE SMOOTH",
"330 455 LINE",
"378 636 LINE",
"499 636 LINE SMOOTH"
);
},
{
closed = 1;
nodes = (
"338 -27 LINE SMOOTH",
"504 -27 OFFCURVE",
"633 -27 OFFCURVE",
"695 204 CURVE SMOOTH",
"720 296 OFFCURVE",
"692 363 OFFCURVE",
"616 398 CURVE",
"667 429 OFFCURVE",
"705 481 OFFCURVE",
"723 549 CURVE SMOOTH",
"758 680 OFFCURVE",
"679 756 OFFCURVE",
"514 756 CURVE SMOOTH",
"256 756 LINE",
"46 -27 LINE"
);
}
);
width = 694;
}
);
},
{
color = 6;
glyphname = C.001;
layers = (
{
anchors = (
{
name = bottom;
position = "{379, 2}";
},
{
name = center;
position = "{236, 454}";
},
{
name = top;
position = "{619, 906}";
},
{
name = top_hook;
position = "{845, 772}";
},
{
name = topleft;
position = "{355, 761}";
},
{
name = vcenter;
position = "{509, 414}";
}
);
layerId = "BA196CD0-EE58-4274-B8DF-4393D3617A29";
paths = (
{
closed = 1;
nodes = (
"802 860 OFFCURVE",
"694 860 OFFCURVE",
"658 859 CURVE SMOOTH",
"406 851 OFFCURVE",
"204 682 OFFCURVE",
"137 418 CURVE SMOOTH",
"66 137 OFFCURVE",
"208 -13 OFFCURVE",
"280 -13 CURVE SMOOTH",
"374 -13 OFFCURVE",
"409 -13 OFFCURVE",
"634 -13 CURVE",
"686 181 LINE",
"625 164 OFFCURVE",
"546 159 OFFCURVE",
"482 159 CURVE SMOOTH",
"338 159 OFFCURVE",
"213 187 OFFCURVE",
"272 418 CURVE SMOOTH",
"333 657 OFFCURVE",
"541 735 OFFCURVE",
"642 757 CURVE SMOOTH",
"733 776 OFFCURVE",
"778 760 OFFCURVE",
"845 738 CURVE",
"884 840 LINE"
);
}
);
width = 724;
},
{
anchors = (
{
name = bottom;
position = "{393, 0}";
},
{
name = top;
position = "{688, 732}";
},
{
name = top_hook;
position = "{805, 682}";
}
);
layerId = "BBDB329E-CE83-4304-A6B1-53EA5ACC004E";
paths = (
{
closed = 1;
nodes = (
"767 770 OFFCURVE",
"746 773 OFFCURVE",
"647 773 CURVE SMOOTH",
"409 773 OFFCURVE",
"219 617 OFFCURVE",
"152 368 CURVE SMOOTH",
"56 9 OFFCURVE",
"71 -40 OFFCURVE",
"297 -40 CURVE SMOOTH",
"385 -40 OFFCURVE",
"416 -40 OFFCURVE",
"639 -40 CURVE",
"702 197 LINE",
"628 173 OFFCURVE",
"591 166 OFFCURVE",
"491 166 CURVE SMOOTH",
"317 166 OFFCURVE",
"256 229 OFFCURVE",
"294 368 CURVE SMOOTH",
"340 541 OFFCURVE",
"463 645 OFFCURVE",
"619 645 CURVE SMOOTH",
"714 645 OFFCURVE",
"706 644 OFFCURVE",
"819 625 CURVE",
"878 755 LINE"
);
}
);
width = 724;
}
);
},
{
color = 6;
glyphname = D.001;
layers = (
{
anchors = (
{
name = bottom;
position = "{338, -92}";
},
{
name = dash;
position = "{284, 427}";
},
{
name = hook_top;
position = "{237, 785}";
},
{
name = top;
position = "{586, 912}";
}
);
layerId = "BA196CD0-EE58-4274-B8DF-4393D3617A29";
paths = (
{
closed = 1;
nodes = (
"264 0 LINE SMOOTH",
"586 0 OFFCURVE",
"748 23 OFFCURVE",
"854 435 CURVE SMOOTH",
"926 718 OFFCURVE",
"819 846 OFFCURVE",
"496 846 CURVE SMOOTH",
"264 846 LINE",
"33 0 LINE"
);
},
{
closed = 1;
nodes = (
"361 767 LINE",
"498 767 LINE SMOOTH",
"727 767 OFFCURVE",
"826 670 OFFCURVE",
"770 467 CURVE SMOOTH",
"733 329 OFFCURVE",
"631 215 OFFCURVE",
"344 215 CURVE SMOOTH",
"209 215 LINE"
);
}
);
width = 781;
},
{
anchors = (
{
name = bottom;
position = "{391, -60}";
},
{
name = dash;
position = "{304, 378}";
},
{
name = hook_top;
position = "{248, 669}";
},
{
name = top;
position = "{563, 766}";
}
);
layerId = "BBDB329E-CE83-4304-A6B1-53EA5ACC004E";
paths = (
{
closed = 1;
nodes = (
"279 -27 LINE SMOOTH",
"563 -27 OFFCURVE",
"720 -27 OFFCURVE",
"825 365 CURVE SMOOTH",
"896 631 OFFCURVE",
"788 756 OFFCURVE",
"488 756 CURVE SMOOTH",
"256 756 LINE",
"46 -27 LINE"
);
},
{
closed = 1;
nodes = (
"382 632 LINE",
"475 632 LINE SMOOTH",
"668 632 OFFCURVE",
"740 553 OFFCURVE",
"697 393 CURVE SMOOTH",
"663 266 OFFCURVE",
"573 217 OFFCURVE",
"364 217 CURVE SMOOTH",
"271 217 LINE"
);
}
);
width = 781;
}
);
},
{
color = 6;
glyphname = E.001;
layers = (
{
anchors = (
{
name = bottom;
position = "{326, -72}";
},
{
name = ogonek;
position = "{327, 8}";
},
{
name = top;
position = "{544, 930}";
},
{
name = topleft;
position = "{144, 791}";
}
);
layerId = "BA196CD0-EE58-4274-B8DF-4393D3617A29";
paths = (
{
closed = 1;
nodes = (
"592 0 LINE",
"600 171 LINE",
"219 171 LINE",
"274 397 LINE",
"558 415 LINE",
"584 508 LINE",
"300 496 LINE",
"367 729 LINE",
"703 750 LINE",
"750 863 LINE",
"284 847 LINE",
"40 0 LINE"
);
}
);
width = 649;
},
{
anchors = (
{
name = bottom;
position = "{342, -12}";
},
{
name = ogonek;
position = "{348, 9}";
},
{
name = top;
position = "{541, 766}";
},
{
name = topleft;
position = "{213, 700}";
}
);
layerId = "BBDB329E-CE83-4304-A6B1-53EA5ACC004E";
paths = (
{
closed = 1;
nodes = (
"596 -27 LINE",
"605 178 LINE",
"274 178 LINE",
"308 306 LINE",
"560 322 LINE",
"596 458 LINE",
"346 447 LINE",
"390 612 LINE",
"722 630 LINE",
"793 757 LINE",
"277 741 LINE",
"45 -27 LINE"
);
}
);
width = 649;
}
);
},
{
color = 6;
glyphname = F.001;
layers = (
{
anchors = (
{
name = bottom;
position = "{282, 0}";
},
{
name = bottom_hook;
position = "{68, -43}";
},
{
name = top;
position = "{511, 891}";
}
);
layerId = "BA196CD0-EE58-4274-B8DF-4393D3617A29";
paths = (
{
closed = 1;
nodes = (
"190 0 LINE",
"276 431 LINE",
"582 451 LINE",
"612 566 LINE",
"300 546 LINE",
"387 767 LINE",
"724 786 LINE",
"743 861 LINE",
"302 847 LINE",
"41 0 LINE"
);
}
);
width = 589;
},
{
anchors = (
{
name = bottom;
position = "{295, 0}";
},
{
name = bottom_hook;
position = "{105, -38}";
},
{
name = top;
position = "{482, 700}";
}
);
layerId = "BBDB329E-CE83-4304-A6B1-53EA5ACC004E";
paths = (
{
closed = 1;
nodes = (
"234 -27 LINE",
"311 323 LINE",
"580 341 LINE",
"622 497 LINE",
"351 479 LINE",
"405 620 LINE",
"706 638 LINE",
"738 757 LINE",
"293 743 LINE",
"44 -27 LINE"
);
}
);
width = 589;
}
);
},
{
color = 6;
glyphname = G.001;
layers = (
{
anchors = (
{
name = bottom;
position = "{397, -79}";
},
{
name = top;
position = "{652, 940}";
},
{
name = top_hook;
position = "{852, 804}";
}
);
layerId = "BA196CD0-EE58-4274-B8DF-4393D3617A29";
paths = (
{
closed = 1;
nodes = (
"545 -14 OFFCURVE",
"637 10 OFFCURVE",
"748 58 CURVE",
"799 292 LINE",
"875 279 LINE",
"885 387 LINE",
"573 423 LINE",
"559 334 LINE",
"706 308 LINE",
"680 207 LINE",
"645 179 OFFCURVE",
"574 166 OFFCURVE",
"494 166 CURVE SMOOTH",
"292 166 OFFCURVE",
"234 221 OFFCURVE",
"280 424 CURVE",
"365 718 OFFCURVE",
"449 731 OFFCURVE",
"652 731 CURVE SMOOTH",
"707 731 OFFCURVE",
"794 728 OFFCURVE",
"876 707 CURVE",
"887 818 LINE",
"861 822 OFFCURVE",
"773 833 OFFCURVE",
"664 833 CURVE SMOOTH",
"403 833 OFFCURVE",
"206 776 OFFCURVE",
"136 413 CURVE SMOOTH",
"84 144 OFFCURVE",
"165 -14 OFFCURVE",
"437 -14 CURVE SMOOTH"
);
}
);
width = 847;
},
{
anchors = (
{
name = bottom;
position = "{410, -20}";
},
{
name = top;
position = "{645, 746}";
},
{
name = top_hook;
position = "{810, 700}";
}
);
layerId = "BBDB329E-CE83-4304-A6B1-53EA5ACC004E";
paths = (
{
closed = 1;
nodes = (
"610 181 OFFCURVE",
"562 172 OFFCURVE",
"503 172 CURVE SMOOTH",
"325 172 OFFCURVE",
"278 221 OFFCURVE",
"314 375 CURVE",
"382 630 OFFCURVE",
"450 638 OFFCURVE",
"627 638 CURVE SMOOTH",
"711 638 OFFCURVE",
"796 627 OFFCURVE",
"856 608 CURVE",
"873 745 LINE",
"831 753 OFFCURVE",
"751 763 OFFCURVE",
"653 763 CURVE SMOOTH",
"362 763 OFFCURVE",
"200 659 OFFCURVE",
"151 364 CURVE SMOOTH",
"109 113 OFFCURVE",
"191 -41 OFFCURVE",
"437 -41 CURVE SMOOTH",
"548 -41 OFFCURVE",
"638 -10 OFFCURVE",
"751 57 CURVE",
"787 230 LINE",
"857 218 LINE",
"871 366 LINE",
"543 404 LINE",
"523 277 LINE",
"650 254 LINE",
"636 195 LINE"
);
}
);
width = 847;
}
);
},
{
color = 6;
glyphname = H.001;
layers = (
{
anchors = (
{
name = bottom;
position = "{378, -39}";
},
{
name = caccent;
position = "{801, 173}";
},
{
name = center;
position = "{487, 508}";
},
{
name = eng;
position = "{664, 59}";
},
{
name = gram;
position = "{958, 365}";
},
{
name = greek_top;
position = "{203, 739}";
},
{
name = mark;
position = "{1029, 771}";
},
{
name = top;
position = "{630, 968}";
},
{
name = top_hook;
position = "{74, 592}";
},
{
name = topleft;
position = "{179, 804}";
}
);
hints = (
{
horizontal = 1;
origin = "{0, 0}";
target = up;
type = BottomGhost;
},
{
horizontal = 1;
origin = "{2, 0}";
target = "{2, 3}";
type = Stem;
},
{
origin = "{0, 0}";
target = "{1, 2}";
type = Stem;
}
);
layerId = "BA196CD0-EE58-4274-B8DF-4393D3617A29";
paths = (
{
closed = 1;
nodes = (
"30 0 LINE",
"203 0 LINE",
"392 847 LINE",
"273 847 LINE"
);
},
{
closed = 1;
nodes = (
"546 0 LINE",
"727 0 LINE",
"913 847 LINE",
"794 847 LINE"
);
},
{
closed = 1;
nodes = (
"202 211 LINE",
"652 211 LINE",
"704 375 LINE",
"246 375 LINE"
);
}
);
width = 893;
},
{
anchors = (
{
name = bottom;
position = "{390, 0}";
},
{
name = caccent;
position = "{763, 153}";
},
{
name = center;
position = "{485, 365}";
},
{
name = eng;
position = "{642, 52}";
},
{
name = gram;
position = "{837, 323}";
},
{
name = greek_top;
position = "{222, 654}";
},
{
name = mark;
position = "{965, 682}";
},
{
name = top;
position = "{612, 810}";
},
{
name = top_hook;
position = "{97, 473}";
},
{
name = topleft;
position = "{213, 700}";
}
);
layerId = "BBDB329E-CE83-4304-A6B1-53EA5ACC004E";
paths = (
{
closed = 1;
nodes = (
"45 -27 LINE",
"255 -27 LINE",
"435 760 LINE",
"277 760 LINE"
);
},
{
closed = 1;
nodes = (
"502 -27 LINE",
"719 -27 LINE",
"895 760 LINE",
"738 760 LINE"
);
},
{
closed = 1;
nodes = (
"198 160 LINE",
"650 160 LINE",
"712 359 LINE",
"252 359 LINE"
);
}
);
width = 779;
}
);
},
{
color = 6;
glyphname = I.001;
layers = (
{
anchors = (
{
name = bottom;
position = "{147, 5}";
},
{
name = ogonek;
position = "{118, 0}";
},
{
name = top;
position = "{395, 968}";
},
{
name = topleft;
position = "{209, 791}";
}
);
layerId = "BA196CD0-EE58-4274-B8DF-4393D3617A29";
paths = (
{
closed = 1;
nodes = (
"219 0 LINE",
"264 275 OFFCURVE",
"340 580 OFFCURVE",
"423 847 CURVE",
"299 847 LINE",
"280 738 OFFCURVE",
"183 330 OFFCURVE",
"60 0 CURVE"
);
}
);
width = 303;
},
{
anchors = (
{
name = bottom;
position = "{143, -50}";
},
{
name = ogonex;
position = "{149, 16}";
},
{
name = top;
position = "{383, 829}";
},
{
name = topleft;
position = "{213, 700}";
}
);
layerId = "BBDB329E-CE83-4304-A6B1-53EA5ACC004E";
paths = (
{
closed = 1;
nodes = (
"245 -27 LINE",
"287 243 OFFCURVE",
"353 514 OFFCURVE",
"431 760 CURVE",
"262 760 LINE",
"257 630 OFFCURVE",
"158 269 OFFCURVE",
"43 -27 CURVE"
);
}
);
width = 303;
}
);
},
{
color = 6;
glyphname = J.001;
layers = (
{
anchors = (
{
name = bottom;
position = "{232, 25}";
},
{
name = top;
position = "{500, 849}";
}
);
layerId = "BA196CD0-EE58-4274-B8DF-4393D3617A29";
paths = (
{
closed = 1;
nodes = (
"297 -226 OFFCURVE",
"361 -140 OFFCURVE",
"420 60 CURVE SMOOTH",
"658 873 LINE",
"500 873 LINE",
"281 89 LINE SMOOTH",
"264 30 OFFCURVE",
"204 -59 OFFCURVE",
"126 -9 CURVE SMOOTH",
"74 12 LINE",
"-10 -159 LINE",
"95 -182 LINE SMOOTH"
);
}
);
width = 486;
},
{
anchors = (
{
name = bottom;
position = "{243, 0}";
},
{
name = top;
position = "{480, 729}";
}
);
layerId = "BBDB329E-CE83-4304-A6B1-53EA5ACC004E";
paths = (
{
closed = 1;
nodes = (
"235 14 OFFCURVE",
"203 -37 OFFCURVE",
"117 -14 CURVE SMOOTH",
"19 12 LINE",
"-116 -178 LINE",
"155 -200 LINE SMOOTH",
"235 -206 OFFCURVE",
"344 -161 OFFCURVE",
"406 29 CURVE SMOOTH",
"668 829 LINE",
"497 829 LINE",
"269 118 LINE SMOOTH"
);
}
);
width = 486;
}
);
},
{
color = 6;
glyphname = K.001;
layers = (
{
anchors = (
{
name = bottom;
position = "{301, -38}";
},
{
name = top;
position = "{588, 951}";
},
{
name = top_hook;
position = "{830, 564}";
}
);
layerId = "BA196CD0-EE58-4274-B8DF-4393D3617A29";
paths = (
{
closed = 1;
nodes = (
"182 1 LINE",
"295 339 LINE",
"421 -10 LINE",
"687 1 LINE",
"423 393 LINE",
"812 849 LINE",
"655 849 LINE",
"327 452 LINE",
"432 849 LINE",
"327 849 LINE",
"36 1 LINE"
);
}
);
width = 737;
},
{
anchors = (
{
name = bottom;
position = "{315, 0}";
},
{
name = top;
position = "{569, 729}";
},
{
name = top_hook;
position = "{731, 515}";
}
);
layerId = "BBDB329E-CE83-4304-A6B1-53EA5ACC004E";
paths = (
{
closed = 1;
nodes = (
"229 -1 LINE",
"302 206 LINE",
"400 -1 LINE",
"717 -1 LINE",
"438 331 LINE",
"872 750 LINE",
"679 750 LINE",
"379 469 LINE",
"526 750 LINE",
"374 750 LINE",
"33 -1 LINE"
);
}
);
width = 737;
}
);
},
{
color = 6;
glyphname = L.001;
layers = (
{
anchors = (
{
name = "_ circumflexbelowcomb";
position = "{315, -80}";
},
{
name = bottom;
position = "{307, -81}";
},
{
name = center;
position = "{248, 406}";
},
{
name = right;
position = "{521, 728}";
},
{
name = top;
position = "{373, 962}";
},
{
name = topright;
position = "{860, 791}";
}
);
layerId = "BA196CD0-EE58-4274-B8DF-4393D3617A29";
paths = (
{
closed = 1;
nodes = (
"584 0 LINE",
"618 172 LINE",
"222 165 LINE",
"389 847 LINE",
"277 847 LINE",
"27 0 LINE"
);
}
);
width = 635;
},
{
anchors = (
{
name = "_ circumflexbelowcomb";
position = "{316, -26}";
},
{
name = bottom;
position = "{322, 5}";
},
{
name = center;
position = "{264, 404}";
},
{
name = right;
position = "{498, 644}";
},
{
name = top;
position = "{353, 779}";
},
{
name = topright;
position = "{798, 700}";
}
);
layerId = "BBDB329E-CE83-4304-A6B1-53EA5ACC004E";
paths = (
{
closed = 1;
nodes = (
"577 -28 LINE",
"617 178 LINE",
"259 172 LINE",
"416 750 LINE",
"263 750 LINE",
"25 -28 LINE"
);
}
);
width = 635;
}
);
},
{
color = 6;
glyphname = M.001;
layers = (
{
anchors = (
{
name = _top;
position = "{655, 910}";
},
{
name = bottom;
position = "{430, -63}";
},
{
name = hookbelow;
position = "{894, 177}";
},
{
name = top;
position = "{678, 954}";
}
);
layerId = "BA196CD0-EE58-4274-B8DF-4393D3617A29";
paths = (
{
closed = 1;
nodes = (
"186 0 LINE",
"349 702 LINE",
"402 71 LINE",
"526 71 LINE",
"926 702 LINE",
"654 0 LINE",
"838 0 LINE",
"1024 824 LINE",
"868 824 LINE",
"524 327 LINE",
"442 824 LINE",
"273 824 LINE",
"23 0 LINE"
);
}
);
width = 883;
},
{
anchors = (
{
name = _top;
position = "{590, 663}";
},
{
name = bottom;
position = "{441, 0}";
},
{
name = hookbelow;
position = "{851, 157}";
},
{
name = top;
position = "{629, 700}";
}
);
layerId = "BBDB329E-CE83-4304-A6B1-53EA5ACC004E";
paths = (
{
closed = 1;
nodes = (
"247 -27 LINE",
"386 673 LINE",
"330 662 LINE",
"379 36 LINE",
"529 36 LINE",
"894 663 LINE",
"843 673 LINE",
"603 -27 LINE",
"823 -27 LINE",
"999 756 LINE",
"817 756 LINE",
"542 358 LINE",
"476 756 LINE",
"283 756 LINE",
"45 -27 LINE"
);
}
);
width = 883;
}
);
},
{
color = 6;
glyphname = N.001;
layers = (
{
anchors = (
{
name = _;
position = "{411, 0}";
},
{
name = bottom;
position = "{391, -67}";
},
{
name = center;
position = "{501, 388}";
},
{
name = eng;
position = "{585, 14}";
},
{
name = top;
position = "{653, 925}";
}
);
layerId = "BA196CD0-EE58-4274-B8DF-4393D3617A29";
paths = (
{
closed = 1;
nodes = (
"212 0 LINE",
"376 696 LINE",
"481 0 LINE",
"664 0 LINE",
"931 822 LINE",
"827 822 LINE",
"593 157 LINE",
"447 791 LINE",
"307 791 LINE",
"29 0 LINE"
);
}
);
width = 765;
},
{
anchors = (
{
name = _;
position = "{419, 0}";
},
{
name = bottom;
position = "{383, 0}";
},
{
name = eng;
position = "{573, 12}";
},
{
name = top;
position = "{614, 729}";
}
);
layerId = "BBDB329E-CE83-4304-A6B1-53EA5ACC004E";
paths = (
{
closed = 1;
nodes = (
"264 -27 LINE",
"416 617 LINE",
"360 606 LINE",
"455 -27 LINE",
"662 -27 LINE",
"915 754 LINE",
"769 754 LINE",
"587 238 LINE",
"476 727 LINE",
"309 727 LINE",
"44 -27 LINE"
);
}
);
width = 765;
}
);
},
{
color = 6;
glyphname = O.001;
layers = (
{
anchors = (
{
name = abovecomb;
position = "{707, 998}";
},
{
name = bottom;
position = "{394, -94}";
},
{
name = center;
position = "{528, 439}";
},
{
name = horn;
position = "{859, 724}";
},
{
name = ogonek;
position = "{451, 13}";
},
{
name = polyomicron;
position = "{267, 761}";
},
{
name = top;
position = "{685, 956}";
},
{
name = topleft;
position = "{174, 793}";
},
{
name = topright;
position = "{1070, 793}";
}
);
layerId = "BA196CD0-EE58-4274-B8DF-4393D3617A29";
paths = (
{
closed = 1;
nodes = (
"695 -16 OFFCURVE",
"803 63 OFFCURVE",
"905 413 CURVE SMOOTH",
"981 673 OFFCURVE",
"869 840 OFFCURVE",
"635 840 CURVE SMOOTH",
"401 840 OFFCURVE",
"204 673 OFFCURVE",
"134 413 CURVE SMOOTH",
"41 63 OFFCURVE",
"141 -12 OFFCURVE",
"405 -14 CURVE SMOOTH"
);
},
{
closed = 1;
nodes = (
"299 197 OFFCURVE",
"208 243 OFFCURVE",
"253 413 CURVE SMOOTH",
"309 621 OFFCURVE",
"451 761 OFFCURVE",
"613 761 CURVE SMOOTH",
"777 761 OFFCURVE",
"842 621 OFFCURVE",
"786 413 CURVE SMOOTH",
"741 243 OFFCURVE",
"626 197 OFFCURVE",
"463 197 CURVE SMOOTH"
);
}
);
width = 843;
},
{
anchors = (
{
name = abovecomb;
position = "{773, 811}";
},
{
name = bottom;
position = "{408, -54}";
},
{
name = center;
position = "{526, 387}";
},
{
name = horn;
position = "{819, 639}";
},
{
name = ogonek;
position = "{758, 10}";
},
{
name = polyomicron;
position = "{295, 672}";
},
{
name = top;
position = "{728, 883}";
},
{
name = topleft;
position = "{213, 700}";
},
{
name = topright;
position = "{1006, 700}";
}
);
layerId = "BBDB329E-CE83-4304-A6B1-53EA5ACC004E";
paths = (
{
closed = 1;
nodes = (
"690 -43 OFFCURVE",
"795 47 OFFCURVE",
"887 363 CURVE SMOOTH",
"957 606 OFFCURVE",
"852 769 OFFCURVE",
"628 769 CURVE SMOOTH",
"405 769 OFFCURVE",
"216 608 OFFCURVE",
"151 364 CURVE SMOOTH",
"71 64 OFFCURVE",
"137 -39 OFFCURVE",
"411 -41 CURVE SMOOTH"
);
},
{
closed = 1;
nodes = (
"324 200 OFFCURVE",
"279 246 OFFCURVE",
"311 364 CURVE SMOOTH",
"357 536 OFFCURVE",
"469 645 OFFCURVE",
"595 645 CURVE SMOOTH",
"721 645 OFFCURVE",
"774 536 OFFCURVE",
"728 364 CURVE SMOOTH",
"696 245 OFFCURVE",
"627 200 OFFCURVE",
"476 200 CURVE SMOOTH"
);
}
);
width = 843;
}
);
},
{
color = 6;
glyphname = P.001;
layers = (
{
anchors = (
{
name = bend;
position = "{212, 380}";
},
{
name = bottom;
position = "{317, 0}";
},
{
name = center;
position = "{473, 597}";
},
{
name = stroke;
position = "{184, 194}";
},
{
name = top;
position = "{582, 971}";
},
{
name = top_hook;
position = "{94, 591}";
}
);
layerId = "BA196CD0-EE58-4274-B8DF-4393D3617A29";
paths = (
{
closed = 1;
nodes = (
"208 0 LINE",
"268 310 LINE",
"406 316 LINE SMOOTH",
"596 325 OFFCURVE",
"670 413 OFFCURVE",
"714 576 CURVE SMOOTH",
"744 688 OFFCURVE",
"726 850 OFFCURVE",
"516 850 CURVE SMOOTH",
"303 850 LINE",
"40 0 LINE"
);
},
{
closed = 1;
nodes = (
"377 740 LINE",
"501 740 LINE SMOOTH",
"616 740 OFFCURVE",
"637 664 OFFCURVE",
"627 629 CURVE SMOOTH",
"592 506 OFFCURVE",
"573 478 OFFCURVE",
"460 473 CURVE SMOOTH",
"305 467 LINE"
);
}
);
width = 652;
},
{
anchors = (
{
name = bottom;
position = "{326, 0}";
},
{
name = top;
position = "{514, 700}";
},
{
name = top_hook;
position = "{86, 455}";
}
);
layerId = "BBDB329E-CE83-4304-A6B1-53EA5ACC004E";
paths = (
{
closed = 1;
nodes = (
"252 -27 LINE",
"306 248 LINE",
"399 253 LINE SMOOTH",
"580 262 OFFCURVE",
"691 345 OFFCURVE",
"734 505 CURVE SMOOTH",
"771 644 OFFCURVE",
"679 743 OFFCURVE",
"509 743 CURVE SMOOTH",
"296 743 LINE",
"44 -27 LINE"
);
},
{
closed = 1;
nodes = (
"400 624 LINE",
"481 624 LINE SMOOTH",
"563 624 OFFCURVE",
"616 590 OFFCURVE",
"605 549 CURVE SMOOTH",
"583 467 OFFCURVE",
"558 450 OFFCURVE",
"459 446 CURVE SMOOTH",
"350 441 LINE"
);
}
);
width = 652;
}
);
},
{
color = 6;
glyphname = Q.001;
layers = (
{
anchors = (
{
name = bottom;
position = "{429, 17}";
},
{
name = top;
position = "{708, 989}";
}
);
layerId = "BA196CD0-EE58-4274-B8DF-4393D3617A29";
paths = (
{
closed = 1;
nodes = (
"794 -129 LINE",
"670 64 LINE",
"755 137 OFFCURVE",
"851 236 OFFCURVE",
"902 428 CURVE SMOOTH",
"972 688 OFFCURVE",
"869 855 OFFCURVE",
"635 855 CURVE SMOOTH",
"401 855 OFFCURVE",
"195 655 OFFCURVE",
"134 428 CURVE SMOOTH",
"37 62 OFFCURVE",
"174 1 OFFCURVE",
"400 1 CURVE SMOOTH",
"412 1 OFFCURVE",
"424 1 OFFCURVE",
"447 3 CURVE",
"530 -129 LINE"
);
},
{
closed = 1;
nodes = (
"321 191 OFFCURVE",
"193 190 OFFCURVE",
"256 428 CURVE SMOOTH",
"304 603 OFFCURVE",
"447 765 OFFCURVE",
"611 765 CURVE SMOOTH",
"774 765 OFFCURVE",
"838 636 OFFCURVE",
"783 428 CURVE SMOOTH",
"760 342 OFFCURVE",
"696 226 OFFCURVE",
"661 226 CURVE SMOOTH",
"616 226 OFFCURVE",
"559 250 OFFCURVE",
"507 281 CURVE",
"446 195 LINE",
"385 193 LINE SMOOTH"
);
}
);
width = 878;
},
{
anchors = (
{
name = bottom;
position = "{439, 0}";
},
{
name = top;
position = "{627, 700}";
}
);
layerId = "BBDB329E-CE83-4304-A6B1-53EA5ACC004E";
paths = (
{
closed = 1;
nodes = (
"720 635 OFFCURVE",
"771 535 OFFCURVE",
"725 364 CURVE SMOOTH",
"711 314 OFFCURVE",
"657 212 OFFCURVE",
"652 212 CURVE SMOOTH",
"615 212 OFFCURVE",
"563 233 OFFCURVE",
"505 272 CURVE",
"443 184 LINE",
"407 183 LINE SMOOTH",
"349 181 OFFCURVE",
"264 180 OFFCURVE",
"314 364 CURVE SMOOTH",
"355 519 OFFCURVE",
"474 635 OFFCURVE",
"592 635 CURVE SMOOTH"
);
},
{
closed = 1;
nodes = (
"789 134 OFFCURVE",
"849 232 OFFCURVE",
"884 364 CURVE SMOOTH",
"950 610 OFFCURVE",
"849 769 OFFCURVE",
"628 769 CURVE SMOOTH",
"418 769 OFFCURVE",
"212 593 OFFCURVE",
"151 364 CURVE SMOOTH",
"73 72 OFFCURVE",
"145 -41 OFFCURVE",
"406 -41 CURVE SMOOTH",
"414 -41 OFFCURVE",
"422 -41 OFFCURVE",
"437 -40 CURVE",
"509 -156 LINE",
"817 -156 LINE",
"688 42 LINE"
);
}
);
width = 878;
}
);
},
{
color = 6;
glyphname = R.001;
layers = (
{
anchors = (
{
name = bottom;
position = "{315, 0}";
},
{
name = bottom_hook;
position = "{87, -23}";
},
{
name = top;
position = "{576, 918}";
}
);
layerId = "BA196CD0-EE58-4274-B8DF-4393D3617A29";
paths = (
{
closed = 1;
nodes = (
"627 421 OFFCURVE",
"690 478 OFFCURVE",
"718 586 CURVE SMOOTH",
"761 746 OFFCURVE",
"684 824 OFFCURVE",
"516 824 CURVE SMOOTH",
"314 824 LINE",
"41 0 LINE",
"220 0 LINE",
"287 319 LINE",
"349 329 LINE SMOOTH",
"420 340 OFFCURVE",
"540 332 OFFCURVE",
"501 211 CURVE SMOOTH",
"435 0 LINE",
"640 0 LINE",
"636 225 LINE SMOOTH",
"634 313 OFFCURVE",
"587 384 OFFCURVE",
"545 409 CURVE"
);
},
{
closed = 1;
nodes = (
"597 765 OFFCURVE",
"676 728 OFFCURVE",
"639 586 CURVE SMOOTH",
"620 515 OFFCURVE",
"515 458 OFFCURVE",
"430 458 CURVE SMOOTH",
"288 458 LINE",
"370 765 LINE",
"513 765 LINE SMOOTH"
);
}
);
width = 692;
},
{
anchors = (
{
name = bottom;
position = "{323, 0}";
},
{
name = bottom_hook;
position = "{121, -20}";
},
{
name = top;
position = "{519, 729}";
}
);
layerId = "BBDB329E-CE83-4304-A6B1-53EA5ACC004E";
paths = (
{
closed = 1;
nodes = (
"643 382 OFFCURVE",
"686 439 OFFCURVE",
"708 519 CURVE SMOOTH",
"748 671 OFFCURVE",
"676 756 OFFCURVE",
"509 756 CURVE SMOOTH",
"304 756 LINE",
"44 -27 LINE",
"261 -27 LINE",
"320 260 LINE",
"351 264 LINE SMOOTH",
"438 278 OFFCURVE",
"481 250 OFFCURVE",
"461 188 CURVE SMOOTH",
"394 -27 LINE",
"640 -27 LINE",
"635 206 LINE SMOOTH",
"634 260 OFFCURVE",
"614 316 OFFCURVE",
"582 353 CURVE"
);
},
{
closed = 1;
nodes = (
"575 650 OFFCURVE",
"606 607 OFFCURVE",
"582 519 CURVE SMOOTH",
"571 476 OFFCURVE",
"498 432 OFFCURVE",
"432 432 CURVE SMOOTH",
"334 432 LINE",
"392 650 LINE",
"490 650 LINE SMOOTH"
);
}
);
width = 692;
}
);
},
{
color = 6;
glyphname = S.001;
layers = (
{
anchors = (
{
name = bottom;
position = "{375, -66}";
},
{
name = center;
position = "{490, 420}";
},
{
name = top;
position = "{650, 963}";
}
);
layerId = "BA196CD0-EE58-4274-B8DF-4393D3617A29";
paths = (
{
closed = 1;
nodes = (
"719 845 OFFCURVE",
"672 850 OFFCURVE",
"596 850 CURVE SMOOTH",
"413 850 OFFCURVE",
"279 761 OFFCURVE",
"240 615 CURVE SMOOTH",
"207 490 OFFCURVE",
"263 437 OFFCURVE",
"418 390 CURVE SMOOTH",
"494 367 LINE SMOOTH",
"599 335 OFFCURVE",
"669 305 OFFCURVE",
"647 237 CURVE SMOOTH",
"612 126 OFFCURVE",
"537 115 OFFCURVE",
"423 115 CURVE SMOOTH",
"359 115 OFFCURVE",
"259 158 OFFCURVE",
"225 191 CURVE",
"61 98 LINE",
"146 13 OFFCURVE",
"204 -14 OFFCURVE",
"351 -14 CURVE SMOOTH",
"619 -14 OFFCURVE",
"715 -14 OFFCURVE",
"781 229 CURVE SMOOTH",
"817 363 OFFCURVE",
"716 439 OFFCURVE",
"555 473 CURVE SMOOTH",
"491 487 LINE SMOOTH",
"398 507 OFFCURVE",
"320 550 OFFCURVE",
"339 622 CURVE SMOOTH",
"363 709 OFFCURVE",
"471 750 OFFCURVE",
"593 750 CURVE SMOOTH",
"673 750 OFFCURVE",
"687 746 OFFCURVE",
"739 732 CURVE",
"799 825 LINE"
);
}
);
width = 768;
},
{
anchors = (
{
name = bottom;
position = "{382, 13}";
},
{
name = top;
position = "{582, 759}";
}
);
layerId = "BBDB329E-CE83-4304-A6B1-53EA5ACC004E";
paths = (
{
closed = 1;
nodes = (
"591 -41 OFFCURVE",
"703 -41 OFFCURVE",
"768 201 CURVE SMOOTH",
"801 324 OFFCURVE",
"725 408 OFFCURVE",
"553 443 CURVE SMOOTH",
"497 455 LINE SMOOTH",
"409 475 OFFCURVE",
"367 509 OFFCURVE",
"377 549 CURVE SMOOTH",
"391 601 OFFCURVE",
"462 635 OFFCURVE",
"568 635 CURVE SMOOTH",
"644 635 OFFCURVE",
"646 632 OFFCURVE",
"709 615 CURVE",
"812 738 LINE",
"718 762 OFFCURVE",
"674 769 OFFCURVE",
"593 769 CURVE SMOOTH",
"417 769 OFFCURVE",
"283 679 OFFCURVE",
"244 534 CURVE SMOOTH",
"211 409 OFFCURVE",
"265 340 OFFCURVE",
"417 309 CURVE SMOOTH",
"474 297 LINE SMOOTH",
"569 277 OFFCURVE",
"608 246 OFFCURVE",
"596 209 CURVE SMOOTH",
"576 143 OFFCURVE",
"543 127 OFFCURVE",
"431 127 CURVE SMOOTH",
"378 127 OFFCURVE",
"276 170 OFFCURVE",
"261 201 CURVE",
"69 93 LINE",
"106 -41 OFFCURVE",
"215 -41 OFFCURVE",
"354 -41 CURVE SMOOTH"
);
}
);
width = 768;
}
);
},
{
color = 6;
glyphname = T.001;
layers = (
{
anchors = (
{
name = bottom;
position = "{338, -50}";
},
{
name = bottom_hook;
position = "{402, -19}";
},
{
name = center;
position = "{479, 412}";
},
{
name = hook_top;
position = "{256, 781}";
},
{
name = top;
position = "{636, 949}";
}
);
layerId = "BA196CD0-EE58-4274-B8DF-4393D3617A29";
paths = (
{
closed = 1;
nodes = (
"510 741 LINE",
"290 0 LINE",
"448 0 LINE",
"623 741 LINE",
"916 730 LINE",
"941 824 LINE",
"237 824 LINE",
"212 730 LINE"
);
}
);
width = 785;
},
{
anchors = (
{
name = bottom;
position = "{384, -30}";
},
{
name = bottom_hook;
position = "{413, -29}";
},
{
name = center;
position = "{490, 365}";
},
{
name = hook_top;
position = "{319, 691}";
},
{
name = top;
position = "{596, 763}";
}
);
layerId = "BBDB329E-CE83-4304-A6B1-53EA5ACC004E";
paths = (
{
closed = 1;
nodes = (
"482 628 LINE",
"288 -27 LINE",
"484 -27 LINE",
"639 628 LINE",
"897 618 LINE",
"934 756 LINE",
"256 756 LINE",
"219 618 LINE"
);
}
);
width = 785;
}
);
},
{
color = 6;
glyphname = U.001;
layers = (
{
anchors = (
{
name = bottom;
position = "{340, -118}";
},
{
name = horn;
position = "{932, 809}";
},
{
name = ogonek;
position = "{545, 13}";
},
{
name = top;
position = "{621, 998}";
},
{
name = top_hook;
position = "{843, 751}";
},
{
name = topright;
position = "{980, 793}";
}
);
layerId = "BA196CD0-EE58-4274-B8DF-4393D3617A29";
paths = (
{
closed = 1;
nodes = (
"50 -14 OFFCURVE",
"147 -14 OFFCURVE",
"358 -14 CURVE SMOOTH",
"567 -14 OFFCURVE",
"660 -14 OFFCURVE",
"763 311 CURVE SMOOTH",
"925 826 LINE",
"777 826 LINE",
"679 402 LINE SMOOTH",
"625 162 OFFCURVE",
"549 162 OFFCURVE",
"406 162 CURVE SMOOTH",
"261 162 OFFCURVE",
"184 162 OFFCURVE",
"258 402 CURVE SMOOTH",
"386 826 LINE",
"245 826 LINE",
"125 311 LINE SMOOTH"
);
}
);
width = 764;
},
{
anchors = (
{
name = bottom;
position = "{369, -41}";
},
{
name = horn;
position = "{875, 672}";
},
{
name = ogonek;
position = "{541, 35}";
},
{
name = top;
position = "{614, 858}";
},
{
name = top_hook;
position = "{791, 685}";
},
{
name = topright;
position = "{926, 700}";
}
);
layerId = "BBDB329E-CE83-4304-A6B1-53EA5ACC004E";
paths = (
{
closed = 1;
nodes = (
"70 -41 OFFCURVE",
"182 -41 OFFCURVE",
"369 -41 CURVE SMOOTH",
"554 -41 OFFCURVE",
"662 -41 OFFCURVE",
"761 273 CURVE SMOOTH",
"914 756 LINE",
"726 756 LINE",
"633 353 LINE SMOOTH",
"591 169 OFFCURVE",
"552 169 OFFCURVE",
"425 169 CURVE SMOOTH",
"297 169 OFFCURVE",
"257 169 OFFCURVE",
"314 353 CURVE SMOOTH",
"437 756 LINE",
"255 756 LINE",
"143 273 LINE SMOOTH"
);
}
);
width = 764;
}
);
},
{
color = 6;
glyphname = V.001;
layers = (
{
anchors = (
{
name = bottom;
position = "{393, 0}";
},
{
name = top;
position = "{605, 903}";
},
{
name = top_hook;
position = "{881, 703}";
}
);
layerId = "BA196CD0-EE58-4274-B8DF-4393D3617A29";
paths = (
{
closed = 1;
nodes = (
"995 824 LINE",
"878 824 LINE",
"474 242 LINE",
"420 242 LINE",
"350 824 LINE",
"232 824 LINE",
"271 0 LINE",
"503 0 LINE"
);
}
);
width = 836;
},
{
anchors = (
{
name = bottom;
position = "{418, 0}";
},
{
name = top;
position = "{620, 752}";
},
{
name = top_hook;
position = "{850, 622}";
}
);
layerId = "BBDB329E-CE83-4304-A6B1-53EA5ACC004E";
paths = (
{
closed = 1;
nodes = (
"995 756 LINE",
"837 756 LINE",
"479 241 LINE",
"469 241 LINE",
"407 756 LINE",
"246 756 LINE",
"283 -27 LINE",
"529 -27 LINE"
);
}
);
width = 836;
}
);
},
{
color = 6;
glyphname = W.001;
layers = (
{
anchors = (
{
name = bottom;
position = "{524, 0}";
},
{
name = center;
position = "{626, 395}";
},
{
name = top;
position = "{787, 992}";
},
{
name = top_hook;
position = "{1377, 564}";
}
);
layerId = "BA196CD0-EE58-4274-B8DF-4393D3617A29";
paths = (
{
closed = 1;
nodes = (
"359 0 LINE",
"643 445 LINE",
"677 0 LINE",
"841 0 LINE",
"1271 824 LINE",
"1162 824 LINE",
"810 221 LINE",
"734 614 LINE",
"636 614 LINE",
"336 233 LINE",
"326 824 LINE",
"217 824 LINE",
"182 0 LINE"
);
}
);
width = 1094;
},
{
anchors = (
{
name = bottom;
position = "{547, 0}";
},
{
name = center;
position = "{632, 328}";
},
{
name = top;
position = "{740, 729}";
},
{
name = top_hook;
position = "{1211, 500}";
}
);
layerId = "BBDB329E-CE83-4304-A6B1-53EA5ACC004E";
paths = (
{
closed = 1;
nodes = (
"413 -27 LINE",
"630 313 LINE",
"656 -27 LINE",
"842 -27 LINE",
"1251 756 LINE",
"1099 756 LINE",
"815 271 LINE",
"758 570 LINE",
"638 570 LINE",
"408 279 LINE",
"400 756 LINE",
"249 756 LINE",
"216 -27 LINE"
);
}
);
width = 1094;
}
);
},
{
color = 6;
glyphname = X.001;
layers = (
{
anchors = (
{
name = bottom;
position = "{388, 0}";
},
{
name = bottom_hook;
position = "{649, 24}";
},
{
name = top;
position = "{620, 921}";
}
);
layerId = "BA196CD0-EE58-4274-B8DF-4393D3617A29";
paths = (
{
closed = 1;
nodes = (
"565 0 LINE",
"746 0 LINE",
"394 824 LINE",
"293 824 LINE"
);
},
{
closed = 1;
nodes = (
"29 2 LINE",
"212 0 LINE",
"939 825 LINE",
"840 825 LINE"
);
}
);
width = 797;
},
{
anchors = (
{
name = bottom;
position = "{399, 0}";
},
{
name = bottom_hook;
position = "{630, 21}";
},
{
name = top;
position = "{587, 700}";
}
);
layerId = "BBDB329E-CE83-4304-A6B1-53EA5ACC004E";
paths = (
{
closed = 1;
nodes = (
"533 -27 LINE",
"760 -27 LINE",
"426 756 LINE",
"274 756 LINE"
);
},
{
closed = 1;
nodes = (
"22 -24 LINE",
"251 -27 LINE",
"943 757 LINE",
"792 757 LINE"
);
}
);
width = 797;
}
);
},
{
color = 6;
glyphname = Y.001;
layers = (
{
anchors = (
{
name = bottom;
position = "{348, -88}";
},
{
name = top;
position = "{619, 994}";
},
{
name = top_hook;
position = "{914, 565}";
},
{
name = topleft;
position = "{165, 791}";
}
);
layerId = "BA196CD0-EE58-4274-B8DF-4393D3617A29";
paths = (
{
closed = 1;
nodes = (
"283 0 LINE",
"434 0 LINE",
"510 282 LINE",
"926 824 LINE",
"805 824 LINE",
"469 402 LINE",
"357 824 LINE",
"236 824 LINE",
"358 282 LINE"
);
}
);
width = 772;
},
{
anchors = (
{
name = bottom;
position = "{386, 0}";
},
{
name = top;
position = "{601, 829}";
},
{
name = top_hook;
position = "{876, 500}";
},
{
name = topleft;
position = "{156, 700}";
}
);
layerId = "BBDB329E-CE83-4304-A6B1-53EA5ACC004E";
paths = (
{
closed = 1;
nodes = (
"283 -27 LINE",
"472 -27 LINE",
"544 244 LINE",
"937 756 LINE",
"770 756 LINE",
"498 414 LINE",
"407 756 LINE",
"240 756 LINE",
"355 244 LINE"
);
}
);
width = 772;
}
);
},
{
color = 6;
glyphname = Z.001;
layers = (
{
anchors = (
{
name = bottom;
position = "{384, -94}";
},
{
name = center;
position = "{501, 395}";
},
{
name = top;
position = "{653, 948}";
}
);
layerId = "BA196CD0-EE58-4274-B8DF-4393D3617A29";
paths = (
{
closed = 1;
nodes = (
"740 7 LINE",
"729 185 LINE",
"246 169 LINE",
"952 669 LINE",
"969 770 LINE",
"315 770 LINE",
"283 663 LINE",
"743 656 LINE",
"69 177 LINE",
"27 0 LINE"
);
}
);
width = 813;
},
{
anchors = (
{
name = bottom;
position = "{407, 0}";
},
{
name = center;
position = "{501, 350}";
},
{
name = top;
position = "{599, 729}";
}
);
layerId = "BBDB329E-CE83-4304-A6B1-53EA5ACC004E";
paths = (
{
closed = 1;
nodes = (
"690 572 LINE",
"94 151 LINE",
"46 -28 LINE",
"743 -20 LINE",
"729 173 LINE",
"324 173 LINE",
"919 594 LINE",
"949 708 LINE",
"294 708 LINE",
"338 577 LINE"
);
}
);
width = 813;
}
);
},
{
color = 6;
glyphname = A.ss04;
lastChange = "2019-09-25 14:35:53 +0000";
layers = (
{
anchors = (
{
name = abovecomb;
position = "{625, 766}";
},
{
name = bottom;
position = "{418, 0}";
},
{
name = dotbelow;
position = "{430, 6}";
},
{
name = dotbelowcomb;
position = "{427, 7}";
},
{
name = greekcap;
position = "{370, 603}";
},
{
name = ogonek;
position = "{649, 0}";
},
{
name = polyomicron;
position = "{379, 605}";
},
{
name = top;
position = "{623, 759}";
}
);
components = (
{
name = A;
}
);
layerId = "BA196CD0-EE58-4274-B8DF-4393D3617A29";
width = 836;
},
{
components = (
{
name = A;
}
);
layerId = "BBDB329E-CE83-4304-A6B1-53EA5ACC004E";
width = 836;
},
{
anchors = (
{
name = abovecomb;
position = "{540, 766}";
},
{
name = bottom;
position = "{333, 0}";
},
{
name = dotbelow;
position = "{345, 6}";
},
{
name = dotbelowcomb;
position = "{342, 7}";
},
{
name = greekcap;
position = "{285, 603}";
},
{
name = ogonek;
position = "{564, 0}";
},
{
name = polyomicron;
position = "{294, 605}";
},
{
name = top;
position = "{538, 759}";
}
);
associatedMasterId = "BA196CD0-EE58-4274-B8DF-4393D3617A29";
layerId = "C4BA1792-9F64-468E-A6D8-7ACCB89777DA";
name = "Color 7";
paths = (
{
closed = 1;
nodes = (
"571 242 LINE",
"588 817 LINE",
"250 262 LINE"
);
}
);
width = 836;
},
{
associatedMasterId = "BA196CD0-EE58-4274-B8DF-4393D3617A29";
components = (
{
name = A;
}
);
layerId = "E0D4D177-7EF2-4A6C-B5DE-DF3E19873672";
name = "Color 5";
width = 836;
},
{
anchors = (
{
name = abovecomb;
position = "{548, 781}";
},
{
name = bottom;
position = "{337, 0}";
},
{
name = dotbelow;
position = "{349, 6}";
},
{
name = dotbelowcomb;
position = "{346, 7}";
},
{
name = greekcap;
position = "{289, 603}";
},
{
name = ogonek;
position = "{568, 0}";
},
{
name = polyomicron;
position = "{298, 605}";
},
{
name = top;
position = "{547, 778}";
}
);
associatedMasterId = "BBDB329E-CE83-4304-A6B1-53EA5ACC004E";
layerId = "EAD89C34-A896-4630-ADE6-5927EF42A902";
name = "Color 7";
paths = (
{
closed = 1;
nodes = (
"548 162 LINE",
"523 677 LINE",
"225 162 LINE"
);
}
);
width = 836;
},
{
associatedMasterId = "BBDB329E-CE83-4304-A6B1-53EA5ACC004E";
components = (
{
name = A;
}
);
layerId = "BCB0D3B8-98FB-4DCB-9BD3-3F04F5B8D1A5";
name = "Color 5";
width = 836;
}
);
},
{
color = 6;
glyphname = B.ss04;
lastChange = "2019-09-25 14:36:12 +0000";
layers = (
{
anchors = (
{
name = bottom;
position = "{347, 0}";
},
{
name = top;
position = "{535, 700}";
},
{
name = top_hook;
position = "{66, 470}";
}
);
components = (
{
name = B;
}
);
layerId = "BA196CD0-EE58-4274-B8DF-4393D3617A29";
width = 694;
},
{
components = (
{
name = B;
}
);
layerId = "BBDB329E-CE83-4304-A6B1-53EA5ACC004E";
width = 694;
},
{
anchors = (
{
name = bottom;
position = "{279, 0}";
},
{
name = top;
position = "{467, 700}";
},
{
name = top_hook;
position = "{-2, 470}";
}
);
associatedMasterId = "BA196CD0-EE58-4274-B8DF-4393D3617A29";
layerId = "7E9F8659-E585-4594-9F4A-FD348ECC30E4";
name = "Color 6";
paths = (
{
closed = 1;
nodes = (
"357 480 LINE SMOOTH",
"478 480 OFFCURVE",
"550 526 OFFCURVE",
"575 619 CURVE SMOOTH",
"600 714 OFFCURVE",
"681 778 OFFCURVE",
"436 778 CURVE SMOOTH",
"250 778 LINE",
"171 480 LINE"
);
},
{
closed = 1;
nodes = (
"305 116 LINE SMOOTH",
"460 116 OFFCURVE",
"544 139 OFFCURVE",
"579 265 CURVE SMOOTH",
"587 294 OFFCURVE",
"572 330 OFFCURVE",
"543 363 CURVE SMOOTH",
"515 394 OFFCURVE",
"461 439 OFFCURVE",
"385 439 CURVE SMOOTH",
"154 439 LINE",
"76 116 LINE"
);
}
);
width = 694;
},
{
associatedMasterId = "BA196CD0-EE58-4274-B8DF-4393D3617A29";
components = (
{
name = B;
}
);
layerId = "94EBE435-23C3-48A7-AE21-335CC929AF62";
name = "Color 5";
width = 694;
},
{
associatedMasterId = "BBDB329E-CE83-4304-A6B1-53EA5ACC004E";
layerId = "8662C17D-B2D8-447E-B1DC-D9E46340090E";
name = "Color 6";
paths = (
{
closed = 1;
nodes = (
"357 480 LINE SMOOTH",
"478 480 OFFCURVE",
"550 526 OFFCURVE",
"575 619 CURVE SMOOTH",
"600 714 OFFCURVE",
"681 778 OFFCURVE",
"436 778 CURVE SMOOTH",
"250 778 LINE",
"171 480 LINE"
);
},
{
closed = 1;
nodes = (
"305 116 LINE SMOOTH",
"460 116 OFFCURVE",
"544 139 OFFCURVE",
"579 265 CURVE SMOOTH",
"587 294 OFFCURVE",
"572 330 OFFCURVE",
"543 363 CURVE SMOOTH",
"515 394 OFFCURVE",
"461 439 OFFCURVE",
"385 439 CURVE SMOOTH",
"154 439 LINE",
"76 116 LINE"
);
}
);
width = 694;
},
{
associatedMasterId = "BBDB329E-CE83-4304-A6B1-53EA5ACC004E";
components = (
{
name = B;
}
);
layerId = "69429E68-9422-4C1D-8A5E-27CE6BC4AA0F";
name = "Color 5";
width = 694;
}
);
},
{
color = 6;
glyphname = C.ss04;
lastChange = "2019-09-18 20:17:52 +0000";
layers = (
{
anchors = (
{
name = bottom;
position = "{393, 0}";
},
{
name = top;
position = "{588, 729}";
},
{
name = top_hook;
position = "{805, 682}";
}
);
components = (
{
name = C;
}
);
layerId = "BA196CD0-EE58-4274-B8DF-4393D3617A29";
width = 724;
},
{
anchors = (
{
name = bottom;
position = "{393, 0}";
},
{
name = top;
position = "{593, 748}";
},
{
name = top_hook;
position = "{805, 682}";
}
);
layerId = "BBDB329E-CE83-4304-A6B1-53EA5ACC004E";
paths = (
{
closed = 1;
nodes = (
"767 770 OFFCURVE",
"746 773 OFFCURVE",
"647 773 CURVE SMOOTH",
"409 773 OFFCURVE",
"219 617 OFFCURVE",
"152 368 CURVE SMOOTH",
"56 9 OFFCURVE",
"71 -40 OFFCURVE",
"297 -40 CURVE SMOOTH",
"385 -40 OFFCURVE",
"416 -40 OFFCURVE",
"639 -40 CURVE",
"702 197 LINE",
"628 173 OFFCURVE",
"591 166 OFFCURVE",
"491 166 CURVE SMOOTH",
"317 166 OFFCURVE",
"256 229 OFFCURVE",
"294 368 CURVE SMOOTH",
"340 541 OFFCURVE",
"463 645 OFFCURVE",
"619 645 CURVE SMOOTH",
"714 645 OFFCURVE",
"706 644 OFFCURVE",
"819 625 CURVE",
"878 755 LINE"
);
}
);
width = 724;
}
);
},
{
color = 6;
glyphname = D.ss04;
lastChange = "2019-09-25 14:36:22 +0000";
layers = (
{
anchors = (
{
name = bottom;
position = "{391, 0}";
},
{
name = dash;
position = "{304, 378}";
},
{
name = hook_top;
position = "{248, 669}";
},
{
name = top;
position = "{560, 729}";
}
);
components = (
{
name = D;
}
);
layerId = "BA196CD0-EE58-4274-B8DF-4393D3617A29";
width = 781;
},
{
anchors = (
{
name = bottom;
position = "{391, 0}";
},
{
name = dash;
position = "{304, 378}";
},
{
name = hook_top;
position = "{248, 669}";
},
{
name = top;
position = "{563, 766}";
}
);
layerId = "BBDB329E-CE83-4304-A6B1-53EA5ACC004E";
paths = (
{
closed = 1;
nodes = (
"279 -27 LINE SMOOTH",
"563 -27 OFFCURVE",
"720 -27 OFFCURVE",
"825 365 CURVE SMOOTH",
"896 631 OFFCURVE",
"788 756 OFFCURVE",
"488 756 CURVE SMOOTH",
"256 756 LINE",
"46 -27 LINE"
);
},
{
closed = 1;
nodes = (
"382 632 LINE",
"475 632 LINE SMOOTH",
"668 632 OFFCURVE",
"740 553 OFFCURVE",
"697 393 CURVE SMOOTH",
"663 266 OFFCURVE",
"573 217 OFFCURVE",
"364 217 CURVE SMOOTH",
"271 217 LINE"
);
}
);
width = 781;
},
{
anchors = (
{
name = bottom;
position = "{293, 6}";
},
{
name = dash;
position = "{206, 384}";
},
{
name = hook_top;
position = "{150, 675}";
},
{
name = top;
position = "{462, 735}";
}
);
associatedMasterId = "BA196CD0-EE58-4274-B8DF-4393D3617A29";
layerId = "D1A82045-76FD-4F56-BB37-10ACEF28B0BB";
name = "Color 04";
paths = (
{
closed = 1;
nodes = (
"201 92 LINE SMOOTH",
"568 92 OFFCURVE",
"685 209 OFFCURVE",
"731 385 CURVE SMOOTH",
"799 646 OFFCURVE",
"676 769 OFFCURVE",
"383 769 CURVE SMOOTH",
"209 769 LINE",
"28 92 LINE"
);
}
);
width = 781;
},
{
associatedMasterId = "BA196CD0-EE58-4274-B8DF-4393D3617A29";
components = (
{
name = D;
}
);
layerId = "6544C8D4-4639-4A88-BECE-FF6019941729";
name = "Color 05";
width = 781;
},
{
anchors = (
{
name = bottom;
position = "{304, 0}";
},
{
name = dash;
position = "{217, 378}";
},
{
name = hook_top;
position = "{161, 669}";
},
{
name = top;
position = "{476, 766}";
}
);
associatedMasterId = "BBDB329E-CE83-4304-A6B1-53EA5ACC004E";
layerId = "6FB93E0C-D6A6-4988-9901-E479F09A524D";
name = "Color 4";
paths = (
{
closed = 1;
nodes = (
"277 217 LINE SMOOTH",
"486 217 OFFCURVE",
"576 266 OFFCURVE",
"610 393 CURVE SMOOTH",
"653 553 OFFCURVE",
"581 632 OFFCURVE",
"388 632 CURVE SMOOTH",
"295 632 LINE",
"184 217 LINE"
);
}
);
width = 781;
},
{
anchors = (
{
name = bottom;
position = "{391, 0}";
},
{
name = dash;
position = "{304, 378}";
},
{
name = hook_top;
position = "{248, 669}";
},
{
name = top;
position = "{563, 766}";
}
);
associatedMasterId = "BBDB329E-CE83-4304-A6B1-53EA5ACC004E";
layerId = "81F63492-B072-4322-B91D-9128B7B29F03";
name = "Color 5";
paths = (
{
closed = 1;
nodes = (
"279 -27 LINE SMOOTH",
"563 -27 OFFCURVE",
"720 -27 OFFCURVE",
"825 365 CURVE SMOOTH",
"896 631 OFFCURVE",
"788 756 OFFCURVE",
"488 756 CURVE SMOOTH",
"256 756 LINE",
"46 -27 LINE"
);
},
{
closed = 1;
nodes = (
"382 632 LINE",
"475 632 LINE SMOOTH",
"668 632 OFFCURVE",
"740 553 OFFCURVE",
"697 393 CURVE SMOOTH",
"663 266 OFFCURVE",
"573 217 OFFCURVE",
"364 217 CURVE SMOOTH",
"271 217 LINE"
);
}
);
width = 781;
}
);
},
{
color = 6;
glyphname = E.ss04;
lastChange = "2019-09-18 20:18:00 +0000";
layers = (
{
anchors = (
{
name = bottom;
position = "{334, 0}";
},
{
name = ogonek;
position = "{348, 9}";
},
{
name = top;
position = "{541, 766}";
},
{
name = topleft;
position = "{213, 700}";
}
);
components = (
{
name = E;
}
);
layerId = "BA196CD0-EE58-4274-B8DF-4393D3617A29";
width = 649;
},
{
anchors = (
{
name = bottom;
position = "{334, 0}";
},
{
name = ogonek;
position = "{348, 9}";
},
{
name = top;
position = "{541, 766}";
},
{
name = topleft;
position = "{213, 700}";
}
);
layerId = "BBDB329E-CE83-4304-A6B1-53EA5ACC004E";
paths = (
{
closed = 1;
nodes = (
"596 -27 LINE",
"605 178 LINE",
"274 178 LINE",
"308 306 LINE",
"560 322 LINE",
"596 458 LINE",
"346 447 LINE",
"390 612 LINE",
"722 630 LINE",
"793 757 LINE",
"277 741 LINE",
"45 -27 LINE"
);
}
);
width = 649;
}
);
},
{
color = 6;
glyphname = F.ss04;
lastChange = "2019-09-18 20:18:15 +0000";
layers = (
{
anchors = (
{
name = bottom;
position = "{295, 0}";
},
{
name = bottom_hook;
position = "{105, -38}";
},
{
name = top;
position = "{482, 700}";
}
);
components = (
{
name = F;
}
);
layerId = "BA196CD0-EE58-4274-B8DF-4393D3617A29";
width = 589;
},
{
anchors = (
{
name = bottom;
position = "{295, 0}";
},
{
name = bottom_hook;
position = "{105, -38}";
},
{
name = top;
position = "{482, 700}";
}
);
layerId = "BBDB329E-CE83-4304-A6B1-53EA5ACC004E";
paths = (
{
closed = 1;
nodes = (
"234 -27 LINE",
"311 323 LINE",
"580 341 LINE",
"622 497 LINE",
"351 479 LINE",
"405 620 LINE",
"706 638 LINE",
"738 757 LINE",
"293 743 LINE",
"44 -27 LINE"
);
}
);
width = 589;
}
);
},
{
color = 6;
glyphname = G.ss04;
lastChange = "2019-09-18 20:18:24 +0000";
layers = (
{
anchors = (
{
name = bottom;
position = "{415, 0}";
},
{
name = top;
position = "{646, 766}";
},
{
name = top_hook;
position = "{810, 700}";
}
);
components = (
{
name = G;
}
);
layerId = "BA196CD0-EE58-4274-B8DF-4393D3617A29";
width = 847;
},
{
anchors = (
{
name = bottom;
position = "{410, -20}";
},
{
name = top;
position = "{645, 746}";
},
{
name = top_hook;
position = "{810, 700}";
}
);
layerId = "BBDB329E-CE83-4304-A6B1-53EA5ACC004E";
paths = (
{
closed = 1;
nodes = (
"610 181 OFFCURVE",
"562 172 OFFCURVE",
"503 172 CURVE SMOOTH",
"325 172 OFFCURVE",
"278 221 OFFCURVE",
"314 375 CURVE",
"382 630 OFFCURVE",
"450 638 OFFCURVE",
"627 638 CURVE SMOOTH",
"711 638 OFFCURVE",
"796 627 OFFCURVE",
"856 608 CURVE",
"873 745 LINE",
"831 753 OFFCURVE",
"751 763 OFFCURVE",
"653 763 CURVE SMOOTH",
"362 763 OFFCURVE",
"230 659 OFFCURVE",
"151 364 CURVE SMOOTH",
"84 112 OFFCURVE",
"191 -41 OFFCURVE",
"437 -41 CURVE SMOOTH",
"548 -41 OFFCURVE",
"631 -41 OFFCURVE",
"744 26 CURVE",
"786 219 LINE",
"857 218 LINE",
"871 366 LINE",
"543 404 LINE",
"518 255 LINE",
"647 237 LINE",
"636 195 LINE"
);
}
);
width = 847;
}
);
},
{
color = 6;
glyphname = H.ss04;
lastChange = "2019-09-18 20:18:35 +0000";
layers = (
{
components = (
{
name = H;
}
);
layerId = "BA196CD0-EE58-4274-B8DF-4393D3617A29";
width = 893;
},
{
anchors = (
{
name = bottom;
position = "{390, 0}";
},
{
name = caccent;
position = "{763, 153}";
},
{
name = center;
position = "{485, 365}";
},
{
name = eng;
position = "{642, 52}";
},
{
name = gram;
position = "{817, 323}";
},
{
name = greek_top;
position = "{222, 654}";
},
{
name = mark;
position = "{965, 682}";
},
{
name = top;
position = "{612, 810}";
},
{
name = top_hook;
position = "{97, 473}";
},
{
name = topleft;
position = "{213, 700}";
}
);
layerId = "BBDB329E-CE83-4304-A6B1-53EA5ACC004E";
paths = (
{
closed = 1;
nodes = (
"45 -27 LINE",
"255 -27 LINE",
"435 756 LINE",
"277 756 LINE"
);
},
{
closed = 1;
nodes = (
"502 -27 LINE",
"719 -27 LINE",
"895 756 LINE",
"738 756 LINE"
);
},
{
closed = 1;
nodes = (
"198 160 LINE",
"650 160 LINE",
"712 359 LINE",
"252 359 LINE"
);
}
);
width = 779;
}
);
},
{
color = 6;
glyphname = I.ss04;
lastChange = "2019-09-18 20:18:44 +0000";
layers = (
{
anchors = (
{
name = bottom;
position = "{158, 4}";
},
{
name = ogonek;
position = "{132, 0}";
},
{
name = top;
position = "{354, 779}";
},
{
name = topleft;
position = "{213, 700}";
}
);
components = (
{
name = I;
}
);
layerId = "BA196CD0-EE58-4274-B8DF-4393D3617A29";
width = 303;
},
{
anchors = (
{
name = bottom;
position = "{143, -50}";
},
{
name = ogonex;
position = "{149, 16}";
},
{
name = top;
position = "{383, 885}";
},
{
name = topleft;
position = "{213, 700}";
}
);
layerId = "BBDB329E-CE83-4304-A6B1-53EA5ACC004E";
paths = (
{
closed = 1;
nodes = (
"245 -27 LINE",
"287 243 OFFCURVE",
"349 510 OFFCURVE",
"427 756 CURVE",
"258 756 LINE",
"237 626 OFFCURVE",
"158 269 OFFCURVE",
"43 -27 CURVE"
);
}
);
width = 303;
}
);
},
{
color = 6;
glyphname = J.ss04;
lastChange = "2019-09-18 20:18:51 +0000";
layers = (
{
anchors = (
{
name = bottom;
position = "{243, 0}";
},
{
name = top;
position = "{480, 729}";
}
);
components = (
{
name = J;
}
);
layerId = "BA196CD0-EE58-4274-B8DF-4393D3617A29";
width = 486;
},
{
anchors = (
{
name = bottom;
position = "{243, 0}";
},
{
name = top;
position = "{480, 729}";
}
);
layerId = "BBDB329E-CE83-4304-A6B1-53EA5ACC004E";
paths = (
{
closed = 1;
nodes = (
"230 -14 OFFCURVE",
"170 -28 OFFCURVE",
"117 -14 CURVE SMOOTH",
"-21 23 LINE",
"-118 -192 LINE",
"155 -200 LINE SMOOTH",
"235 -202 OFFCURVE",
"334 -161 OFFCURVE",
"406 29 CURVE SMOOTH",
"668 719 LINE",
"497 719 LINE",
"249 38 LINE SMOOTH"
);
}
);
width = 486;
}
);
},
{
color = 6;
glyphname = K.ss04;
lastChange = "2019-09-18 20:18:56 +0000";
layers = (
{
anchors = (
{
name = bottom;
position = "{315, 0}";
},
{
name = top;
position = "{569, 729}";
},
{
name = top_hook;
position = "{731, 515}";
}
);
components = (
{
name = K;
}
);
layerId = "BA196CD0-EE58-4274-B8DF-4393D3617A29";
width = 737;
},
{
anchors = (
{
name = bottom;
position = "{315, 0}";
},
{
name = top;
position = "{569, 729}";
},
{
name = top_hook;
position = "{731, 515}";
}
);
layerId = "BBDB329E-CE83-4304-A6B1-53EA5ACC004E";
paths = (
{
closed = 1;
nodes = (
"229 -27 LINE",
"302 206 LINE",
"400 -27 LINE",
"717 -27 LINE",
"438 331 LINE",
"812 756 LINE",
"619 756 LINE",
"379 469 LINE",
"466 756 LINE",
"324 756 LINE",
"43 -27 LINE"
);
}
);
width = 737;
}
);
},
{
color = 6;
glyphname = L.ss04;
lastChange = "2019-09-18 20:19:01 +0000";
layers = (
{
anchors = (
{
name = "_ circumflexbelowcomb";
position = "{316, -26}";
},
{
name = bottom;
position = "{322, 5}";
},
{
name = center;
position = "{412, 350}";
},
{
name = right;
position = "{498, 644}";
},
{
name = top;
position = "{340, 729}";
},
{
name = topright;
position = "{798, 700}";
}
);
components = (
{
name = L;
}
);
layerId = "BA196CD0-EE58-4274-B8DF-4393D3617A29";
width = 635;
},
{
anchors = (
{
name = "_ circumflexbelowcomb";
position = "{316, -26}";
},
{
name = bottom;
position = "{322, 5}";
},
{
name = center;
position = "{412, 350}";
},
{
name = right;
position = "{498, 644}";
},
{
name = top;
position = "{353, 779}";
},
{
name = topright;
position = "{798, 700}";
}
);
layerId = "BBDB329E-CE83-4304-A6B1-53EA5ACC004E";
paths = (
{
closed = 1;
nodes = (
"577 -27 LINE",
"617 178 LINE",
"259 172 LINE",
"416 756 LINE",
"283 756 LINE",
"45 -27 LINE"
);
}
);
width = 635;
}
);
},
{
color = 6;
glyphname = M.ss04;
lastChange = "2019-09-18 20:19:09 +0000";
layers = (
{
anchors = (
{
name = _top;
position = "{590, 663}";
},
{
name = bottom;
position = "{441, 0}";
},
{
name = hookbelow;
position = "{851, 157}";
},
{
name = top;
position = "{629, 700}";
}
);
components = (
{
name = M;
}
);
layerId = "BA196CD0-EE58-4274-B8DF-4393D3617A29";
width = 883;
},
{
anchors = (
{
name = _top;
position = "{590, 663}";
},
{
name = bottom;
position = "{441, 0}";
},
{
name = hookbelow;
position = "{851, 157}";
},
{
name = top;
position = "{629, 700}";
}
);
layerId = "BBDB329E-CE83-4304-A6B1-53EA5ACC004E";
paths = (
{
closed = 1;
nodes = (
"247 -27 LINE",
"386 673 LINE",
"330 662 LINE",
"379 36 LINE",
"529 36 LINE",
"894 663 LINE",
"843 673 LINE",
"603 -27 LINE",
"823 -27 LINE",
"999 756 LINE",
"817 756 LINE",
"542 358 LINE",
"476 756 LINE",
"283 756 LINE",
"45 -27 LINE"
);
}
);
width = 883;
}
);
},
{
color = 6;
glyphname = N.ss04;
lastChange = "2019-09-18 20:19:14 +0000";
layers = (
{
anchors = (
{
name = _;
position = "{419, 0}";
},
{
name = bottom;
position = "{383, 0}";
},
{
name = eng;
position = "{573, 12}";
},
{
name = top;
position = "{614, 729}";
}
);
components = (
{
name = N;
}
);
layerId = "BA196CD0-EE58-4274-B8DF-4393D3617A29";
width = 765;
},
{
anchors = (
{
name = _;
position = "{419, 0}";
},
{
name = bottom;
position = "{383, 0}";
},
{
name = eng;
position = "{573, 12}";
},
{
name = top;
position = "{614, 729}";
}
);
layerId = "BBDB329E-CE83-4304-A6B1-53EA5ACC004E";
paths = (
{
closed = 1;
nodes = (
"264 -27 LINE",
"416 617 LINE",
"360 606 LINE",
"455 -27 LINE",
"662 -27 LINE",
"915 754 LINE",
"769 754 LINE",
"587 238 LINE",
"476 727 LINE",
"309 727 LINE",
"44 -27 LINE"
);
}
);
width = 765;
}
);
},
{
color = 6;
glyphname = O.ss04;
lastChange = "2019-10-03 20:30:13 +0000";
layers = (
{
anchors = (
{
name = abovecomb;
position = "{634, 811}";
},
{
name = bottom;
position = "{408, -54}";
},
{
name = center;
position = "{526, 387}";
},
{
name = horn;
position = "{819, 639}";
},
{
name = ogonek;
position = "{758, 10}";
},
{
name = polyomicron;
position = "{295, 672}";
},
{
name = top;
position = "{637, 815}";
},
{
name = topleft;
position = "{213, 700}";
},
{
name = topright;
position = "{1006, 700}";
}
);
components = (
{
name = O;
}
);
layerId = "BA196CD0-EE58-4274-B8DF-4393D3617A29";
width = 843;
},
{
anchors = (
{
name = abovecomb;
position = "{634, 811}";
},
{
name = bottom;
position = "{408, -54}";
},
{
name = center;
position = "{526, 387}";
},
{
name = horn;
position = "{819, 639}";
},
{
name = ogonek;
position = "{758, 10}";
},
{
name = polyomicron;
position = "{295, 672}";
},
{
name = top;
position = "{637, 815}";
},
{
name = topleft;
position = "{213, 700}";
},
{
name = topright;
position = "{1006, 700}";
}
);
layerId = "BBDB329E-CE83-4304-A6B1-53EA5ACC004E";
paths = (
{
closed = 1;
nodes = (
"690 -43 OFFCURVE",
"795 47 OFFCURVE",
"887 363 CURVE SMOOTH",
"957 606 OFFCURVE",
"852 769 OFFCURVE",
"628 769 CURVE SMOOTH",
"405 769 OFFCURVE",
"216 608 OFFCURVE",
"151 364 CURVE SMOOTH",
"71 64 OFFCURVE",
"137 -39 OFFCURVE",
"411 -41 CURVE SMOOTH"
);
},
{
closed = 1;
nodes = (
"324 200 OFFCURVE",
"279 246 OFFCURVE",
"311 364 CURVE SMOOTH",
"357 536 OFFCURVE",
"469 645 OFFCURVE",
"595 645 CURVE SMOOTH",
"721 645 OFFCURVE",
"774 536 OFFCURVE",
"728 364 CURVE SMOOTH",
"696 245 OFFCURVE",
"627 200 OFFCURVE",
"476 200 CURVE SMOOTH"
);
}
);
width = 843;
},
{
anchors = (
{
name = abovecomb;
position = "{584, 951}";
},
{
name = bottom;
position = "{308, -104}";
},
{
name = center;
position = "{452, 434}";
},
{
name = horn;
position = "{809, 741}";
},
{
name = ogonek;
position = "{735, -26}";
},
{
name = polyomicron;
position = "{171, 781}";
},
{
name = top;
position = "{588, 956}";
},
{
name = topleft;
position = "{71, 815}";
},
{
name = topright;
position = "{1037, 815}";
}
);
associatedMasterId = "BA196CD0-EE58-4274-B8DF-4393D3617A29";
layerId = "A827AE76-9D4B-4CCF-A3C2-93BBC45C79C0";
name = "Color 10";
paths = (
{
closed = 1;
nodes = (
"558 173 OFFCURVE",
"683 222 OFFCURVE",
"731 406 CURVE SMOOTH",
"791 630 OFFCURVE",
"722 781 OFFCURVE",
"545 781 CURVE SMOOTH",
"369 781 OFFCURVE",
"217 630 OFFCURVE",
"156 406 CURVE SMOOTH",
"107 222 OFFCURVE",
"206 173 OFFCURVE",
"383 173 CURVE SMOOTH"
);
}
);
width = 843;
},
{
anchors = (
{
name = abovecomb;
position = "{559, 811}";
},
{
name = bottom;
position = "{333, -54}";
},
{
name = center;
position = "{451, 387}";
},
{
name = horn;
position = "{744, 639}";
},
{
name = ogonek;
position = "{683, 10}";
},
{
name = polyomicron;
position = "{220, 672}";
},
{
name = top;
position = "{562, 815}";
},
{
name = topleft;
position = "{138, 700}";
},
{
name = topright;
position = "{931, 700}";
}
);
associatedMasterId = "BA196CD0-EE58-4274-B8DF-4393D3617A29";
components = (
{
name = O;
}
);
layerId = "FDC86BFD-5BDF-407B-8DA7-4D71798B345A";
name = "Color 5";
width = 843;
},
{
anchors = (
{
name = abovecomb;
position = "{455, 811}";
},
{
name = bottom;
position = "{455, -54}";
},
{
name = center;
position = "{455, 387}";
},
{
name = horn;
position = "{455, 639}";
},
{
name = ogonek;
position = "{455, 10}";
},
{
name = polyomicron;
position = "{455, 672}";
},
{
name = top;
position = "{455, 815}";
},
{
name = topleft;
position = "{455, 700}";
},
{
name = topright;
position = "{455, 700}";
}
);
associatedMasterId = "BBDB329E-CE83-4304-A6B1-53EA5ACC004E";
layerId = "E0DAC8D9-5339-4CA1-86F8-C663C7A7EBAF";
name = "Color 10";
paths = (
{
closed = 1;
nodes = (
"624 200 OFFCURVE",
"720 263 OFFCURVE",
"765 430 CURVE SMOOTH",
"830 670 OFFCURVE",
"755 823 OFFCURVE",
"579 823 CURVE SMOOTH",
"402 823 OFFCURVE",
"246 670 OFFCURVE",
"181 430 CURVE SMOOTH",
"136 264 OFFCURVE",
"199 200 OFFCURVE",
"412 200 CURVE SMOOTH"
);
}
);
width = 843;
},
{
associatedMasterId = "BBDB329E-CE83-4304-A6B1-53EA5ACC004E";
components = (
{
name = O;
}
);
layerId = "87232CE7-57BC-4462-9D0D-6C21F21BB0C8";
name = "Color 5";
width = 919;
}
);
},
{
color = 6;
glyphname = P.ss04;
lastChange = "2019-09-25 14:37:47 +0000";
layers = (
{
anchors = (
{
name = bottom;
position = "{326, 0}";
},
{
name = top;
position = "{514, 700}";
},
{
name = top_hook;
position = "{86, 455}";
}
);
components = (
{
name = P;
}
);
layerId = "BA196CD0-EE58-4274-B8DF-4393D3617A29";
width = 652;
},
{
anchors = (
{
name = bottom;
position = "{326, 0}";
},
{
name = top;
position = "{514, 700}";
},
{
name = top_hook;
position = "{86, 455}";
}
);
layerId = "BBDB329E-CE83-4304-A6B1-53EA5ACC004E";
paths = (
{
closed = 1;
nodes = (
"252 -27 LINE",
"306 248 LINE",
"399 253 LINE SMOOTH",
"580 262 OFFCURVE",
"691 345 OFFCURVE",
"734 505 CURVE SMOOTH",
"771 644 OFFCURVE",
"679 743 OFFCURVE",
"509 743 CURVE SMOOTH",
"296 743 LINE",
"44 -27 LINE"
);
},
{
closed = 1;
nodes = (
"400 624 LINE",
"481 624 LINE SMOOTH",
"563 624 OFFCURVE",
"616 590 OFFCURVE",
"605 549 CURVE SMOOTH",
"583 467 OFFCURVE",
"558 450 OFFCURVE",
"459 446 CURVE SMOOTH",
"350 441 LINE"
);
}
);
width = 652;
},
{
anchors = (
{
name = bottom;
position = "{244, 50}";
},
{
name = top;
position = "{432, 750}";
},
{
name = top_hook;
position = "{4, 505}";
}
);
associatedMasterId = "BA196CD0-EE58-4274-B8DF-4393D3617A29";
layerId = "D8ED5EE3-3EDF-4A6D-93F1-3D09C557AE30";
name = "Color 3";
paths = (
{
closed = 1;
nodes = (
"365 444 LINE SMOOTH",
"493 450 OFFCURVE",
"556 472 OFFCURVE",
"594 610 CURVE SMOOTH",
"606 654 OFFCURVE",
"578 740 OFFCURVE",
"411 740 CURVE SMOOTH",
"270 740 LINE",
"190 436 LINE"
);
}
);
width = 652;
},
{
associatedMasterId = "BA196CD0-EE58-4274-B8DF-4393D3617A29";
components = (
{
name = P;
}
);
layerId = "23BB05FF-B2C5-42F2-A537-6DC5B7940FAA";
name = "Color 5";
width = 652;
},
{
anchors = (
{
name = bottom;
position = "{244, 50}";
},
{
name = top;
position = "{432, 750}";
},
{
name = top_hook;
position = "{4, 505}";
}
);
associatedMasterId = "BBDB329E-CE83-4304-A6B1-53EA5ACC004E";
layerId = "939AA9DA-100E-4D26-AF21-E341D9879070";
name = "Color 3";
paths = (
{
closed = 1;
nodes = (
"365 444 LINE SMOOTH",
"493 450 OFFCURVE",
"556 472 OFFCURVE",
"594 610 CURVE SMOOTH",
"606 654 OFFCURVE",
"578 740 OFFCURVE",
"411 740 CURVE SMOOTH",
"270 740 LINE",
"190 436 LINE"
);
}
);
width = 652;
},
{
associatedMasterId = "BBDB329E-CE83-4304-A6B1-53EA5ACC004E";
components = (
{
name = P;
}
);
layerId = "82EDFA54-B2D2-4C22-8F2D-B788D9D76245";
name = "Color 5";
width = 652;
}
);
},
{
color = 6;
glyphname = Q.ss04;
lastChange = "2019-09-25 14:38:00 +0000";
layers = (
{
anchors = (
{
name = bottom;
position = "{439, 0}";
},
{
name = top;
position = "{627, 700}";
}
);
components = (
{
name = Q;
}
);
layerId = "BA196CD0-EE58-4274-B8DF-4393D3617A29";
width = 878;
},
{
anchors = (
{
name = bottom;
position = "{439, 0}";
},
{
name = top;
position = "{627, 700}";
}
);
layerId = "BBDB329E-CE83-4304-A6B1-53EA5ACC004E";
paths = (
{
closed = 1;
nodes = (
"817 -156 LINE",
"688 42 LINE",
"789 134 OFFCURVE",
"849 232 OFFCURVE",
"884 364 CURVE SMOOTH",
"950 610 OFFCURVE",
"849 769 OFFCURVE",
"628 769 CURVE SMOOTH",
"418 769 OFFCURVE",
"212 593 OFFCURVE",
"151 364 CURVE SMOOTH",
"73 72 OFFCURVE",
"145 -41 OFFCURVE",
"406 -41 CURVE SMOOTH",
"414 -41 OFFCURVE",
"422 -41 OFFCURVE",
"437 -40 CURVE",
"509 -156 LINE"
);
},
{
closed = 1;
nodes = (
"349 181 OFFCURVE",
"264 180 OFFCURVE",
"314 364 CURVE SMOOTH",
"355 519 OFFCURVE",
"474 635 OFFCURVE",
"592 635 CURVE SMOOTH",
"720 635 OFFCURVE",
"771 535 OFFCURVE",
"725 364 CURVE SMOOTH",
"711 314 OFFCURVE",
"657 212 OFFCURVE",
"652 212 CURVE SMOOTH",
"615 212 OFFCURVE",
"563 233 OFFCURVE",
"505 272 CURVE",
"443 184 LINE",
"407 183 LINE SMOOTH"
);
}
);
width = 878;
},
{
anchors = (
{
name = bottom;
position = "{390, 0}";
},
{
name = top;
position = "{578, 700}";
}
);
associatedMasterId = "BA196CD0-EE58-4274-B8DF-4393D3617A29";
layerId = "64E50C9D-9E2C-42CB-8B21-CC2B2EEE9203";
name = "Color 6";
paths = (
{
closed = 1;
nodes = (
"366 57 LINE",
"444 167 LINE",
"510 126 OFFCURVE",
"582 96 OFFCURVE",
"640 96 CURVE SMOOTH",
"685 96 OFFCURVE",
"767 245 OFFCURVE",
"796 354 CURVE SMOOTH",
"867 620 OFFCURVE",
"784 784 OFFCURVE",
"576 784 CURVE SMOOTH",
"367 784 OFFCURVE",
"184 578 OFFCURVE",
"123 354 CURVE SMOOTH",
"40 51 OFFCURVE",
"206 51 OFFCURVE",
"288 54 CURVE SMOOTH"
);
}
);
width = 878;
},
{
associatedMasterId = "BA196CD0-EE58-4274-B8DF-4393D3617A29";
components = (
{
name = Q;
}
);
layerId = "976CC65A-0577-4218-BBBB-72B9616CC18C";
name = "Color 5";
width = 878;
},
{
anchors = (
{
name = bottom;
position = "{340, -181}";
},
{
name = top;
position = "{611, 829}";
}
);
associatedMasterId = "BBDB329E-CE83-4304-A6B1-53EA5ACC004E";
layerId = "50716A54-9AF4-4865-B83B-6FA4628B5F47";
name = "Color 6";
paths = (
{
closed = 1;
nodes = (
"346 84 LINE",
"435 211 LINE",
"519 155 OFFCURVE",
"594 125 OFFCURVE",
"647 125 CURVE SMOOTH",
"655 125 OFFCURVE",
"732 272 OFFCURVE",
"753 344 CURVE SMOOTH",
"819 591 OFFCURVE",
"745 735 OFFCURVE",
"561 735 CURVE SMOOTH",
"390 735 OFFCURVE",
"219 568 OFFCURVE",
"160 344 CURVE SMOOTH",
"87 79 OFFCURVE",
"210 80 OFFCURVE",
"294 83 CURVE SMOOTH"
);
}
);
width = 878;
},
{
associatedMasterId = "BBDB329E-CE83-4304-A6B1-53EA5ACC004E";
components = (
{
name = Q;
}
);
layerId = "4471272F-0BD0-44A6-8FF0-688AFDA41F8A";
name = "Color 5";
width = 878;
}
);
},
{
color = 6;
glyphname = R.ss04;
lastChange = "2019-09-25 14:38:12 +0000";
layers = (
{
anchors = (
{
name = bottom;
position = "{323, 0}";
},
{
name = bottom_hook;
position = "{121, -20}";
},
{
name = top;
position = "{519, 729}";
}
);
components = (
{
name = R;
}
);
layerId = "BA196CD0-EE58-4274-B8DF-4393D3617A29";
width = 692;
},
{
anchors = (
{
name = bottom;
position = "{323, 0}";
},
{
name = bottom_hook;
position = "{121, -20}";
},
{
name = top;
position = "{519, 729}";
}
);
layerId = "BBDB329E-CE83-4304-A6B1-53EA5ACC004E";
paths = (
{
closed = 1;
nodes = (
"643 382 OFFCURVE",
"686 439 OFFCURVE",
"708 519 CURVE SMOOTH",
"748 671 OFFCURVE",
"676 756 OFFCURVE",
"509 756 CURVE SMOOTH",
"304 756 LINE",
"44 -27 LINE",
"261 -27 LINE",
"320 260 LINE",
"351 264 LINE SMOOTH",
"438 278 OFFCURVE",
"481 250 OFFCURVE",
"461 188 CURVE SMOOTH",
"394 -27 LINE",
"640 -27 LINE",
"635 206 LINE SMOOTH",
"634 260 OFFCURVE",
"614 316 OFFCURVE",
"582 353 CURVE"
);
},
{
closed = 1;
nodes = (
"575 650 OFFCURVE",
"606 607 OFFCURVE",
"582 519 CURVE SMOOTH",
"571 476 OFFCURVE",
"498 432 OFFCURVE",
"432 432 CURVE SMOOTH",
"334 432 LINE",
"392 650 LINE",
"490 650 LINE SMOOTH"
);
}
);
width = 692;
},
{
anchors = (
{
name = bottom;
position = "{264, 0}";
},
{
name = bottom_hook;
position = "{62, -20}";
},
{
name = top;
position = "{460, 729}";
}
);
associatedMasterId = "BA196CD0-EE58-4274-B8DF-4393D3617A29";
layerId = "907E17D1-03C2-4DD8-95FD-9D5552AE5C09";
name = "Color 10";
paths = (
{
closed = 1;
nodes = (
"351 375 LINE SMOOTH",
"459 375 OFFCURVE",
"593 448 OFFCURVE",
"618 539 CURVE SMOOTH",
"668 720 OFFCURVE",
"565 767 OFFCURVE",
"456 767 CURVE SMOOTH",
"275 767 LINE",
"169 375 LINE"
);
}
);
width = 692;
},
{
associatedMasterId = "BA196CD0-EE58-4274-B8DF-4393D3617A29";
components = (
{
name = R;
}
);
layerId = "8B91F6DC-5477-4FBB-9380-2BF1F5621459";
name = "Color 5";
width = 692;
},
{
anchors = (
{
name = bottom;
position = "{264, 0}";
},
{
name = bottom_hook;
position = "{62, -20}";
},
{
name = top;
position = "{460, 729}";
}
);
associatedMasterId = "BBDB329E-CE83-4304-A6B1-53EA5ACC004E";
layerId = "50559C30-19E5-4328-A5C7-7503A5DECA39";
name = "Color 10";
paths = (
{
closed = 1;
nodes = (
"351 375 LINE SMOOTH",
"459 375 OFFCURVE",
"593 448 OFFCURVE",
"618 539 CURVE SMOOTH",
"668 720 OFFCURVE",
"565 767 OFFCURVE",
"456 767 CURVE SMOOTH",
"275 767 LINE",
"169 375 LINE"
);
}
);
width = 692;
},
{
associatedMasterId = "BBDB329E-CE83-4304-A6B1-53EA5ACC004E";
components = (
{
name = R;
}
);
layerId = "340EE518-90D3-42E0-B3B1-EC33147EBE5B";
name = "Color 5";
width = 692;
}
);
},
{
color = 6;
glyphname = S.ss04;
lastChange = "2019-09-18 20:21:29 +0000";
layers = (
{
anchors = (
{
name = bottom;
position = "{382, 13}";
},
{
name = top;
position = "{574, 729}";
}
);
components = (
{
name = S;
}
);
layerId = "BA196CD0-EE58-4274-B8DF-4393D3617A29";
width = 768;
},
{
anchors = (
{
name = bottom;
position = "{382, 13}";
},
{
name = top;
position = "{582, 759}";
}
);
layerId = "BBDB329E-CE83-4304-A6B1-53EA5ACC004E";
paths = (
{
closed = 1;
nodes = (
"591 -41 OFFCURVE",
"703 -41 OFFCURVE",
"768 201 CURVE SMOOTH",
"801 324 OFFCURVE",
"725 408 OFFCURVE",
"553 443 CURVE SMOOTH",
"497 455 LINE SMOOTH",
"409 475 OFFCURVE",
"367 509 OFFCURVE",
"377 549 CURVE SMOOTH",
"391 601 OFFCURVE",
"462 635 OFFCURVE",
"568 635 CURVE SMOOTH",
"644 635 OFFCURVE",
"646 632 OFFCURVE",
"709 615 CURVE",
"812 738 LINE",
"718 762 OFFCURVE",
"674 769 OFFCURVE",
"593 769 CURVE SMOOTH",
"417 769 OFFCURVE",
"283 679 OFFCURVE",
"244 534 CURVE SMOOTH",
"211 409 OFFCURVE",
"265 340 OFFCURVE",
"417 309 CURVE SMOOTH",
"474 297 LINE SMOOTH",
"569 277 OFFCURVE",
"608 246 OFFCURVE",
"596 209 CURVE SMOOTH",
"576 143 OFFCURVE",
"543 127 OFFCURVE",
"431 127 CURVE SMOOTH",
"378 127 OFFCURVE",
"276 170 OFFCURVE",
"261 201 CURVE",
"69 93 LINE",
"106 -41 OFFCURVE",
"215 -41 OFFCURVE",
"354 -41 CURVE SMOOTH"
);
}
);
width = 768;
}
);
},
{
color = 6;
glyphname = T.ss04;
lastChange = "2019-09-18 20:21:35 +0000";
layers = (
{
anchors = (
{
name = bottom;
position = "{392, 0}";
},
{
name = bottom_hook;
position = "{413, -29}";
},
{
name = center;
position = "{490, 365}";
},
{
name = hook_top;
position = "{293, 691}";
},
{
name = top;
position = "{587, 729}";
}
);
components = (
{
name = T;
}
);
layerId = "BA196CD0-EE58-4274-B8DF-4393D3617A29";
width = 785;
},
{
anchors = (
{
name = bottom;
position = "{384, -30}";
},
{
name = bottom_hook;
position = "{413, -29}";
},
{
name = center;
position = "{490, 365}";
},
{
name = hook_top;
position = "{319, 691}";
},
{
name = top;
position = "{596, 763}";
}
);
layerId = "BBDB329E-CE83-4304-A6B1-53EA5ACC004E";
paths = (
{
closed = 1;
nodes = (
"482 628 LINE",
"288 -27 LINE",
"484 -27 LINE",
"639 628 LINE",
"897 618 LINE",
"934 756 LINE",
"256 756 LINE",
"219 618 LINE"
);
}
);
width = 785;
}
);
},
{
color = 6;
glyphname = U.ss04;
lastChange = "2019-09-18 20:21:39 +0000";
layers = (
{
anchors = (
{
name = bottom;
position = "{382, 0}";
},
{
name = horn;
position = "{875, 672}";
},
{
name = ogonek;
position = "{541, 35}";
},
{
name = top;
position = "{601, 809}";
},
{
name = top_hook;
position = "{805, 663}";
},
{
name = topright;
position = "{926, 700}";
}
);
components = (
{
name = U;
}
);
layerId = "BA196CD0-EE58-4274-B8DF-4393D3617A29";
width = 764;
},
{
anchors = (
{
name = bottom;
position = "{369, -41}";
},
{
name = horn;
position = "{875, 672}";
},
{
name = ogonek;
position = "{541, 35}";
},
{
name = top;
position = "{614, 858}";
},
{
name = top_hook;
position = "{791, 685}";
},
{
name = topright;
position = "{926, 700}";
}
);
layerId = "BBDB329E-CE83-4304-A6B1-53EA5ACC004E";
paths = (
{
closed = 1;
nodes = (
"70 -41 OFFCURVE",
"182 -41 OFFCURVE",
"369 -41 CURVE SMOOTH",
"554 -41 OFFCURVE",
"662 -41 OFFCURVE",
"761 273 CURVE SMOOTH",
"914 756 LINE",
"726 756 LINE",
"633 353 LINE SMOOTH",
"591 169 OFFCURVE",
"552 169 OFFCURVE",
"425 169 CURVE SMOOTH",
"297 169 OFFCURVE",
"257 169 OFFCURVE",
"314 353 CURVE SMOOTH",
"437 756 LINE",
"255 756 LINE",
"143 273 LINE SMOOTH"
);
}
);
width = 764;
}
);
},
{
color = 6;
glyphname = V.ss04;
lastChange = "2019-09-18 20:21:45 +0000";
layers = (
{
anchors = (
{
name = bottom;
position = "{418, 0}";
},
{
name = top;
position = "{606, 700}";
},
{
name = top_hook;
position = "{850, 622}";
}
);
components = (
{
name = V;
}
);
layerId = "BA196CD0-EE58-4274-B8DF-4393D3617A29";
width = 836;
},
{
anchors = (
{
name = bottom;
position = "{418, 0}";
},
{
name = top;
position = "{620, 752}";
},
{
name = top_hook;
position = "{850, 622}";
}
);
layerId = "BBDB329E-CE83-4304-A6B1-53EA5ACC004E";
paths = (
{
closed = 1;
nodes = (
"995 756 LINE",
"837 756 LINE",
"479 241 LINE",
"469 241 LINE",
"407 756 LINE",
"246 756 LINE",
"283 -27 LINE",
"529 -27 LINE"
);
}
);
width = 836;
}
);
},
{
color = 6;
glyphname = W.ss04;
lastChange = "2019-09-18 20:21:51 +0000";
layers = (
{
anchors = (
{
name = bottom;
position = "{547, 0}";
},
{
name = top;
position = "{740, 729}";
},
{
name = top_hook;
position = "{1211, 500}";
}
);
components = (
{
name = W;
}
);
layerId = "BA196CD0-EE58-4274-B8DF-4393D3617A29";
width = 1094;
},
{
anchors = (
{
name = bottom;
position = "{547, 0}";
},
{
name = top;
position = "{740, 729}";
},
{
name = top_hook;
position = "{1211, 500}";
}
);
layerId = "BBDB329E-CE83-4304-A6B1-53EA5ACC004E";
paths = (
{
closed = 1;
nodes = (
"413 -27 LINE",
"630 313 LINE",
"656 -27 LINE",
"842 -27 LINE",
"1251 756 LINE",
"1099 756 LINE",
"815 271 LINE",
"758 570 LINE",
"638 570 LINE",
"408 279 LINE",
"400 756 LINE",
"249 756 LINE",
"216 -27 LINE"
);
}
);
width = 1094;
}
);
},
{
color = 6;
glyphname = X.ss04;
lastChange = "2019-09-18 20:21:59 +0000";
layers = (
{
anchors = (
{
name = bottom;
position = "{399, 0}";
},
{
name = bottom_hook;
position = "{630, 21}";
},
{
name = top;
position = "{587, 700}";
}
);
components = (
{
name = X;
}
);
layerId = "BA196CD0-EE58-4274-B8DF-4393D3617A29";
width = 797;
},
{
anchors = (
{
name = bottom;
position = "{399, 0}";
},
{
name = bottom_hook;
position = "{630, 21}";
},
{
name = top;
position = "{587, 700}";
}
);
layerId = "BBDB329E-CE83-4304-A6B1-53EA5ACC004E";
paths = (
{
closed = 1;
nodes = (
"533 -27 LINE",
"760 -27 LINE",
"426 756 LINE",
"274 756 LINE"
);
},
{
closed = 1;
nodes = (
"22 -24 LINE",
"251 -27 LINE",
"943 757 LINE",
"792 757 LINE"
);
}
);
width = 797;
}
);
},
{
color = 6;
glyphname = Y.ss04;
lastChange = "2019-09-18 20:22:04 +0000";
layers = (
{
anchors = (
{
name = bottom;
position = "{386, 0}";
},
{
name = top;
position = "{596, 785}";
},
{
name = top_hook;
position = "{876, 500}";
},
{
name = topleft;
position = "{213, 700}";
}
);
components = (
{
name = Y;
}
);
layerId = "BA196CD0-EE58-4274-B8DF-4393D3617A29";
width = 772;
},
{
anchors = (
{
name = bottom;
position = "{386, 0}";
},
{
name = top;
position = "{601, 829}";
},
{
name = top_hook;
position = "{876, 500}";
},
{
name = topleft;
position = "{156, 700}";
}
);
layerId = "BBDB329E-CE83-4304-A6B1-53EA5ACC004E";
paths = (
{
closed = 1;
nodes = (
"283 -27 LINE",
"472 -27 LINE",
"544 244 LINE",
"937 756 LINE",
"770 756 LINE",
"498 414 LINE",
"407 756 LINE",
"240 756 LINE",
"355 244 LINE"
);
}
);
width = 772;
}
);
},
{
color = 6;
glyphname = Z.ss04;
lastChange = "2019-09-18 20:22:12 +0000";
layers = (
{
anchors = (
{
name = bottom;
position = "{407, 0}";
},
{
name = center;
position = "{501, 350}";
},
{
name = top;
position = "{599, 729}";
}
);
components = (
{
name = Z;
}
);
layerId = "BA196CD0-EE58-4274-B8DF-4393D3617A29";
width = 813;
},
{
anchors = (
{
name = bottom;
position = "{407, 0}";
},
{
name = center;
position = "{501, 350}";
},
{
name = top;
position = "{599, 729}";
}
);
layerId = "BBDB329E-CE83-4304-A6B1-53EA5ACC004E";
paths = (
{
closed = 1;
nodes = (
"690 572 LINE",
"94 151 LINE",
"46 -28 LINE",
"743 -20 LINE",
"729 173 LINE",
"324 173 LINE",
"919 594 LINE",
"949 708 LINE",
"294 708 LINE",
"338 577 LINE"
);
}
);
width = 813;
}
);
},
{
glyphname = Gsmallhook;
lastChange = "2019-10-05 00:52:45 +0000";
layers = (
{
anchors = (
{
name = _top_hook;
position = "{739, 66}";
},
{
name = center;
position = "{805, 299}";
}
);
components = (
{
name = Gsmall;
transform = "{1, 0, 0, 1, 26, 0}";
}
);
layerId = "BA196CD0-EE58-4274-B8DF-4393D3617A29";
paths = (
{
closed = 1;
nodes = (
"583 683 OFFCURVE",
"557 677 OFFCURVE",
"523 565 CURVE SMOOTH",
"508 515 OFFCURVE",
"512 576 OFFCURVE",
"493 506 CURVE",
"579 506 LINE",
"587 537 OFFCURVE",
"594 517 OFFCURVE",
"602 546 CURVE SMOOTH",
"615 594 OFFCURVE",
"619 597 OFFCURVE",
"687 597 CURVE",
"710 682 LINE"
);
}
);
width = 625;
},
{
anchors = (
{
name = _top_hook;
position = "{872, 66}";
},
{
name = center;
position = "{939, 299}";
}
);
components = (
{
name = Gsmall;
transform = "{1, 0, 0, 1, 160, 0}";
}
);
layerId = "BBDB329E-CE83-4304-A6B1-53EA5ACC004E";
paths = (
{
closed = 1;
nodes = (
"726 772 OFFCURVE",
"689 756 OFFCURVE",
"649 626 CURVE SMOOTH",
"632 571 OFFCURVE",
"639 596 OFFCURVE",
"612 494 CURVE",
"752 494 LINE",
"764 539 OFFCURVE",
"771 568 OFFCURVE",
"782 606 CURVE SMOOTH",
"792 642 OFFCURVE",
"776 627 OFFCURVE",
"861 631 CURVE",
"898 769 LINE"
);
}
);
width = 892;
}
);
unicode = 029B;
},
{
color = 7;
glyphname = a;
lastChange = "2019-10-03 20:55:59 +0000";
layers = (
{
anchors = (
{
name = bottom;
position = "{188, -113}";
},
{
name = ogonek;
position = "{489, 48}";
},
{
name = top;
position = "{458, 668}";
}
);
background = {
components = (
{
alignment = -1;
name = "";
transform = "{1, 0, 0, 1, 49, 150}";
},
{
alignment = -1;
name = "";
transform = "{1, 0, 0, 1, 49, 200}";
},
{
alignment = -1;
name = "";
transform = "{1, 0, 0, 1, 99, 50}";
},
{
alignment = -1;
name = "";
transform = "{1, 0, 0, 1, 99, 100}";
},
{
alignment = -1;
name = "";
transform = "{1, 0, 0, 1, 99, 150}";
},
{
alignment = -1;
name = "";
transform = "{1, 0, 0, 1, 99, 200}";
},
{
alignment = -1;
name = "";
transform = "{1, 0, 0, 1, 99, 250}";
},
{
alignment = -1;
name = "";
transform = "{1, 0, 0, 1, 99, 300}";
},
{
alignment = -1;
name = "";
transform = "{1, 0, 0, 1, 99, 350}";
},
{
alignment = -1;
name = "";
transform = "{1, 0, 0, 1, 149, 0}";
},
{
alignment = -1;
name = "";
transform = "{1, 0, 0, 1, 149, 50}";
},
{
alignment = -1;
name = "";
transform = "{1, 0, 0, 1, 149, 100}";
},
{
alignment = -1;
name = "";
transform = "{1, 0, 0, 1, 149, 400}";
},
{
alignment = -1;
name = "";
transform = "{1, 0, 0, 1, 199, 0}";
},
{
alignment = -1;
name = "";
transform = "{1, 0, 0, 1, 199, 50}";
},
{
alignment = -1;
name = "";
transform = "{1, 0, 0, 1, 199, 100}";
},
{
alignment = -1;
name = "";
transform = "{1, 0, 0, 1, 199, 450}";
},
{
alignment = -1;
name = "";
transform = "{1, 0, 0, 1, 249, 0}";
},
{
alignment = -1;
name = "";
transform = "{1, 0, 0, 1, 249, 50}";
},
{
alignment = -1;
name = "";
transform = "{1, 0, 0, 1, 249, 100}";
},
{
alignment = -1;
name = "";
transform = "{1, 0, 0, 1, 249, 450}";
},
{
alignment = -1;
name = "";
transform = "{1, 0, 0, 1, 299, 0}";
},
{
alignment = -1;
name = "";
transform = "{1, 0, 0, 1, 299, 50}";
},
{
alignment = -1;
name = "";
transform = "{1, 0, 0, 1, 299, 100}";
},
{
alignment = -1;
name = "";
transform = "{1, 0, 0, 1, 299, 450}";
},
{
alignment = -1;
name = "";
transform = "{1, 0, 0, 1, 349, 0}";
},
{
alignment = -1;
name = "";
transform = "{1, 0, 0, 1, 349, 50}";
},
{
alignment = -1;
name = "";
transform = "{1, 0, 0, 1, 349, 100}";
},
{
alignment = -1;
name = "";
transform = "{1, 0, 0, 1, 349, 450}";
},
{
alignment = -1;
name = "";
transform = "{1, 0, 0, 1, 399, 0}";
},
{
alignment = -1;
name = "";
transform = "{1, 0, 0, 1, 399, 50}";
},
{
alignment = -1;
name = "";
transform = "{1, 0, 0, 1, 399, 100}";
},
{
alignment = -1;
name = "";
transform = "{1, 0, 0, 1, 399, 450}";
},
{
alignment = -1;
name = "";
transform = "{1, 0, 0, 1, 449, 50}";
},
{
alignment = -1;
name = "";
transform = "{1, 0, 0, 1, 449, 100}";
},
{
alignment = -1;
name = "";
transform = "{1, 0, 0, 1, 449, 150}";
},
{
alignment = -1;
name = "";
transform = "{1, 0, 0, 1, 449, 200}";
},
{
alignment = -1;
name = "";
transform = "{1, 0, 0, 1, 449, 250}";
},
{
alignment = -1;
name = "";
transform = "{1, 0, 0, 1, 449, 300}";
},
{
alignment = -1;
name = "";
transform = "{1, 0, 0, 1, 449, 350}";
},
{
alignment = -1;
name = "";
transform = "{1, 0, 0, 1, 449, 400}";
},
{
alignment = -1;
name = "";
transform = "{1, 0, 0, 1, 449, 450}";
},
{
alignment = -1;
name = "";
transform = "{1, 0, 0, 1, 449, 500}";
},
{
alignment = -1;
name = "";
transform = "{1, 0, 0, 1, 499, 0}";
},
{
alignment = -1;
name = "";
transform = "{1, 0, 0, 1, 499, 50}";
},
{
alignment = -1;
name = "";
transform = "{1, 0, 0, 1, 499, 100}";
},
{
alignment = -1;
name = "";
transform = "{1, 0, 0, 1, 499, 150}";
},
{
alignment = -1;
name = "";
transform = "{1, 0, 0, 1, 499, 200}";
},
{
alignment = -1;
name = "";
transform = "{1, 0, 0, 1, 499, 250}";
},
{
alignment = -1;
name = "";
transform = "{1, 0, 0, 1, 499, 300}";
},
{
alignment = -1;
name = "";
transform = "{1, 0, 0, 1, 499, 350}";
}
);
paths = (
{
closed = 1;
nodes = (
"458 525 LINE",
"509 525 LINE",
"576 0 LINE",
"486 0 LINE",
"486 82 LINE",
"448 17 OFFCURVE",
"376 -14 OFFCURVE",
"296 -14 CURVE SMOOTH",
"134 -14 OFFCURVE",
"34 105 OFFCURVE",
"79 273 CURVE SMOOTH",
"118 419 OFFCURVE",
"205 525 OFFCURVE",
"296 525 CURVE SMOOTH",
"367 525 OFFCURVE",
"434 504 OFFCURVE",
"470 446 CURVE"
);
},
{
closed = 1;
nodes = (
"111 175 OFFCURVE",
"134 136 OFFCURVE",
"284 138 CURVE SMOOTH",
"465 140 OFFCURVE",
"469 170 OFFCURVE",
"469 299 CURVE SMOOTH",
"469 448 OFFCURVE",
"362 476 OFFCURVE",
"295 476 CURVE",
"234 476 OFFCURVE",
"175 434 OFFCURVE",
"141 296 CURVE SMOOTH"
);
}
);
};
hints = (
{
horizontal = 1;
origin = "{0, 8}";
target = "{1, 8}";
type = Stem;
},
{
horizontal = 1;
origin = "{1, 2}";
target = "{0, 2}";
type = Stem;
},
{
horizontal = 1;
origin = "{0, 12}";
target = "{1, 8}";
type = Stem;
},
{
place = "{59, 7}";
type = Stem;
}
);
layerId = "BA196CD0-EE58-4274-B8DF-4393D3617A29";
paths = (
{
closed = 1;
nodes = (
"518 504 OFFCURVE",
"425 525 OFFCURVE",
"354 525 CURVE SMOOTH",
"262 525 OFFCURVE",
"150 404 OFFCURVE",
"79 251 CURVE SMOOTH",
"9 101 OFFCURVE",
"82 -14 OFFCURVE",
"240 -14 CURVE SMOOTH",
"321 -14 OFFCURVE",
"402 17 OFFCURVE",
"458 82 CURVE",
"436 0 LINE",
"527 0 LINE",
"600 525 LINE",
"548 525 LINE",
"539 446 LINE"
);
},
{
closed = 1;
nodes = (
"230 374 OFFCURVE",
"301 450 OFFCURVE",
"362 450 CURVE SMOOTH",
"430 450 OFFCURVE",
"501 442 OFFCURVE",
"461 293 CURVE SMOOTH",
"426 164 OFFCURVE",
"414 132 OFFCURVE",
"231 132 CURVE SMOOTH",
"121 132 OFFCURVE",
"140 193 OFFCURVE",
"193 300 CURVE SMOOTH"
);
}
);
width = 663;
},
{
anchors = (
{
name = abovecomb;
position = "{493, 677}";
},
{
name = bottom;
position = "{305, -40}";
},
{
name = dotbelow;
position = "{264, -126}";
},
{
name = ogonek;
position = "{563, 0}";
},
{
name = top;
position = "{513, 668}";
}
);
background = {
components = (
{
alignment = -1;
name = "";
transform = "{1, 0, 0, 1, 49, 150}";
},
{
alignment = -1;
name = "";
transform = "{1, 0, 0, 1, 49, 200}";
},
{
alignment = -1;
name = "";
transform = "{1, 0, 0, 1, 99, 50}";
},
{
alignment = -1;
name = "";
transform = "{1, 0, 0, 1, 99, 100}";
},
{
alignment = -1;
name = "";
transform = "{1, 0, 0, 1, 99, 150}";
},
{
alignment = -1;
name = "";
transform = "{1, 0, 0, 1, 99, 200}";
},
{
alignment = -1;
name = "";
transform = "{1, 0, 0, 1, 99, 250}";
},
{
alignment = -1;
name = "";
transform = "{1, 0, 0, 1, 99, 300}";
},
{
alignment = -1;
name = "";
transform = "{1, 0, 0, 1, 99, 350}";
},
{
alignment = -1;
name = "";
transform = "{1, 0, 0, 1, 149, 0}";
},
{
alignment = -1;
name = "";
transform = "{1, 0, 0, 1, 149, 50}";
},
{
alignment = -1;
name = "";
transform = "{1, 0, 0, 1, 149, 100}";
},
{
alignment = -1;
name = "";
transform = "{1, 0, 0, 1, 149, 400}";
},
{
alignment = -1;
name = "";
transform = "{1, 0, 0, 1, 199, 0}";
},
{
alignment = -1;
name = "";
transform = "{1, 0, 0, 1, 199, 50}";
},
{
alignment = -1;
name = "";
transform = "{1, 0, 0, 1, 199, 100}";
},
{
alignment = -1;
name = "";
transform = "{1, 0, 0, 1, 199, 450}";
},
{
alignment = -1;
name = "";
transform = "{1, 0, 0, 1, 249, 0}";
},
{
alignment = -1;
name = "";
transform = "{1, 0, 0, 1, 249, 50}";
},
{
alignment = -1;
name = "";
transform = "{1, 0, 0, 1, 249, 100}";
},
{
alignment = -1;
name = "";
transform = "{1, 0, 0, 1, 249, 450}";
},
{
alignment = -1;
name = "";
transform = "{1, 0, 0, 1, 299, 0}";
},
{
alignment = -1;
name = "";
transform = "{1, 0, 0, 1, 299, 50}";
},
{
alignment = -1;
name = "";
transform = "{1, 0, 0, 1, 299, 100}";
},
{
alignment = -1;
name = "";
transform = "{1, 0, 0, 1, 299, 450}";
},
{
alignment = -1;
name = "";
transform = "{1, 0, 0, 1, 349, 0}";
},
{
alignment = -1;
name = "";
transform = "{1, 0, 0, 1, 349, 50}";
},
{
alignment = -1;
name = "";
transform = "{1, 0, 0, 1, 349, 100}";
},
{
alignment = -1;
name = "";
transform = "{1, 0, 0, 1, 349, 450}";
},
{
alignment = -1;
name = "";
transform = "{1, 0, 0, 1, 399, 0}";
},
{
alignment = -1;
name = "";
transform = "{1, 0, 0, 1, 399, 50}";
},
{
alignment = -1;
name = "";
transform = "{1, 0, 0, 1, 399, 100}";
},
{
alignment = -1;
name = "";
transform = "{1, 0, 0, 1, 399, 450}";
},
{
alignment = -1;
name = "";
transform = "{1, 0, 0, 1, 449, 50}";
},
{
alignment = -1;
name = "";
transform = "{1, 0, 0, 1, 449, 100}";
},
{
alignment = -1;
name = "";
transform = "{1, 0, 0, 1, 449, 150}";
},
{
alignment = -1;
name = "";
transform = "{1, 0, 0, 1, 449, 200}";
},
{
alignment = -1;
name = "";
transform = "{1, 0, 0, 1, 449, 250}";
},
{
alignment = -1;
name = "";
transform = "{1, 0, 0, 1, 449, 300}";
},
{
alignment = -1;
name = "";
transform = "{1, 0, 0, 1, 449, 350}";
},
{
alignment = -1;
name = "";
transform = "{1, 0, 0, 1, 449, 400}";
},
{
alignment = -1;
name = "";
transform = "{1, 0, 0, 1, 449, 450}";
},
{
alignment = -1;
name = "";
transform = "{1, 0, 0, 1, 449, 500}";
},
{
alignment = -1;
name = "";
transform = "{1, 0, 0, 1, 499, 0}";
},
{
alignment = -1;
name = "";
transform = "{1, 0, 0, 1, 499, 50}";
},
{
alignment = -1;
name = "";
transform = "{1, 0, 0, 1, 499, 100}";
},
{
alignment = -1;
name = "";
transform = "{1, 0, 0, 1, 499, 150}";
},
{
alignment = -1;
name = "";
transform = "{1, 0, 0, 1, 499, 200}";
},
{
alignment = -1;
name = "";
transform = "{1, 0, 0, 1, 499, 250}";
},
{
alignment = -1;
name = "";
transform = "{1, 0, 0, 1, 499, 300}";
},
{
alignment = -1;
name = "";
transform = "{1, 0, 0, 1, 499, 350}";
}
);
paths = (
{
closed = 1;
nodes = (
"458 525 LINE",
"509 525 LINE",
"576 0 LINE",
"486 0 LINE",
"486 82 LINE",
"448 17 OFFCURVE",
"376 -14 OFFCURVE",
"296 -14 CURVE SMOOTH",
"134 -14 OFFCURVE",
"34 105 OFFCURVE",
"79 273 CURVE SMOOTH",
"118 419 OFFCURVE",
"205 525 OFFCURVE",
"296 525 CURVE SMOOTH",
"367 525 OFFCURVE",
"434 504 OFFCURVE",
"470 446 CURVE"
);
},
{
closed = 1;
nodes = (
"111 175 OFFCURVE",
"134 136 OFFCURVE",
"284 138 CURVE SMOOTH",
"465 140 OFFCURVE",
"469 170 OFFCURVE",
"469 299 CURVE SMOOTH",
"469 448 OFFCURVE",
"362 476 OFFCURVE",
"295 476 CURVE",
"234 476 OFFCURVE",
"175 434 OFFCURVE",
"141 296 CURVE SMOOTH"
);
}
);
};
layerId = "BBDB329E-CE83-4304-A6B1-53EA5ACC004E";
paths = (
{
closed = 1;
nodes = (
"313 -21 OFFCURVE",
"375 -3 OFFCURVE",
"427 31 CURVE",
"416 -7 LINE",
"566 -7 LINE",
"646 552 LINE",
"535 552 LINE",
"535 520 LINE",
"504 541 OFFCURVE",
"460 552 OFFCURVE",
"407 552 CURVE SMOOTH",
"302 552 OFFCURVE",
"155 434 OFFCURVE",
"88 256 CURVE SMOOTH",
"39 125 OFFCURVE",
"76 -21 OFFCURVE",
"248 -21 CURVE SMOOTH"
);
},
{
closed = 1;
nodes = (
"169 165 OFFCURVE",
"163 178 OFFCURVE",
"221 290 CURVE SMOOTH",
"281 405 OFFCURVE",
"326 449 OFFCURVE",
"378 449 CURVE SMOOTH",
"474 449 OFFCURVE",
"513 396 OFFCURVE",
"487 299 CURVE SMOOTH",
"453 173 OFFCURVE",
"444 165 OFFCURVE",
"291 165 CURVE SMOOTH"
);
}
);
width = 663;
}
);
leftKerningGroup = Round;
unicode = 0061;
},
{
color = 7;
glyphname = b;
lastChange = "2019-09-25 14:24:54 +0000";
layers = (
{
anchors = (
{
name = _hook_top;
position = "{268, 778}";
},
{
name = bottom;
position = "{248, -37}";
},
{
name = center;
position = "{272, 650}";
},
{
name = top;
position = "{294, 874}";
},
{
name = top_hook;
position = "{253, 714}";
}
);
hints = (
{
place = "{28, -6}";
type = Stem;
}
);
layerId = "BA196CD0-EE58-4274-B8DF-4393D3617A29";
paths = (
{
closed = 1;
nodes = (
"410 -15 OFFCURVE",
"530 109 OFFCURVE",
"570 273 CURVE SMOOTH",
"613 447 OFFCURVE",
"545 557 OFFCURVE",
"412 552 CURVE SMOOTH",
"303 548 OFFCURVE",
"256 453 OFFCURVE",
"271 514 CURVE SMOOTH",
"356 852 LINE",
"241 852 LINE",
"174 489 OFFCURVE",
"83 144 OFFCURVE",
"92 99 CURVE",
"99 27 OFFCURVE",
"198 -15 OFFCURVE",
"276 -15 CURVE SMOOTH"
);
},
{
closed = 1;
nodes = (
"209 146 OFFCURVE",
"199 207 OFFCURVE",
"225 289 CURVE SMOOTH",
"258 394 OFFCURVE",
"330 468 OFFCURVE",
"426 468 CURVE SMOOTH",
"513 468 OFFCURVE",
"547 412 OFFCURVE",
"507 293 CURVE SMOOTH",
"473 191 OFFCURVE",
"422 152 OFFCURVE",
"340 146 CURVE"
);
}
);
width = 660;
},
{
anchors = (
{
name = _hook_top;
position = "{340, 778}";
},
{
name = bottom;
position = "{320, -37}";
},
{
name = center;
position = "{324, 619}";
},
{
name = top;
position = "{361, 862}";
},
{
name = top_hook;
position = "{321, 717}";
}
);
hints = (
{
place = "{100, 66}";
type = Stem;
}
);
layerId = "BBDB329E-CE83-4304-A6B1-53EA5ACC004E";
paths = (
{
closed = 1;
nodes = (
"491 -22 OFFCURVE",
"630 107 OFFCURVE",
"679 273 CURVE SMOOTH",
"727 435 OFFCURVE",
"647 559 OFFCURVE",
"501 559 CURVE SMOOTH",
"428 559 OFFCURVE",
"339 509 OFFCURVE",
"330 474 CURVE",
"423 820 LINE",
"271 820 LINE",
"204 447 OFFCURVE",
"127 145 OFFCURVE",
"136 89 CURVE",
"145 13 OFFCURVE",
"202 -22 OFFCURVE",
"340 -22 CURVE SMOOTH"
);
},
{
closed = 1;
nodes = (
"313 173 OFFCURVE",
"298 193 OFFCURVE",
"324 289 CURVE SMOOTH",
"349 383 OFFCURVE",
"413 441 OFFCURVE",
"491 441 CURVE SMOOTH",
"565 441 OFFCURVE",
"595 386 OFFCURVE",
"572 295 CURVE",
"540 216 OFFCURVE",
"493 179 OFFCURVE",
"418 173 CURVE"
);
}
);
width = 660;
}
);
rightKerningGroup = RoundRight;
unicode = 0062;
},
{
color = 7;
glyphname = c;
lastChange = "2019-10-03 23:07:23 +0000";
layers = (
{
anchors = (
{
name = bottom;
position = "{228, -53}";
},
{
name = top;
position = "{392, 547}";
},
{
name = top_hook;
position = "{470, 533}";
}
);
layerId = "BA196CD0-EE58-4274-B8DF-4393D3617A29";
paths = (
{
closed = 1;
nodes = (
"501 555 OFFCURVE",
"465 560 OFFCURVE",
"438 560 CURVE SMOOTH",
"266 560 OFFCURVE",
"127 451 OFFCURVE",
"79 273 CURVE SMOOTH",
"32 97 OFFCURVE",
"68 0 OFFCURVE",
"274 -14 CURVE SMOOTH",
"334 -18 OFFCURVE",
"392 -2 OFFCURVE",
"449 21 CURVE",
"375 135 LINE",
"253 73 OFFCURVE",
"155 143 OFFCURVE",
"180 273 CURVE",
"216 406 OFFCURVE",
"280 489 OFFCURVE",
"398 489 CURVE SMOOTH",
"427 489 OFFCURVE",
"472 487 OFFCURVE",
"501 477 CURVE",
"520 548 LINE"
);
}
);
width = 599;
},
{
anchors = (
{
name = bottom;
position = "{320, 0}";
},
{
name = top;
position = "{476, 606}";
},
{
name = top_hook;
position = "{545, 533}";
}
);
layerId = "BBDB329E-CE83-4304-A6B1-53EA5ACC004E";
paths = (
{
closed = 1;
nodes = (
"406 -26 OFFCURVE",
"478 -8 OFFCURVE",
"566 33 CURVE",
"464 191 LINE",
"352 119 OFFCURVE",
"261 177 OFFCURVE",
"282 274 CURVE",
"318 405 OFFCURVE",
"374 462 OFFCURVE",
"466 462 CURVE SMOOTH",
"506 462 OFFCURVE",
"540 458 OFFCURVE",
"594 440 CURVE",
"627 563 LINE",
"623 576 OFFCURVE",
"563 587 OFFCURVE",
"520 587 CURVE SMOOTH",
"332 587 OFFCURVE",
"172 466 OFFCURVE",
"127 273 CURVE SMOOTH",
"91 117 OFFCURVE",
"135 -6 OFFCURVE",
"339 -21 CURVE SMOOTH"
);
}
);
width = 599;
}
);
leftKerningGroup = Round;
unicode = 0063;
},
{
glyphname = ccurl;
lastChange = "2019-10-04 23:37:49 +0000";
layers = (
{
anchors = (
{
name = _curl;
position = "{178, 336}";
},
{
name = bottom;
position = "{320, 0}";
},
{
name = top;
position = "{465, 540}";
}
);
layerId = "BA196CD0-EE58-4274-B8DF-4393D3617A29";
paths = (
{
closed = 1;
nodes = (
"536 555 OFFCURVE",
"500 560 OFFCURVE",
"473 560 CURVE SMOOTH",
"301 560 OFFCURVE",
"162 451 OFFCURVE",
"114 273 CURVE SMOOTH",
"67 97 OFFCURVE",
"101 -14 OFFCURVE",
"309 -14 CURVE SMOOTH",
"435 -14 OFFCURVE",
"594 83 OFFCURVE",
"621 183 CURVE SMOOTH",
"632 223 OFFCURVE",
"621 263 OFFCURVE",
"580 298 CURVE SMOOTH",
"551 323 OFFCURVE",
"518 334 OFFCURVE",
"487 334 CURVE SMOOTH",
"411 334 OFFCURVE",
"341 269 OFFCURVE",
"316 176 CURVE SMOOTH",
"279 40 OFFCURVE",
"248 -79 OFFCURVE",
"215 -200 CURVE",
"327 -200 LINE",
"343 -137 OFFCURVE",
"356 -75 OFFCURVE",
"369 -10 CURVE SMOOTH",
"379 42 OFFCURVE",
"389 95 OFFCURVE",
"405 152 CURVE SMOOTH",
"422 213 OFFCURVE",
"449 239 OFFCURVE",
"477 239 CURVE SMOOTH",
"491 239 OFFCURVE",
"505 233 OFFCURVE",
"518 220 CURVE SMOOTH",
"524 214 OFFCURVE",
"525 206 OFFCURVE",
"523 197 CURVE SMOOTH",
"514 157 OFFCURVE",
"426 97 OFFCURVE",
"313 97 CURVE SMOOTH",
"201 97 OFFCURVE",
"197 203 OFFCURVE",
"215 273 CURVE",
"251 406 OFFCURVE",
"315 489 OFFCURVE",
"433 489 CURVE SMOOTH",
"462 489 OFFCURVE",
"507 487 OFFCURVE",
"536 477 CURVE",
"555 548 LINE"
);
}
);
width = 693;
},
{
anchors = (
{
name = _curl;
position = "{117, 269}";
},
{
name = bottom;
position = "{320, 0}";
},
{
name = top;
position = "{465, 540}";
}
);
layerId = "BBDB329E-CE83-4304-A6B1-53EA5ACC004E";
paths = (
{
closed = 1;
nodes = (
"573 576 OFFCURVE",
"513 587 OFFCURVE",
"470 587 CURVE SMOOTH",
"282 587 OFFCURVE",
"128 464 OFFCURVE",
"77 273 CURVE SMOOTH",
"20 60 OFFCURVE",
"87 -41 OFFCURVE",
"292 -41 CURVE SMOOTH",
"435 -41 OFFCURVE",
"607 69 OFFCURVE",
"638 183 CURVE SMOOTH",
"652 235 OFFCURVE",
"636 283 OFFCURVE",
"591 320 CURVE SMOOTH",
"560 345 OFFCURVE",
"522 361 OFFCURVE",
"484 361 CURVE SMOOTH",
"393 361 OFFCURVE",
"308 284 OFFCURVE",
"279 176 CURVE SMOOTH",
"240 30 OFFCURVE",
"206 -97 OFFCURVE",
"171 -227 CURVE",
"337 -227 LINE",
"357 -154 OFFCURVE",
"372 -82 OFFCURVE",
"387 -8 CURVE SMOOTH",
"397 43 OFFCURVE",
"407 96 OFFCURVE",
"422 152 CURVE SMOOTH",
"433 192 OFFCURVE",
"448 212 OFFCURVE",
"459 212 CURVE SMOOTH",
"467 212 OFFCURVE",
"475 208 OFFCURVE",
"486 198 CURVE",
"488 197 OFFCURVE",
"487 202 OFFCURVE",
"486 197 CURVE SMOOTH",
"479 164 OFFCURVE",
"386 124 OFFCURVE",
"310 124 CURVE SMOOTH",
"239 124 OFFCURVE",
"209 182 OFFCURVE",
"232 273 CURVE",
"268 405 OFFCURVE",
"324 462 OFFCURVE",
"416 462 CURVE SMOOTH",
"456 462 OFFCURVE",
"490 458 OFFCURVE",
"544 440 CURVE",
"577 563 LINE"
);
}
);
width = 693;
}
);
unicode = 0255;
},
{
color = 7;
glyphname = d;
lastChange = "2019-10-05 00:26:24 +0000";
layers = (
{
anchors = (
{
name = bottom;
position = "{183, -115}";
},
{
name = bottom_hook;
position = "{452, 27}";
},
{
name = center;
position = "{374, 273}";
},
{
name = circumflexbelow;
position = "{178, -105}";
},
{
name = croat;
position = "{654, 678}";
},
{
name = dotbelow;
position = "{176, -104}";
},
{
name = ezh;
position = "{628, 604}";
},
{
name = right;
position = "{740, 670}";
},
{
name = right_el;
position = "{749, 526}";
},
{
name = top;
position = "{379, 560}";
},
{
name = top_hook;
position = "{681, 753}";
},
{
name = topright;
position = "{703, 500}";
}
);
layerId = "BA196CD0-EE58-4274-B8DF-4393D3617A29";
paths = (
{
closed = 1;
nodes = (
"504 505 OFFCURVE",
"453 536 OFFCURVE",
"373 536 CURVE SMOOTH",
"239 536 OFFCURVE",
"116 421 OFFCURVE",
"76 273 CURVE SMOOTH",
"30 101 OFFCURVE",
"65 -19 OFFCURVE",
"225 -14 CURVE SMOOTH",
"307 -11 OFFCURVE",
"373 17 OFFCURVE",
"428 82 CURVE",
"406 0 LINE",
"501 -2 LINE",
"553 235 LINE",
"748 852 LINE",
"657 852 LINE",
"524 440 LINE"
);
},
{
closed = 1;
nodes = (
"173 391 OFFCURVE",
"252 471 OFFCURVE",
"349 471 CURVE SMOOTH",
"445 471 OFFCURVE",
"472 398 OFFCURVE",
"443 290 CURVE SMOOTH",
"411 169 OFFCURVE",
"356 149 OFFCURVE",
"260 149 CURVE SMOOTH",
"164 149 OFFCURVE",
"119 188 OFFCURVE",
"144 283 CURVE SMOOTH"
);
}
);
width = 673;
},
{
anchors = (
{
name = bottom;
position = "{215, -42}";
},
{
name = bottom_hook;
position = "{455, 27}";
},
{
name = center;
position = "{377, 273}";
},
{
name = circumflexbelow;
position = "{225, -74}";
},
{
name = croat;
position = "{632, 624}";
},
{
name = dotbelow;
position = "{207, -71}";
},
{
name = ezh;
position = "{631, 601}";
},
{
name = right;
position = "{743, 674}";
},
{
name = right_el;
position = "{752, 526}";
},
{
name = top;
position = "{382, 560}";
},
{
name = top_hook;
position = "{654, 700}";
},
{
name = topright;
position = "{706, 500}";
}
);
layerId = "BBDB329E-CE83-4304-A6B1-53EA5ACC004E";
paths = (
{
closed = 1;
nodes = (
"491 546 OFFCURVE",
"445 563 OFFCURVE",
"383 563 CURVE SMOOTH",
"237 563 OFFCURVE",
"100 437 OFFCURVE",
"52 273 CURVE SMOOTH",
"-4 87 OFFCURVE",
"58 -28 OFFCURVE",
"222 -23 CURVE SMOOTH",
"284 -21 OFFCURVE",
"337 3 OFFCURVE",
"384 44 CURVE",
"384 0 LINE",
"525 0 LINE",
"583 235 LINE",
"767 827 LINE",
"621 827 LINE",
"522 512 LINE"
);
},
{
closed = 1;
nodes = (
"201 382 OFFCURVE",
"268 444 OFFCURVE",
"345 444 CURVE SMOOTH",
"420 444 OFFCURVE",
"446 391 OFFCURVE",
"419 290 CURVE SMOOTH",
"394 197 OFFCURVE",
"365 176 OFFCURVE",
"270 176 CURVE SMOOTH",
"183 176 OFFCURVE",
"155 209 OFFCURVE",
"175 283 CURVE SMOOTH"
);
}
);
width = 673;
}
);
leftKerningGroup = Round;
unicode = 0064;
},
{
glyphname = dzaltone;
lastChange = "2019-09-05 22:37:16 +0000";
layers = (
{
components = (
{
name = d;
},
{
name = z;
transform = "{1, 0, 0, 1, 497, -13}";
}
);
layerId = "BA196CD0-EE58-4274-B8DF-4393D3617A29";
paths = (
{
closed = 1;
nodes = (
"650 469 LINE",
"856 469 LINE",
"874 536 LINE",
"668 536 LINE"
);
}
);
width = 1179;
},
{
components = (
{
name = d;
},
{
name = z;
transform = "{1, 0, 0, 1, 497, -13}";
}
);
layerId = "BBDB329E-CE83-4304-A6B1-53EA5ACC004E";
paths = (
{
closed = 1;
nodes = (
"615 442 LINE",
"876 442 LINE",
"908 563 LINE",
"648 563 LINE"
);
}
);
width = 1179;
}
);
unicode = 02A3;
},
{
glyphname = dzcurl;
lastChange = "2019-09-05 22:37:16 +0000";
layers = (
{
components = (
{
name = d;
},
{
name = zcurl;
transform = "{1, 0, 0, 1, 508, -1}";
}
);
layerId = "BA196CD0-EE58-4274-B8DF-4393D3617A29";
paths = (
{
closed = 1;
nodes = (
"655 481 LINE",
"866 481 LINE",
"884 548 LINE",
"673 548 LINE"
);
}
);
width = 1241;
},
{
components = (
{
name = d;
},
{
name = zcurl;
transform = "{1, 0, 0, 1, 508, -1}";
}
);
layerId = "BBDB329E-CE83-4304-A6B1-53EA5ACC004E";
paths = (
{
closed = 1;
nodes = (
"621 454 LINE",
"886 454 LINE",
"919 575 LINE",
"653 575 LINE"
);
}
);
width = 1241;
}
);
unicode = 02A5;
},
{
color = 7;
glyphname = e;
lastChange = "2019-10-05 00:27:02 +0000";
layers = (
{
anchors = (
{
name = _hook;
position = "{426, 539}";
},
{
name = bottom;
position = "{253, -51}";
},
{
name = center;
position = "{115, 315}";
},
{
name = dotbelow;
position = "{266, -63}";
},
{
name = ogonek;
position = "{413, 56}";
},
{
name = righthook;
position = "{579, 274}";
},
{
name = top;
position = "{445, 688}";
}
);
layerId = "BA196CD0-EE58-4274-B8DF-4393D3617A29";
paths = (
{
closed = 1;
nodes = (
"538 554 OFFCURVE",
"428 563 CURVE",
"261 563 OFFCURVE",
"133 447 OFFCURVE",
"78 268 CURVE",
"31 95 OFFCURVE",
"113 -14 OFFCURVE",
"289 -14 CURVE SMOOTH",
"361 -14 OFFCURVE",
"430 0 OFFCURVE",
"503 28 CURVE",
"536 178 LINE",
"450 145 OFFCURVE",
"404 116 OFFCURVE",
"328 112 CURVE SMOOTH",
"187 105 OFFCURVE",
"139 192 OFFCURVE",
"165 287 CURVE",
"589 315 LINE",
"605 496 OFFCURVE"
);
},
{
closed = 1;
nodes = (
"229 431 OFFCURVE",
"314 498 OFFCURVE",
"415 498 CURVE SMOOTH",
"505 498 OFFCURVE",
"534 446 OFFCURVE",
"528 385 CURVE",
"211 365 LINE"
);
}
);
width = 661;
},
{
anchors = (
{
name = _hook;
position = "{498, 529}";
},
{
name = bottom;
position = "{339, -75}";
},
{
name = center;
position = "{190, 267}";
},
{
name = dotbelow;
position = "{348, -22}";
},
{
name = ogonek;
position = "{436, -7}";
},
{
name = righthook;
position = "{654, 274}";
},
{
name = top;
position = "{528, 677}";
}
);
layerId = "BBDB329E-CE83-4304-A6B1-53EA5ACC004E";
paths = (
{
closed = 1;
nodes = (
"713 483 OFFCURVE",
"660 575 OFFCURVE",
"512 587 CURVE",
"510 587 LINE SMOOTH",
"332 587 OFFCURVE",
"186 466 OFFCURVE",
"126 269 CURVE",
"125 268 LINE SMOOTH",
"75 80 OFFCURVE",
"166 -41 OFFCURVE",
"357 -41 CURVE SMOOTH",
"436 -41 OFFCURVE",
"516 -24 OFFCURVE",
"601 11 CURVE",
"650 195 LINE",
"540 145 OFFCURVE",
"499 150 OFFCURVE",
"409 146 CURVE SMOOTH",
"306 142 OFFCURVE",
"253 186 OFFCURVE",
"262 262 CURVE",
"689 290 LINE"
);
},
{
closed = 1;
nodes = (
"335 429 OFFCURVE",
"389 496 OFFCURVE",
"483 496 CURVE SMOOTH",
"556 496 OFFCURVE",
"574 455 OFFCURVE",
"583 411 CURVE",
"306 382 LINE"
);
}
);
width = 661;
}
);
leftKerningGroup = Round;
unicode = 0065;
},
{
glyphname = eopen;
lastChange = "2019-10-03 23:06:15 +0000";
layers = (
{
anchors = (
{
name = top;
position = "{336, 582}";
}
);
layerId = "BA196CD0-EE58-4274-B8DF-4393D3617A29";
paths = (
{
closed = 1;
nodes = (
"225 -12 OFFCURVE",
"397 17 OFFCURVE",
"385 189 CURVE",
"302 182 LINE",
"301 79 OFFCURVE",
"249 78 OFFCURVE",
"200 79 CURVE SMOOTH",
"131 80 OFFCURVE",
"116 120 OFFCURVE",
"128 165 CURVE",
"140 210 OFFCURVE",
"188 242 OFFCURVE",
"262 242 CURVE SMOOTH",
"285 242 LINE",
"287 295 LINE",
"264 295 LINE",
"197 295 OFFCURVE",
"155 314 OFFCURVE",
"171 377 CURVE SMOOTH",
"185 431 OFFCURVE",
"249 456 OFFCURVE",
"318 456 CURVE SMOOTH",
"354 456 OFFCURVE",
"390 438 OFFCURVE",
"373 379 CURVE",
"421 388 LINE",
"444 476 OFFCURVE",
"363 500 OFFCURVE",
"323 500 CURVE SMOOTH",
"220 500 OFFCURVE",
"143 451 OFFCURVE",
"122 372 CURVE SMOOTH",
"108 318 OFFCURVE",
"126 286 OFFCURVE",
"184 263 CURVE",
"102 252 OFFCURVE",
"67 210 OFFCURVE",
"50 147 CURVE SMOOTH",
"21 40 OFFCURVE",
"89 -12 OFFCURVE",
"182 -12 CURVE SMOOTH"
);
}
);
width = 497;
},
{
anchors = (
{
name = top;
position = "{395, 520}";
}
);
layerId = "BBDB329E-CE83-4304-A6B1-53EA5ACC004E";
paths = (
{
closed = 1;
nodes = (
"293 -26 OFFCURVE",
"491 7 OFFCURVE",
"469 204 CURVE",
"357 195 LINE",
"359 93 OFFCURVE",
"326 92 OFFCURVE",
"273 93 CURVE SMOOTH",
"222 94 OFFCURVE",
"200 120 OFFCURVE",
"212 165 CURVE SMOOTH",
"222 204 OFFCURVE",
"266 228 OFFCURVE",
"329 228 CURVE SMOOTH",
"369 228 LINE",
"373 309 LINE",
"337 309 LINE SMOOTH",
"268 309 OFFCURVE",
"243 330 OFFCURVE",
"256 377 CURVE SMOOTH",
"266 417 OFFCURVE",
"314 442 OFFCURVE",
"384 442 CURVE SMOOTH",
"430 442 OFFCURVE",
"444 413 OFFCURVE",
"422 361 CURVE",
"502 376 LINE",
"539 485 OFFCURVE",
"441 514 OFFCURVE",
"396 514 CURVE SMOOTH",
"285 514 OFFCURVE",
"201 459 OFFCURVE",
"177 372 CURVE SMOOTH",
"165 325 OFFCURVE",
"175 291 OFFCURVE",
"211 267 CURVE",
"157 249 OFFCURVE",
"123 210 OFFCURVE",
"106 147 CURVE SMOOTH",
"78 43 OFFCURVE",
"134 -26 OFFCURVE",
"249 -26 CURVE SMOOTH"
);
}
);
width = 497;
}
);
unicode = 025B;
},
{
glyphname = eopenreversedclosed;
lastChange = "2019-09-05 22:37:16 +0000";
layers = (
{
layerId = "BA196CD0-EE58-4274-B8DF-4393D3617A29";
paths = (
{
closed = 1;
nodes = (
"113 119 OFFCURVE",
"149 -4 OFFCURVE",
"327 -12 CURVE SMOOTH",
"419 -16 OFFCURVE",
"516 40 OFFCURVE",
"544 147 CURVE SMOOTH",
"561 210 OFFCURVE",
"549 252 OFFCURVE",
"472 263 CURVE",
"568 290 OFFCURVE",
"579 318 OFFCURVE",
"594 372 CURVE SMOOTH",
"615 451 OFFCURVE",
"564 500 OFFCURVE",
"461 500 CURVE SMOOTH",
"261 500 OFFCURVE",
"180 369 OFFCURVE",
"148 249 CURVE SMOOTH"
);
},
{
closed = 1;
nodes = (
"236 346 OFFCURVE",
"315 456 OFFCURVE",
"442 456 CURVE SMOOTH",
"511 456 OFFCURVE",
"561 431 OFFCURVE",
"546 377 CURVE SMOOTH",
"530 314 OFFCURVE",
"477 295 OFFCURVE",
"410 295 CURVE SMOOTH",
"387 295 LINE",
"361 242 LINE",
"383 242 LINE SMOOTH",
"458 243 OFFCURVE",
"489 210 OFFCURVE",
"476 165 CURVE SMOOTH",
"464 120 OFFCURVE",
"427 79 OFFCURVE",
"359 79 CURVE SMOOTH",
"207 79 OFFCURVE",
"195 194 OFFCURVE",
"211 252 CURVE SMOOTH"
);
}
);
width = 586;
},
{
layerId = "BBDB329E-CE83-4304-A6B1-53EA5ACC004E";
paths = (
{
closed = 1;
nodes = (
"75 79 OFFCURVE",
"150 -31 OFFCURVE",
"319 -39 CURVE SMOOTH",
"436 -44 OFFCURVE",
"541 33 OFFCURVE",
"572 147 CURVE SMOOTH",
"587 203 OFFCURVE",
"579 243 OFFCURVE",
"548 266 CURVE",
"587 289 OFFCURVE",
"607 319 OFFCURVE",
"621 372 CURVE SMOOTH",
"646 467 OFFCURVE",
"586 527 OFFCURVE",
"468 527 CURVE SMOOTH",
"292 527 OFFCURVE",
"168 428 OFFCURVE",
"120 249 CURVE SMOOTH"
);
},
{
closed = 1;
nodes = (
"267 358 OFFCURVE",
"344 429 OFFCURVE",
"435 429 CURVE SMOOTH",
"498 429 OFFCURVE",
"527 408 OFFCURVE",
"519 377 CURVE SMOOTH",
"509 338 OFFCURVE",
"480 322 OFFCURVE",
"418 322 CURVE SMOOTH",
"372 322 LINE",
"319 215 LINE",
"376 215 LINE SMOOTH",
"432 216 OFFCURVE",
"458 196 OFFCURVE",
"449 165 CURVE SMOOTH",
"439 127 OFFCURVE",
"411 106 OFFCURVE",
"366 106 CURVE SMOOTH",
"269 106 OFFCURVE",
"216 168 OFFCURVE",
"238 252 CURVE SMOOTH"
);
}
);
width = 586;
}
);
unicode = 025E;
},
{
glyphname = esh;
lastChange = "2019-09-18 20:30:11 +0000";
layers = (
{
layerId = "BA196CD0-EE58-4274-B8DF-4393D3617A29";
paths = (
{
closed = 1;
nodes = (
"1016 879 OFFCURVE",
"981 886 OFFCURVE",
"940 886 CURVE SMOOTH",
"828 886 OFFCURVE",
"729 811 OFFCURVE",
"670 677 CURVE SMOOTH",
"556 416 LINE",
"433 121 LINE",
"375 -1 OFFCURVE",
"327 -46 OFFCURVE",
"256 -46 CURVE SMOOTH",
"219 -46 OFFCURVE",
"188 -34 OFFCURVE",
"156 -10 CURVE",
"-6 -84 LINE",
"25 -176 OFFCURVE",
"141 -208 OFFCURVE",
"183 -208 CURVE SMOOTH",
"313 -208 OFFCURVE",
"406 -217 OFFCURVE",
"554 148 CURVE SMOOTH",
"662 416 LINE",
"774 678 LINE SMOOTH",
"816 775 OFFCURVE",
"871 818 OFFCURVE",
"944 818 CURVE SMOOTH",
"976 818 OFFCURVE",
"1002 808 OFFCURVE",
"1025 786 CURVE",
"1047 866 LINE"
);
}
);
width = 868;
},
{
layerId = "BBDB329E-CE83-4304-A6B1-53EA5ACC004E";
paths = (
{
closed = 1;
nodes = (
"984 778 OFFCURVE",
"945 787 OFFCURVE",
"900 787 CURVE SMOOTH",
"786 787 OFFCURVE",
"684 710 OFFCURVE",
"627 579 CURVE SMOOTH",
"526 348 LINE",
"417 88 LINE",
"373 -8 OFFCURVE",
"340 -38 OFFCURVE",
"293 -38 CURVE SMOOTH",
"264 -38 OFFCURVE",
"238 -27 OFFCURVE",
"209 -2 CURVE",
"21 -86 LINE",
"37 -198 OFFCURVE",
"170 -235 OFFCURVE",
"215 -235 CURVE SMOOTH",
"329 -235 OFFCURVE",
"434 -245 OFFCURVE",
"576 103 CURVE SMOOTH",
"672 340 LINE",
"771 572 LINE SMOOTH",
"802 643 OFFCURVE",
"837 673 OFFCURVE",
"887 673 CURVE SMOOTH",
"926 673 OFFCURVE",
"945 657 OFFCURVE",
"978 611 CURVE",
"1018 760 LINE"
);
}
);
width = 868;
}
);
unicode = 0283;
},
{
glyphname = ezh;
lastChange = "2019-09-05 22:37:16 +0000";
layers = (
{
anchors = (
{
name = _ezh;
position = "{263, 623}";
},
{
name = bottom;
position = "{351, 0}";
},
{
name = top;
position = "{526, 693}";
}
);
layerId = "BA196CD0-EE58-4274-B8DF-4393D3617A29";
paths = (
{
closed = 1;
nodes = (
"574 406 OFFCURVE",
"605 427 OFFCURVE",
"723 527 CURVE",
"734 598 OFFCURVE",
"736 598 OFFCURVE",
"742 667 CURVE",
"663 671 OFFCURVE",
"362 667 OFFCURVE",
"263 667 CURVE",
"237 573 LINE",
"386 572 OFFCURVE",
"522 572 OFFCURVE",
"636 573 CURVE",
"513 468 OFFCURVE",
"448 430 OFFCURVE",
"306 325 CURVE",
"281 232 LINE",
"426 245 OFFCURVE",
"531 205 OFFCURVE",
"517 126 CURVE",
"480 -23 OFFCURVE",
"322 -111 OFFCURVE",
"216 27 CURVE",
"60 -77 LINE",
"155 -202 OFFCURVE",
"282 -200 OFFCURVE",
"315 -200 CURVE SMOOTH",
"531 -200 OFFCURVE",
"608 -57 OFFCURVE",
"638 107 CURVE SMOOTH",
"655 203 OFFCURVE",
"576 305 OFFCURVE",
"457 314 CURVE"
);
}
);
width = 693;
},
{
anchors = (
{
name = _ezh;
position = "{263, 623}";
},
{
name = bottom;
position = "{351, 0}";
},
{
name = top;
position = "{526, 693}";
}
);
layerId = "BBDB329E-CE83-4304-A6B1-53EA5ACC004E";
paths = (
{
closed = 1;
nodes = (
"600 395 OFFCURVE",
"638 423 OFFCURVE",
"738 509 CURVE",
"751 530 LINE",
"757 572 OFFCURVE",
"764 602 OFFCURVE",
"771 672 CURVE",
"751 694 LINE",
"660 699 OFFCURVE",
"287 693 OFFCURVE",
"243 694 CURVE",
"203 546 LINE",
"334 545 OFFCURVE",
"458 545 OFFCURVE",
"566 546 CURVE",
"474 472 OFFCURVE",
"408 431 OFFCURVE",
"282 337 CURVE",
"246 202 LINE",
"397 222 OFFCURVE",
"499 186 OFFCURVE",
"489 124 CURVE",
"451 -26 OFFCURVE",
"309 -65 OFFCURVE",
"228 64 CURVE",
"20 -75 LINE",
"122 -229 OFFCURVE",
"273 -227 OFFCURVE",
"308 -227 CURVE SMOOTH",
"506 -227 OFFCURVE",
"625 -114 OFFCURVE",
"666 109 CURVE SMOOTH",
"684 207 OFFCURVE",
"617 301 OFFCURVE",
"518 331 CURVE"
);
}
);
width = 693;
}
);
unicode = 0292;
},
{
color = 7;
glyphname = f;
lastChange = "2019-09-25 14:24:54 +0000";
layers = (
{
anchors = (
{
name = bottom;
position = "{173, 0}";
},
{
name = center;
position = "{246, 263}";
},
{
name = top;
position = "{388, 800}";
}
);
layerId = "BA196CD0-EE58-4274-B8DF-4393D3617A29";
paths = (
{
closed = 1;
nodes = (
"365 787 OFFCURVE",
"296 775 OFFCURVE",
"238 561 CURVE",
"156 560 LINE",
"133 471 LINE",
"214 472 LINE",
"76 -1 LINE",
"208 -1 LINE",
"315 472 LINE",
"460 472 LINE",
"484 561 LINE",
"327 559 LINE",
"328 598 OFFCURVE",
"387 720 OFFCURVE",
"451 720 CURVE SMOOTH",
"521 720 LINE",
"541 802 LINE",
"460 795 LINE SMOOTH"
);
}
);
width = 489;
},
{
anchors = (
{
name = bottom;
position = "{244, 0}";
},
{
name = center;
position = "{310, 265}";
},
{
name = top;
position = "{459, 800}";
}
);
hints = (
{
horizontal = 1;
origin = "{0, 6}";
target = up;
type = BottomGhost;
},
{
horizontal = 1;
origin = "{0, 3}";
target = "{0, 4}";
type = Stem;
},
{
horizontal = 1;
origin = "{0, 14}";
target = "{0, 17}";
type = Stem;
}
);
layerId = "BBDB329E-CE83-4304-A6B1-53EA5ACC004E";
paths = (
{
closed = 1;
nodes = (
"407 820 OFFCURVE",
"342 758 OFFCURVE",
"289 574 CURVE",
"207 574 LINE",
"169 431 LINE",
"250 431 LINE",
"112 0 LINE",
"300 0 LINE",
"407 431 LINE",
"551 431 LINE",
"589 574 LINE",
"427 574 LINE",
"433 618 OFFCURVE",
"452 693 OFFCURVE",
"503 693 CURVE SMOOTH",
"612 693 LINE",
"646 824 LINE",
"538 824 LINE SMOOTH"
);
}
);
width = 489;
}
);
unicode = 0066;
},
{
color = 7;
glyphname = g;
lastChange = "2019-09-25 15:00:03 +0000";
layers = (
{
anchors = (
{
name = bottom;
position = "{166, -261}";
},
{
name = comma;
position = "{172, -262}";
},
{
name = top;
position = "{445, 606}";
},
{
name = top_hook;
position = "{532, 353}";
}
);
layerId = "BA196CD0-EE58-4274-B8DF-4393D3617A29";
paths = (
{
closed = 1;
nodes = (
"359 -261 OFFCURVE",
"474 -154 OFFCURVE",
"534 69 CURVE SMOOTH",
"663 547 LINE",
"572 547 LINE",
"532 487 LINE",
"488 528 OFFCURVE",
"455 560 OFFCURVE",
"389 564 CURVE SMOOTH",
"254 572 OFFCURVE",
"123 459 OFFCURVE",
"78 290 CURVE SMOOTH",
"33 121 OFFCURVE",
"104 0 OFFCURVE",
"239 0 CURVE SMOOTH",
"320 0 OFFCURVE",
"401 45 OFFCURVE",
"427 72 CURVE",
"401 15 LINE",
"370 -50 OFFCURVE",
"263 -110 OFFCURVE",
"228 -115 CURVE SMOOTH",
"168 -124 OFFCURVE",
"93 -111 OFFCURVE",
"47 -82 CURVE",
"-25 -214 LINE",
"29 -245 OFFCURVE",
"122 -261 OFFCURVE",
"186 -261 CURVE SMOOTH"
);
},
{
closed = 1;
nodes = (
"167 147 OFFCURVE",
"125 160 OFFCURVE",
"164 285 CURVE SMOOTH",
"199 396 OFFCURVE",
"259 480 OFFCURVE",
"353 480 CURVE SMOOTH",
"437 480 OFFCURVE",
"488 416 OFFCURVE",
"453 285 CURVE SMOOTH",
"418 156 OFFCURVE",
"352 145 OFFCURVE",
"254 146 CURVE SMOOTH"
);
}
);
width = 666;
},
{
anchors = (
{
name = bottom;
position = "{234, -261}";
},
{
name = comma;
position = "{240, -262}";
},
{
name = top;
position = "{503, 596}";
},
{
name = top_hook;
position = "{628, 353}";
}
);
layerId = "BBDB329E-CE83-4304-A6B1-53EA5ACC004E";
paths = (
{
closed = 1;
nodes = (
"411 -278 OFFCURVE",
"537 -163 OFFCURVE",
"609 68 CURVE SMOOTH",
"767 574 LINE",
"627 574 LINE",
"599 523 LINE",
"579 556 OFFCURVE",
"530 597 OFFCURVE",
"464 597 CURVE SMOOTH",
"313 597 OFFCURVE",
"178 463 OFFCURVE",
"129 280 CURVE SMOOTH",
"80 97 OFFCURVE",
"148 -26 OFFCURVE",
"300 -26 CURVE SMOOTH",
"381 -26 OFFCURVE",
"435 29 OFFCURVE",
"420 13 CURVE SMOOTH",
"466 55 LINE",
"422 -37 OFFCURVE",
"333 -130 OFFCURVE",
"258 -130 CURVE SMOOTH",
"202 -130 OFFCURVE",
"160 -99 OFFCURVE",
"110 -61 CURVE",
"7 -217 LINE",
"61 -255 OFFCURVE",
"147 -278 OFFCURVE",
"227 -278 CURVE SMOOTH"
);
},
{
closed = 1;
nodes = (
"234 173 OFFCURVE",
"222 185 OFFCURVE",
"239 286 CURVE",
"270 401 OFFCURVE",
"333 463 OFFCURVE",
"414 463 CURVE SMOOTH",
"496 463 OFFCURVE",
"524 400 OFFCURVE",
"493 285 CURVE SMOOTH",
"469 192 OFFCURVE",
"439 173 OFFCURVE",
"329 173 CURVE SMOOTH"
);
}
);
width = 666;
}
);
unicode = 0067;
},
{
glyphname = "gamma-latin";
lastChange = "2019-09-05 22:37:16 +0000";
layers = (
{
layerId = "BA196CD0-EE58-4274-B8DF-4393D3617A29";
paths = (
{
closed = 1;
nodes = (
"313 481 CURVE SMOOTH",
"304 493 OFFCURVE",
"301 500 OFFCURVE",
"293 515 CURVE",
"203 455 LINE",
"210 443 OFFCURVE",
"208 442 OFFCURVE",
"215 435 CURVE SMOOTH",
"526 41 OFFCURVE",
"449 -103 OFFCURVE",
"325 -100 CURVE SMOOTH",
"167 -96 OFFCURVE",
"246 74 OFFCURVE",
"727 427 CURVE SMOOTH",
"736 433 OFFCURVE",
"741 439 OFFCURVE",
"750 448 CURVE",
"692 515 LINE",
"681 505 OFFCURVE",
"672 495 OFFCURVE",
"660 485 CURVE SMOOTH",
"199 94 OFFCURVE",
"-93 -193 OFFCURVE",
"302 -197 CURVE SMOOTH",
"629 -200 OFFCURVE",
"602 88 OFFCURVE"
);
}
);
width = 711;
},
{
layerId = "BBDB329E-CE83-4304-A6B1-53EA5ACC004E";
paths = (
{
closed = 1;
nodes = (
"640 -227 OFFCURVE",
"656 67 OFFCURVE",
"337 500 CURVE SMOOTH",
"327 514 OFFCURVE",
"325 520 OFFCURVE",
"307 553 CURVE",
"165 459 LINE",
"174 444 OFFCURVE",
"184 423 OFFCURVE",
"191 415 CURVE",
"415 131 OFFCURVE",
"467 -76 OFFCURVE",
"333 -73 CURVE SMOOTH",
"193 -69 OFFCURVE",
"344 117 OFFCURVE",
"740 407 CURVE",
"749 413 OFFCURVE",
"760 424 OFFCURVE",
"788 451 CURVE",
"702 552 LINE",
"672 532 OFFCURVE",
"660 516 OFFCURVE",
"645 503 CURVE SMOOTH",
"182 111 OFFCURVE",
"-154 -219 OFFCURVE",
"294 -224 CURVE SMOOTH"
);
}
);
width = 711;
}
);
unicode = 0263;
},
{
glyphname = glottalstop;
lastChange = "2019-10-05 00:59:54 +0000";
layers = (
{
anchors = (
{
name = center;
position = "{193, 236}";
}
);
layerId = "BA196CD0-EE58-4274-B8DF-4393D3617A29";
paths = (
{
closed = 1;
nodes = (
"139 44 OFFCURVE",
"193 57 OFFCURVE",
"195 65 CURVE",
"204 99 OFFCURVE",
"264 318 OFFCURVE",
"277 363 CURVE SMOOTH",
"290 408 OFFCURVE",
"455 417 OFFCURVE",
"496 592 CURVE SMOOTH",
"515 674 OFFCURVE",
"502 742 OFFCURVE",
"412 763 CURVE SMOOTH",
"343 779 OFFCURVE",
"176 752 OFFCURVE",
"141 621 CURVE",
"182 621 OFFCURVE",
"197 621 OFFCURVE",
"235 621 CURVE",
"255 696 OFFCURVE",
"307 707 OFFCURVE",
"380 692 CURVE SMOOTH",
"428 682 OFFCURVE",
"440 640 OFFCURVE",
"424 580 CURVE SMOOTH",
"403 500 OFFCURVE",
"276 481 OFFCURVE",
"229 430 CURVE SMOOTH",
"187 384 OFFCURVE",
"180 368 OFFCURVE",
"163 303 CURVE SMOOTH",
"150 252 OFFCURVE",
"98 70 OFFCURVE",
"88 32 CURVE"
);
}
);
width = 483;
},
{
anchors = (
{
name = center;
position = "{215, 209}";
}
);
layerId = "BBDB329E-CE83-4304-A6B1-53EA5ACC004E";
paths = (
{
closed = 1;
nodes = (
"122 6 LINE",
"175 19 OFFCURVE",
"235 28 OFFCURVE",
"244 61 CURVE SMOOTH",
"252 91 OFFCURVE",
"305 285 OFFCURVE",
"316 325 CURVE SMOOTH",
"318 332 OFFCURVE",
"474 369 OFFCURVE",
"511 529 CURVE SMOOTH",
"533 625 OFFCURVE",
"503 686 OFFCURVE",
"422 705 CURVE SMOOTH",
"357 720 OFFCURVE",
"179 692 OFFCURVE",
"142 553 CURVE",
"162 526 LINE",
"208 526 OFFCURVE",
"216 526 OFFCURVE",
"274 526 CURVE",
"283 588 OFFCURVE",
"297 606 OFFCURVE",
"368 590 CURVE SMOOTH",
"394 584 OFFCURVE",
"403 561 OFFCURVE",
"392 517 CURVE SMOOTH",
"379 464 OFFCURVE",
"281 458 OFFCURVE",
"228 399 CURVE SMOOTH",
"187 354 OFFCURVE",
"177 334 OFFCURVE",
"160 272 CURVE SMOOTH",
"148 227 OFFCURVE",
"104 66 OFFCURVE",
"95 32 CURVE"
);
}
);
width = 483;
}
);
unicode = 0294;
},
{
glyphname = glottalstopsmall;
lastChange = "2019-09-18 20:31:46 +0000";
layers = (
{
layerId = "BA196CD0-EE58-4274-B8DF-4393D3617A29";
paths = (
{
closed = 1;
nodes = (
"201 220 OFFCURVE",
"257 220 CURVE",
"271 263 OFFCURVE",
"276 310 OFFCURVE",
"288 356 CURVE SMOOTH",
"300 401 OFFCURVE",
"468 410 OFFCURVE",
"507 585 CURVE SMOOTH",
"525 666 OFFCURVE",
"513 734 OFFCURVE",
"424 756 CURVE SMOOTH",
"355 773 OFFCURVE",
"188 744 OFFCURVE",
"153 613 CURVE",
"193 613 OFFCURVE",
"208 613 OFFCURVE",
"246 613 CURVE",
"267 689 OFFCURVE",
"319 699 OFFCURVE",
"391 684 CURVE SMOOTH",
"440 674 OFFCURVE",
"451 632 OFFCURVE",
"435 573 CURVE SMOOTH",
"413 492 OFFCURVE",
"287 473 OFFCURVE",
"241 422 CURVE SMOOTH",
"199 376 OFFCURVE",
"163 284 OFFCURVE",
"146 220 CURVE",
"179 220 OFFCURVE"
);
}
);
width = 483;
},
{
layerId = "BBDB329E-CE83-4304-A6B1-53EA5ACC004E";
paths = (
{
closed = 1;
nodes = (
"309 193 OFFCURVE",
"319 193 OFFCURVE",
"402 193 CURVE",
"425 240 OFFCURVE",
"429 294 OFFCURVE",
"442 340 CURVE SMOOTH",
"443 347 OFFCURVE",
"600 384 OFFCURVE",
"637 544 CURVE SMOOTH",
"658 640 OFFCURVE",
"628 701 OFFCURVE",
"547 720 CURVE SMOOTH",
"482 737 OFFCURVE",
"305 707 OFFCURVE",
"267 568 CURVE",
"287 541 LINE",
"334 541 OFFCURVE",
"342 541 OFFCURVE",
"399 541 CURVE",
"410 603 OFFCURVE",
"421 619 OFFCURVE",
"493 605 CURVE SMOOTH",
"520 599 OFFCURVE",
"529 576 OFFCURVE",
"517 532 CURVE SMOOTH",
"503 479 OFFCURVE",
"407 472 OFFCURVE",
"353 414 CURVE SMOOTH",
"315 371 OFFCURVE",
"273 279 OFFCURVE",
"255 193 CURVE"
);
}
);
width = 606;
}
);
unicode = 0242;
},
{
color = 7;
glyphname = h;
lastChange = "2019-09-25 14:41:36 +0000";
layers = (
{
anchors = (
{
name = bottom;
position = "{316, 0}";
},
{
name = bottom_hook;
position = "{498, 0}";
},
{
name = center;
position = "{353, 273}";
},
{
name = top;
position = "{427, 547}";
},
{
name = top_hook;
position = "{204, 437}";
}
);
layerId = "BA196CD0-EE58-4274-B8DF-4393D3617A29";
paths = (
{
closed = 1;
nodes = (
"633 522 OFFCURVE",
"587 548 OFFCURVE",
"460 548 CURVE SMOOTH",
"373 548 OFFCURVE",
"346 532 OFFCURVE",
"261 469 CURVE",
"371 850 LINE",
"280 850 LINE",
"6 0 LINE",
"155 0 LINE",
"204 385 OFFCURVE",
"365 474 OFFCURVE",
"466 435 CURVE SMOOTH",
"513 417 OFFCURVE",
"560 365 OFFCURVE",
"388 0 CURVE",
"527 0 LINE",
"594 330 LINE SMOOTH"
);
}
);
width = 683;
},
{
anchors = (
{
name = bottom;
position = "{274, 0}";
},
{
name = bottom_hook;
position = "{456, 0}";
},
{
name = center;
position = "{311, 273}";
},
{
name = top;
position = "{385, 547}";
},
{
name = top_hook;
position = "{245, 482}";
}
);
layerId = "BBDB329E-CE83-4304-A6B1-53EA5ACC004E";
paths = (
{
closed = 1;
nodes = (
"671 520 OFFCURVE",
"633 575 OFFCURVE",
"475 575 CURVE SMOOTH",
"413 575 OFFCURVE",
"372 565 OFFCURVE",
"316 530 CURVE",
"414 827 LINE",
"269 827 LINE",
"-24 0 LINE",
"187 0 LINE",
"235 393 OFFCURVE",
"279 449 OFFCURVE",
"421 449 CURVE SMOOTH",
"551 449 OFFCURVE",
"541 390 OFFCURVE",
"355 0 CURVE",
"557 0 LINE",
"630 332 LINE SMOOTH"
);
}
);
width = 683;
}
);
unicode = 0068;
},
{
color = 7;
glyphname = i;
lastChange = "2019-09-25 14:24:54 +0000";
layers = (
{
anchors = (
{
name = bottom;
position = "{43, -55}";
},
{
name = center;
position = "{165, 285}";
}
);
layerId = "BA196CD0-EE58-4274-B8DF-4393D3617A29";
paths = (
{
closed = 1;
nodes = (
"136 0 LINE",
"107 192 OFFCURVE",
"287 341 OFFCURVE",
"248 506 CURVE",
"158 506 LINE",
"188 341 OFFCURVE",
"17 192 OFFCURVE",
"3 0 CURVE"
);
},
{
closed = 1;
nodes = (
"291 646 LINE",
"316 760 LINE",
"236 760 LINE",
"200 646 LINE"
);
}
);
width = 285;
},
{
anchors = (
{
name = bottom;
position = "{142, 0}";
},
{
name = center;
position = "{233, 285}";
}
);
hints = (
{
horizontal = 1;
origin = "{1, 0}";
type = Delta;
settings = {
deltaV = {
"{100, 400, 0, 0, 0, 0}" = {
"22" = -8;
};
};
};
},
{
horizontal = 1;
origin = "{1, 3}";
type = Delta;
settings = {
deltaV = {
"{100, 400, 0, 0, 0, 0}" = {
"22" = -8;
};
};
};
},
{
horizontal = 1;
origin = "{1, 1}";
type = Delta;
settings = {
deltaV = {
"{100, 400, 0, 0, 0, 0}" = {
"22" = 4;
};
};
};
},
{
horizontal = 1;
origin = "{1, 2}";
type = Delta;
settings = {
deltaV = {
"{100, 400, 0, 0, 0, 0}" = {
"22" = 4;
};
};
};
},
{
horizontal = 1;
origin = "{0, 3}";
type = Delta;
settings = {
deltaV = {
"{100, 400, 0, 0, 0, 0}" = {
"22" = 4;
};
};
};
},
{
horizontal = 1;
origin = "{0, 4}";
type = Delta;
settings = {
deltaV = {
"{100, 400, 0, 0, 0, 0}" = {
"22" = 4;
};
};
};
},
{
horizontal = 1;
origin = "{0, 0}";
type = Delta;
settings = {
deltaV = {
"{100, 400, 0, 0, 0, 0}" = {
"22" = 0;
};
};
};
},
{
horizontal = 1;
origin = "{0, 7}";
type = Delta;
settings = {
deltaV = {
"{100, 400, 0, 0, 0, 0}" = {
"22" = 0;
};
};
};
}
);
layerId = "BBDB329E-CE83-4304-A6B1-53EA5ACC004E";
paths = (
{
closed = 1;
nodes = (
"229 0 LINE",
"209 206 OFFCURVE",
"355 300 OFFCURVE",
"352 533 CURVE",
"216 533 LINE",
"216 300 OFFCURVE",
"58 206 OFFCURVE",
"44 0 CURVE"
);
},
{
closed = 1;
nodes = (
"380 619 LINE",
"418 787 LINE",
"285 787 LINE",
"233 619 LINE"
);
}
);
width = 285;
}
);
unicode = 0069;
},
{
glyphname = idotless;
lastChange = "2019-10-03 23:23:56 +0000";
layers = (
{
anchors = (
{
name = bottom;
position = "{83, -83}";
},
{
name = ogonek;
position = "{84, 7}";
},
{
name = top;
position = "{229, 595}";
}
);
layerId = "BA196CD0-EE58-4274-B8DF-4393D3617A29";
paths = (
{
closed = 1;
nodes = (
"129 0 LINE",
"150 192 OFFCURVE",
"190 341 OFFCURVE",
"241 506 CURVE",
"161 506 LINE",
"101 285 OFFCURVE",
"70 192 OFFCURVE",
"6 0 CURVE"
);
}
);
width = 285;
},
{
anchors = (
{
name = bottom;
position = "{142, 0}";
},
{
name = top;
position = "{313, 651}";
}
);
layerId = "BBDB329E-CE83-4304-A6B1-53EA5ACC004E";
paths = (
{
closed = 1;
nodes = (
"229 -27 LINE",
"250 189 OFFCURVE",
"294 348 OFFCURVE",
"352 533 CURVE",
"216 533 LINE",
"148 282 OFFCURVE",
"118 193 OFFCURVE",
"44 -27 CURVE"
);
}
);
width = 285;
}
);
unicode = 0131;
},
{
glyphname = "iota-latin";
lastChange = "2019-09-18 20:36:18 +0000";
layers = (
{
anchors = (
{
name = bottom;
position = "{78, 0}";
},
{
name = ogonek;
position = "{78, 0}";
},
{
name = top;
position = "{213, 517}";
}
);
layerId = "BA196CD0-EE58-4274-B8DF-4393D3617A29";
paths = (
{
closed = 1;
nodes = (
"224 67 LINE",
"188 67 OFFCURVE",
"179 56 OFFCURVE",
"137 79 CURVE",
"164 172 OFFCURVE",
"223 412 OFFCURVE",
"252 506 CURVE",
"171 506 LINE",
"140 389 OFFCURVE",
"123 263 OFFCURVE",
"43 44 CURVE",
"55 0 OFFCURVE",
"45 0 OFFCURVE",
"199 0 CURVE"
);
}
);
width = 337;
},
{
anchors = (
{
name = bottom;
position = "{102, 0}";
},
{
name = ogonek;
position = "{102, 0}";
},
{
name = top;
position = "{236, 517}";
}
);
layerId = "BBDB329E-CE83-4304-A6B1-53EA5ACC004E";
paths = (
{
closed = 1;
nodes = (
"286 94 LINE",
"193 96 OFFCURVE",
"207 87 OFFCURVE",
"192 96 CURVE",
"226 213 OFFCURVE",
"291 479 OFFCURVE",
"312 533 CURVE",
"175 533 LINE",
"138 406 OFFCURVE",
"127 280 OFFCURVE",
"40 47 CURVE",
"39 31 LINE",
"60 -43 OFFCURVE",
"102 -25 OFFCURVE",
"240 -27 CURVE"
);
}
);
width = 285;
}
);
unicode = 0269;
},
{
glyphname = jdotless;
lastChange = "2019-10-05 00:52:22 +0000";
layers = (
{
anchors = (
{
name = bottom;
position = "{-22, -320}";
},
{
name = center;
position = "{305, 302}";
},
{
name = top;
position = "{422, 623}";
}
);
layerId = "BA196CD0-EE58-4274-B8DF-4393D3617A29";
paths = (
{
closed = 1;
nodes = (
"98 -95 OFFCURVE",
"57 -127 OFFCURVE",
"-29 -98 CURVE",
"-71 -213 LINE",
"-28 -245 OFFCURVE",
"98 -225 OFFCURVE",
"138 -200 CURVE SMOOTH",
"157 -188 OFFCURVE",
"215 -120 OFFCURVE",
"249 -14 CURVE SMOOTH",
"428 537 LINE",
"333 537 LINE",
"214 135 OFFCURVE",
"154 -10 OFFCURVE",
"120 -74 CURVE"
);
}
);
width = 420;
},
{
anchors = (
{
name = midstroke;
position = "{370, 319}";
},
{
name = top;
position = "{473, 618}";
}
);
layerId = "BBDB329E-CE83-4304-A6B1-53EA5ACC004E";
paths = (
{
closed = 1;
nodes = (
"59 -256 OFFCURVE",
"193 -219 OFFCURVE",
"234 -184 CURVE SMOOTH",
"268 -155 OFFCURVE",
"295 -77 OFFCURVE",
"342 54 CURVE SMOOTH",
"520 547 LINE",
"369 547 LINE",
"263 131 OFFCURVE",
"207 22 OFFCURVE",
"158 -32 CURVE SMOOTH",
"115 -80 OFFCURVE",
"58 -103 OFFCURVE",
"-12 -74 CURVE",
"-73 -248 LINE"
);
}
);
width = 430;
}
);
unicode = 0237;
},
{
glyphname = jcrossedtail;
lastChange = "2019-09-05 22:37:16 +0000";
layers = (
{
anchors = (
{
name = _curl;
position = "{776, 459}";
},
{
name = bottom;
position = "{820, 0}";
},
{
name = top;
position = "{965, 540}";
}
);
components = (
{
name = jdotless;
transform = "{1, 0, 0, 1, 88, 4}";
}
);
layerId = "BA196CD0-EE58-4274-B8DF-4393D3617A29";
paths = (
{
closed = 1;
nodes = (
"436 85 OFFCURVE",
"405 74 OFFCURVE",
"338 67 CURVE",
"308 -45 OFFCURVE",
"228 -114 OFFCURVE",
"189 -114 CURVE SMOOTH",
"117 -114 OFFCURVE",
"161 -9 OFFCURVE",
"262 -9 CURVE SMOOTH",
"320 -9 OFFCURVE",
"350 -14 OFFCURVE",
"401 -17 CURVE SMOOTH",
"466 -21 OFFCURVE",
"550 -25 OFFCURVE",
"613 -25 CURVE",
"643 85 LINE",
"521 85 OFFCURVE",
"401 85 OFFCURVE",
"263 85 CURVE SMOOTH",
"169 85 OFFCURVE",
"90 33 OFFCURVE",
"70 -42 CURVE SMOOTH",
"16 -243 OFFCURVE",
"64 -224 OFFCURVE",
"173 -224 CURVE SMOOTH",
"325 -224 OFFCURVE",
"334 -215 OFFCURVE",
"421 42 CURVE SMOOTH"
);
}
);
width = 701;
},
{
anchors = (
{
name = _curl;
position = "{845, 459}";
},
{
name = bottom;
position = "{889, 0}";
},
{
name = top;
position = "{1033, 540}";
}
);
components = (
{
name = jdotless;
transform = "{1, 0, 0, 1, 157, 4}";
}
);
layerId = "BBDB329E-CE83-4304-A6B1-53EA5ACC004E";
paths = (
{
closed = 1;
nodes = (
"538 104 OFFCURVE",
"506 104 OFFCURVE",
"411 94 CURVE",
"380 67 LINE",
"359 -8 OFFCURVE",
"297 -87 OFFCURVE",
"265 -87 CURVE SMOOTH",
"234 -87 OFFCURVE",
"257 -36 OFFCURVE",
"324 -36 CURVE SMOOTH",
"379 -36 OFFCURVE",
"409 -41 OFFCURVE",
"461 -44 CURVE SMOOTH",
"535 -49 OFFCURVE",
"636 -53 OFFCURVE",
"702 -52 CURVE",
"746 112 LINE",
"614 112 OFFCURVE",
"488 112 OFFCURVE",
"339 112 CURVE SMOOTH",
"230 112 OFFCURVE",
"135 48 OFFCURVE",
"111 -42 CURVE SMOOTH",
"46 -284 OFFCURVE",
"132 -251 OFFCURVE",
"235 -251 CURVE SMOOTH",
"406 -251 OFFCURVE",
"426 -227 OFFCURVE",
"517 40 CURVE SMOOTH"
);
}
);
width = 837;
}
);
unicode = 029D;
},
{
color = 7;
glyphname = k;
lastChange = "2019-10-05 01:03:42 +0000";
layers = (
{
anchors = (
{
name = bottom;
position = "{179, -41}";
},
{
name = center;
position = "{299, 685}";
},
{
name = top;
position = "{407, 864}";
},
{
name = top_hook;
position = "{196, 415}";
}
);
layerId = "BA196CD0-EE58-4274-B8DF-4393D3617A29";
paths = (
{
closed = 1;
nodes = (
"137 0 LINE",
"206 245 LINE",
"314 0 LINE",
"521 0 LINE",
"307 289 LINE",
"525 500 LINE",
"397 482 LINE",
"241 361 LINE",
"392 853 LINE",
"271 853 LINE",
"231 623 OFFCURVE",
"26 35 OFFCURVE",
"-4 0 CURVE"
);
}
);
width = 667;
},
{
anchors = (
{
name = bottom;
position = "{255, -68}";
},
{
name = center;
position = "{349, 678}";
},
{
name = top;
position = "{548, 800}";
},
{
name = top_hook;
position = "{262, 378}";
}
);
layerId = "BBDB329E-CE83-4304-A6B1-53EA5ACC004E";
paths = (
{
closed = 1;
nodes = (
"223 0 LINE",
"268 167 LINE",
"357 0 LINE",
"646 0 LINE",
"390 301 LINE",
"644 536 LINE",
"467 516 LINE",
"328 408 LINE",
"463 830 LINE",
"307 830 LINE",
"306 732 OFFCURVE",
"162 209 OFFCURVE",
"45 0 CURVE"
);
}
);
width = 667;
}
);
unicode = 006B;
},
{
color = 7;
glyphname = l;
lastChange = "2019-09-25 14:43:19 +0000";
layers = (
{
anchors = (
{
name = bottom;
position = "{87, -77}";
},
{
name = center;
position = "{187, 400}";
},
{
name = dot;
position = "{273, 406}";
},
{
name = ezh;
position = "{229, 547}";
},
{
name = right;
position = "{343, 487}";
},
{
name = right_el;
position = "{454, 538}";
},
{
name = top;
position = "{355, 893}";
},
{
name = topright;
position = "{374, 641}";
}
);
layerId = "BA196CD0-EE58-4274-B8DF-4393D3617A29";
paths = (
{
closed = 1;
nodes = (
"249 0 LINE",
"273 111 LINE",
"142 111 LINE SMOOTH",
"115 111 OFFCURVE",
"264 544 OFFCURVE",
"355 784 CURVE",
"249 784 LINE",
"162 564 OFFCURVE",
"24 105 OFFCURVE",
"-5 0 CURVE"
);
}
);
width = 394;
},
{
anchors = (
{
name = bottom;
position = "{156, -38}";
},
{
name = center;
position = "{251, 400}";
},
{
name = dot;
position = "{337, 406}";
},
{
name = ezh;
position = "{293, 547}";
},
{
name = right;
position = "{407, 487}";
},
{
name = right_el;
position = "{518, 538}";
},
{
name = top;
position = "{399, 822}";
},
{
name = topright;
position = "{438, 641}";
}
);
layerId = "BBDB329E-CE83-4304-A6B1-53EA5ACC004E";
paths = (
{
closed = 1;
nodes = (
"337 0 LINE",
"357 138 LINE",
"241 138 LINE SMOOTH",
"192 138 OFFCURVE",
"377 610 OFFCURVE",
"457 811 CURVE",
"306 811 LINE",
"203 481 OFFCURVE",
"54 129 OFFCURVE",
"37 0 CURVE"
);
}
);
width = 394;
}
);
unicode = 006C;
},
{
glyphname = lbelt;
lastChange = "2019-09-05 22:37:16 +0000";
layers = (
{
anchors = (
{
name = _curl;
position = "{855, 459}";
},
{
name = bottom;
position = "{899, 0}";
},
{
name = top;
position = "{1044, 540}";
}
);
components = (
{
name = l;
transform = "{1, 0, 0, 1, 200, 0}";
}
);
layerId = "BA196CD0-EE58-4274-B8DF-4393D3617A29";
paths = (
{
closed = 1;
nodes = (
"705 398 LINE",
"634 398 OFFCURVE",
"574 401 OFFCURVE",
"462 401 CURVE SMOOTH",
"365 401 OFFCURVE",
"295 462 OFFCURVE",
"306 501 CURVE SMOOTH",
"308 510 OFFCURVE",
"314 518 OFFCURVE",
"323 524 CURVE SMOOTH",
"343 536 OFFCURVE",
"361 543 OFFCURVE",
"375 543 CURVE SMOOTH",
"402 543 OFFCURVE",
"432 517 OFFCURVE",
"416 456 CURVE SMOOTH",
"401 399 OFFCURVE",
"382 346 OFFCURVE",
"365 294 CURVE SMOOTH",
"343 229 OFFCURVE",
"322 167 OFFCURVE",
"306 104 CURVE",
"401 104 LINE",
"433 225 OFFCURVE",
"465 344 OFFCURVE",
"501 480 CURVE SMOOTH",
"526 573 OFFCURVE",
"491 638 OFFCURVE",
"415 638 CURVE SMOOTH",
"384 638 OFFCURVE",
"339 633 OFFCURVE",
"296 608 CURVE SMOOTH",
"236 573 OFFCURVE",
"208 524 OFFCURVE",
"215 456 CURVE SMOOTH",
"230 313 OFFCURVE",
"384 292 OFFCURVE",
"676 290 CURVE"
);
}
);
width = 679;
},
{
anchors = (
{
name = _curl;
position = "{855, 459}";
},
{
name = bottom;
position = "{899, 0}";
},
{
name = top;
position = "{1044, 540}";
}
);
components = (
{
name = l;
transform = "{1, 0, 0, 1, 200, 0}";
}
);
layerId = "BBDB329E-CE83-4304-A6B1-53EA5ACC004E";
paths = (
{
closed = 1;
nodes = (
"739 425 LINE",
"656 424 OFFCURVE",
"595 428 OFFCURVE",
"469 428 CURVE SMOOTH",
"403 428 OFFCURVE",
"326 473 OFFCURVE",
"333 501 CURVE SMOOTH",
"335 506 OFFCURVE",
"331 501 OFFCURVE",
"333 502 CURVE",
"349 512 OFFCURVE",
"359 516 OFFCURVE",
"368 516 CURVE SMOOTH",
"388 516 OFFCURVE",
"398 492 OFFCURVE",
"389 456 CURVE SMOOTH",
"374 400 OFFCURVE",
"355 347 OFFCURVE",
"338 296 CURVE SMOOTH",
"313 222 OFFCURVE",
"290 150 OFFCURVE",
"271 77 CURVE",
"421 77 LINE",
"456 208 OFFCURVE",
"489 333 OFFCURVE",
"529 480 CURVE SMOOTH",
"558 588 OFFCURVE",
"514 665 OFFCURVE",
"423 665 CURVE SMOOTH",
"374 665 OFFCURVE",
"325 653 OFFCURVE",
"287 630 CURVE SMOOTH",
"213 587 OFFCURVE",
"179 524 OFFCURVE",
"187 447 CURVE SMOOTH",
"204 284 OFFCURVE",
"386 264 OFFCURVE",
"696 263 CURVE"
);
}
);
width = 679;
}
);
unicode = 026C;
},
{
glyphname = lezh;
lastChange = "2019-09-05 22:37:16 +0000";
layers = (
{
components = (
{
name = l;
},
{
name = ezh;
transform = "{1, 0, 0, 1, 74, -76}";
}
);
layerId = "BA196CD0-EE58-4274-B8DF-4393D3617A29";
paths = (
{
closed = 1;
nodes = (
"327 111 LINE",
"313 0 LINE",
"263 0 LINE",
"212 111 LINE"
);
}
);
width = 787;
},
{
components = (
{
name = l;
},
{
name = ezh;
transform = "{1, 0, 0, 1, 74, -76}";
}
);
layerId = "BBDB329E-CE83-4304-A6B1-53EA5ACC004E";
paths = (
{
closed = 1;
nodes = (
"357 138 LINE",
"337 -27 LINE",
"225 -27 LINE",
"241 138 LINE"
);
}
);
width = 787;
}
);
unicode = 026E;
},
{
glyphname = lhookretroflex;
lastChange = "2019-09-05 23:20:21 +0000";
layers = (
{
anchors = (
{
name = bottom;
position = "{140, 0}";
},
{
name = center;
position = "{321, 400}";
},
{
name = dot;
position = "{354, 406}";
},
{
name = top;
position = "{350, 685}";
},
{
name = topright;
position = "{456, 641}";
}
);
layerId = "BA196CD0-EE58-4274-B8DF-4393D3617A29";
paths = (
{
closed = 1;
nodes = (
"310 -245 OFFCURVE",
"400 -258 OFFCURVE",
"485 20 CURVE",
"366 0 LINE",
"321 -168 OFFCURVE",
"167 -163 OFFCURVE",
"197 -55 CURVE SMOOTH",
"253 150 OFFCURVE",
"380 637 OFFCURVE",
"436 784 CURVE",
"350 784 LINE",
"285 608 OFFCURVE",
"158 226 OFFCURVE",
"68 -55 CURVE SMOOTH",
"47 -122 OFFCURVE",
"8 -245 OFFCURVE",
"75 -245 CURVE SMOOTH"
);
}
);
width = 561;
},
{
anchors = (
{
name = bottom;
position = "{140, 0}";
},
{
name = center;
position = "{321, 400}";
},
{
name = dot;
position = "{354, 406}";
},
{
name = top;
position = "{350, 685}";
},
{
name = topright;
position = "{456, 641}";
}
);
layerId = "BBDB329E-CE83-4304-A6B1-53EA5ACC004E";
paths = (
{
closed = 1;
nodes = (
"343 22 LINE",
"315 -130 OFFCURVE",
"203 -132 OFFCURVE",
"225 -55 CURVE SMOOTH",
"285 168 OFFCURVE",
"429 723 OFFCURVE",
"476 811 CURVE",
"333 811 LINE",
"272 648 OFFCURVE",
"135 241 OFFCURVE",
"41 -54 CURVE SMOOTH",
"-1 -188 OFFCURVE",
"-8 -272 OFFCURVE",
"68 -272 CURVE SMOOTH",
"309 -272 OFFCURVE",
"425 -290 OFFCURVE",
"522 52 CURVE"
);
}
);
width = 561;
}
);
unicode = 026D;
},
{
glyphname = lsdigraph;
lastChange = "2019-09-25 14:48:22 +0000";
layers = (
{
components = (
{
name = l;
},
{
name = s;
transform = "{1, 0, 0, 1, 234, 9}";
}
);
layerId = "BA196CD0-EE58-4274-B8DF-4393D3617A29";
paths = (
{
closed = 1;
nodes = (
"129 0 LINE",
"481 0 LINE",
"511 112 LINE",
"159 112 LINE"
);
}
);
width = 867;
},
{
components = (
{
name = l;
},
{
name = s;
transform = "{1, 0, 0, 1, 234, 9}";
}
);
layerId = "BBDB329E-CE83-4304-A6B1-53EA5ACC004E";
paths = (
{
closed = 1;
nodes = (
"95 -2 LINE",
"541 -2 LINE",
"585 164 LINE",
"139 164 LINE"
);
}
);
width = 867;
}
);
unicode = 02AA;
},
{
glyphname = lzdigraph;
lastChange = "2019-09-25 14:46:57 +0000";
layers = (
{
anchors = (
{
name = _stroke;
position = "{580, 275.621}";
}
);
components = (
{
name = l;
transform = "{1, 0, 0, 1, 17, 0}";
},
{
name = z;
transform = "{1, 0, 0, 1, 206, 0}";
}
);
layerId = "BA196CD0-EE58-4274-B8DF-4393D3617A29";
paths = (
{
closed = 1;
nodes = (
"166 451 LINE",
"561 451 LINE",
"585 548 LINE",
"191 548 LINE"
);
}
);
width = 840;
},
{
components = (
{
name = l;
},
{
name = z;
transform = "{1, 0, 0, 1, 189, -1}";
}
);
layerId = "BBDB329E-CE83-4304-A6B1-53EA5ACC004E";
paths = (
{
closed = 1;
nodes = (
"275 84 LINE",
"249 27 LINE",
"261 27 LINE",
"270 84 LINE"
);
},
{
closed = 1;
nodes = (
"235 455 LINE",
"523 455 LINE",
"555 576 LINE",
"267 576 LINE"
);
}
);
width = 867;
}
);
unicode = 02AB;
},
{
color = 7;
glyphname = m;
lastChange = "2019-09-25 14:24:54 +0000";
layers = (
{
anchors = (
{
name = bottom;
position = "{442, 0}";
},
{
name = center;
position = "{571, 279}";
},
{
name = eng;
position = "{819, 11}";
},
{
name = top;
position = "{683, 643}";
}
);
layerId = "BA196CD0-EE58-4274-B8DF-4393D3617A29";
paths = (
{
closed = 1;
nodes = (
"617 519 OFFCURVE",
"561 554 OFFCURVE",
"480 560 CURVE SMOOTH",
"400 566 OFFCURVE",
"335 539 OFFCURVE",
"276 472 CURVE",
"309 547 LINE",
"218 547 LINE",
"6 0 LINE",
"132 0 LINE",
"253 333 LINE SMOOTH",
"281 409 OFFCURVE",
"375 487 OFFCURVE",
"453 481 CURVE SMOOTH",
"531 475 OFFCURVE",
"557 386 OFFCURVE",
"527 327 CURVE SMOOTH",
"362 0 LINE",
"488 0 LINE",
"608 293 LINE SMOOTH",
"655 408 OFFCURVE",
"721 477 OFFCURVE",
"806 481 CURVE SMOOTH",
"882 485 OFFCURVE",
"891 431 OFFCURVE",
"863 326 CURVE",
"742 0 LINE",
"878 0 LINE",
"956 330 LINE SMOOTH",
"977 421 OFFCURVE",
"953 538 OFFCURVE",
"838 560 CURVE SMOOTH",
"753 576 OFFCURVE",
"690 522 OFFCURVE",
"623 442 CURVE"
);
}
);
width = 1034;
},
{
anchors = (
{
name = bottom;
position = "{517, 0}";
},
{
name = center;
position = "{624, 279}";
},
{
name = eng;
position = "{894, 11}";
},
{
name = top;
position = "{730, 560}";
}
);
layerId = "BBDB329E-CE83-4304-A6B1-53EA5ACC004E";
paths = (
{
closed = 1;
nodes = (
"694 554 OFFCURVE",
"639 586 OFFCURVE",
"562 587 CURVE SMOOTH",
"507 588 OFFCURVE",
"457 573 OFFCURVE",
"410 544 CURVE",
"421 574 LINE",
"276 574 LINE",
"43 3 LINE",
"225 3 LINE",
"354 328 LINE SMOOTH",
"392 424 OFFCURVE",
"484 451 OFFCURVE",
"514 442 CURVE SMOOTH",
"564 426 OFFCURVE",
"593 420 OFFCURVE",
"576 350 CURVE",
"397 3 LINE",
"580 3 LINE",
"714 285 LINE SMOOTH",
"769 400 OFFCURVE",
"809 450 OFFCURVE",
"878 450 CURVE SMOOTH",
"932 450 OFFCURVE",
"943 421 OFFCURVE",
"916 323 CURVE",
"780 3 LINE",
"974 3 LINE",
"1058 331 LINE SMOOTH",
"1093 469 OFFCURVE",
"1029 574 OFFCURVE",
"920 587 CURVE SMOOTH",
"843 596 OFFCURVE",
"779 559 OFFCURVE",
"716 497 CURVE"
);
}
);
width = 1034;
}
);
unicode = 006D;
},
{
glyphname = mlonglegturned;
lastChange = "2019-10-01 13:35:03 +0000";
layers = (
{
components = (
{
name = mturned;
}
);
layerId = "BA196CD0-EE58-4274-B8DF-4393D3617A29";
paths = (
{
closed = 1;
nodes = (
"676 -136 LINE",
"786 -136 LINE",
"1028 560 LINE",
"903 560 LINE"
);
}
);
width = 1034;
},
{
components = (
{
name = mturned;
transform = "{1, 0, 0, 1, 2, 0}";
}
);
layerId = "BBDB329E-CE83-4304-A6B1-53EA5ACC004E";
paths = (
{
closed = 1;
nodes = (
"558 -193 LINE",
"722 -193 LINE",
"983 557 LINE",
"803 557 LINE"
);
}
);
width = 1038;
}
);
unicode = 0270;
},
{
color = 7;
glyphname = n;
lastChange = "2019-09-25 14:24:54 +0000";
layers = (
{
anchors = (
{
name = bottom;
position = "{249, 0}";
},
{
name = center;
position = "{352, 276}";
},
{
name = eng;
position = "{460, 19}";
},
{
name = top;
position = "{491, 642}";
},
{
name = topleft;
position = "{54, 652}";
},
{
name = topright;
position = "{748, 710}";
}
);
layerId = "BA196CD0-EE58-4274-B8DF-4393D3617A29";
paths = (
{
closed = 1;
nodes = (
"145 0 LINE",
"205 314 LINE SMOOTH",
"225 419 OFFCURVE",
"311 482 OFFCURVE",
"412 482 CURVE SMOOTH",
"492 482 OFFCURVE",
"538 439 OFFCURVE",
"502 339 CURVE SMOOTH",
"380 0 LINE",
"520 0 LINE",
"584 323 LINE SMOOTH",
"619 497 OFFCURVE",
"568 555 OFFCURVE",
"441 555 CURVE SMOOTH",
"355 555 OFFCURVE",
"314 524 OFFCURVE",
"263 495 CURVE",
"282 556 LINE",
"195 556 LINE",
"6 0 LINE"
);
}
);
width = 676;
},
{
anchors = (
{
name = bottom;
position = "{356, 0}";
},
{
name = center;
position = "{434, 272}";
},
{
name = eng;
position = "{529, 21}";
},
{
name = top;
position = "{510, 653}";
},
{
name = topleft;
position = "{197, 629}";
},
{
name = topright;
position = "{824, 734}";
}
);
layerId = "BBDB329E-CE83-4304-A6B1-53EA5ACC004E";
paths = (
{
closed = 1;
nodes = (
"725 503 OFFCURVE",
"673 582 OFFCURVE",
"524 582 CURVE SMOOTH",
"448 582 OFFCURVE",
"408 561 OFFCURVE",
"365 538 CURVE",
"365 583 LINE",
"252 583 LINE",
"44 0 LINE",
"242 0 LINE",
"308 316 LINE SMOOTH",
"327 406 OFFCURVE",
"386 455 OFFCURVE",
"479 455 CURVE SMOOTH",
"553 455 OFFCURVE",
"580 417 OFFCURVE",
"550 341 CURVE SMOOTH",
"417 0 LINE",
"617 0 LINE",
"687 325 LINE SMOOTH"
);
}
);
width = 676;
}
);
unicode = 006E;
},
{
glyphname = nhookleft;
lastChange = "2019-09-25 14:48:46 +0000";
layers = (
{
components = (
{
name = n;
transform = "{1, 0, 0, 1, 83, 0}";
}
);
layerId = "BA196CD0-EE58-4274-B8DF-4393D3617A29";
paths = (
{
closed = 1;
nodes = (
"62 -194 OFFCURVE",
"89 -194 OFFCURVE",
"128 -194 CURVE SMOOTH",
"176 -194 OFFCURVE",
"190 -141 OFFCURVE",
"229 4 CURVE",
"91 4 LINE",
"69 -75 OFFCURVE",
"65 -86 OFFCURVE",
"-11 -86 CURVE",
"-40 -194 LINE"
);
}
);
width = 759;
},
{
components = (
{
name = n;
transform = "{1, 0, 0, 1, 83, 0}";
}
);
layerId = "BBDB329E-CE83-4304-A6B1-53EA5ACC004E";
paths = (
{
closed = 1;
nodes = (
"117 -225 OFFCURVE",
"146 -225 OFFCURVE",
"188 -225 CURVE SMOOTH",
"263 -225 OFFCURVE",
"281 -157 OFFCURVE",
"330 27 CURVE",
"138 27 LINE",
"105 -92 OFFCURVE",
"122 -57 OFFCURVE",
"35 -64 CURVE",
"-8 -225 LINE"
);
}
);
width = 759;
}
);
unicode = 0272;
},
{
glyphname = nhookretroflex;
lastChange = "2019-09-25 14:49:02 +0000";
layers = (
{
anchors = (
{
name = _bottom_hook;
position = "{1079, 380}";
}
);
components = (
{
name = n;
}
);
layerId = "BA196CD0-EE58-4274-B8DF-4393D3617A29";
paths = (
{
closed = 1;
nodes = (
"573 -87 LINE",
"497 -87 OFFCURVE",
"498 -76 OFFCURVE",
"520 3 CURVE",
"381 3 LINE",
"342 -142 OFFCURVE",
"328 -195 OFFCURVE",
"376 -195 CURVE SMOOTH",
"415 -195 OFFCURVE",
"442 -195 OFFCURVE",
"544 -195 CURVE"
);
}
);
width = 748;
},
{
anchors = (
{
name = _bottom_hook;
position = "{1080, 380}";
}
);
components = (
{
name = n;
}
);
layerId = "BBDB329E-CE83-4304-A6B1-53EA5ACC004E";
paths = (
{
closed = 1;
nodes = (
"679 -61 LINE",
"596 -54 OFFCURVE",
"594 -89 OFFCURVE",
"625 30 CURVE",
"432 30 LINE",
"383 -154 OFFCURVE",
"365 -222 OFFCURVE",
"439 -222 CURVE SMOOTH",
"482 -222 OFFCURVE",
"510 -222 OFFCURVE",
"635 -222 CURVE"
);
}
);
width = 748;
}
);
unicode = 0273;
},
{
color = 7;
glyphname = o;
lastChange = "2019-10-04 14:31:04 +0000";
layers = (
{
anchors = (
{
name = bottom;
position = "{272, -77}";
},
{
name = center;
position = "{334, 277}";
},
{
name = horn;
position = "{598, 435}";
},
{
name = ogonek;
position = "{528, 10}";
},
{
name = top;
position = "{439, 617}";
},
{
name = topright;
position = "{704, 500}";
}
);
guideLines = (
{
position = "{176, 556}";
}
);
layerId = "BA196CD0-EE58-4274-B8DF-4393D3617A29";
paths = (
{
closed = 1;
nodes = (
"415 -5 OFFCURVE",
"543 109 OFFCURVE",
"588 288 CURVE SMOOTH",
"631 457 OFFCURVE",
"566 564 OFFCURVE",
"408 564 CURVE SMOOTH",
"250 564 OFFCURVE",
"128 442 OFFCURVE",
"81 273 CURVE SMOOTH",
"28 84 OFFCURVE",
"99 -17 OFFCURVE",
"258 -11 CURVE SMOOTH"
);
},
{
closed = 1;
nodes = (
"173 133 OFFCURVE",
"137 182 OFFCURVE",
"181 289 CURVE SMOOTH",
"226 400 OFFCURVE",
"314 469 OFFCURVE",
"391 471 CURVE SMOOTH",
"488 473 OFFCURVE",
"510 366 OFFCURVE",
"496 289 CURVE SMOOTH",
"472 160 OFFCURVE",
"348 144 OFFCURVE",
"299 141 CURVE SMOOTH"
);
}
);
width = 669;
},
{
anchors = (
{
name = _;
position = "{489, 652}";
},
{
name = bottom;
position = "{303, -83}";
},
{
name = center;
position = "{439, 278}";
},
{
name = dotbelow;
position = "{319, -59}";
},
{
name = horn;
position = "{671, 435}";
},
{
name = ogonek;
position = "{601, 10}";
},
{
name = top;
position = "{493, 669}";
},
{
name = topright;
position = "{709, 509}";
}
);
layerId = "BBDB329E-CE83-4304-A6B1-53EA5ACC004E";
paths = (
{
closed = 1;
nodes = (
"497 -13 OFFCURVE",
"637 88 OFFCURVE",
"688 281 CURVE SMOOTH",
"737 466 OFFCURVE",
"660 584 OFFCURVE",
"489 584 CURVE SMOOTH",
"317 584 OFFCURVE",
"176 466 OFFCURVE",
"127 281 CURVE SMOOTH",
"76 87 OFFCURVE",
"150 -13 OFFCURVE",
"323 -13 CURVE SMOOTH"
);
},
{
closed = 1;
nodes = (
"279 176 OFFCURVE",
"250 199 OFFCURVE",
"281 297 CURVE SMOOTH",
"313 398 OFFCURVE",
"377 464 OFFCURVE",
"456 464 CURVE SMOOTH",
"535 464 OFFCURVE",
"570 400 OFFCURVE",
"542 297 CURVE SMOOTH",
"512 187 OFFCURVE",
"450 176 OFFCURVE",
"379 176 CURVE SMOOTH"
);
}
);
width = 669;
}
);
leftKerningGroup = Round;
rightKerningGroup = RoundRight;
unicode = 006F;
},
{
color = 7;
glyphname = p;
lastChange = "2019-10-04 14:33:34 +0000";
layers = (
{
anchors = (
{
name = bottom;
position = "{293, 0}";
},
{
name = center;
position = "{114, -126}";
},
{
name = top;
position = "{541, 545}";
},
{
name = top_hook;
position = "{167, 202}";
}
);
hints = (
{
place = "{65, 39}";
type = Stem;
},
{
horizontal = 1;
place = "{425, -13}";
type = Stem;
},
{
horizontal = 1;
place = "{-80, 64}";
type = Stem;
},
{
place = "{491, -13}";
type = Stem;
}
);
layerId = "BA196CD0-EE58-4274-B8DF-4393D3617A29";
paths = (
{
closed = 1;
nodes = (
"219 17 OFFCURVE",
"280 -14 OFFCURVE",
"351 -14 CURVE SMOOTH",
"485 -14 OFFCURVE",
"608 101 OFFCURVE",
"654 273 CURVE SMOOTH",
"698 438 OFFCURVE",
"637 564 OFFCURVE",
"502 564 CURVE SMOOTH",
"422 564 OFFCURVE",
"355 522 OFFCURVE",
"300 457 CURVE",
"300 532 LINE",
"211 532 LINE",
"196 359 OFFCURVE",
"88 45 OFFCURVE",
"-53 -222 CURVE",
"79 -204 LINE",
"199 82 LINE"
);
},
{
closed = 1;
nodes = (
"548 156 OFFCURVE",
"494 134 OFFCURVE",
"408 134 CURVE SMOOTH",
"312 134 OFFCURVE",
"256 156 OFFCURVE",
"291 289 CURVE SMOOTH",
"325 414 OFFCURVE",
"404 487 OFFCURVE",
"499 473 CURVE SMOOTH",
"566 463 OFFCURVE",
"597 416 OFFCURVE",
"573 289 CURVE SMOOTH"
);
}
);
width = 738;
},
{
anchors = (
{
name = bottom;
position = "{370, 0}";
},
{
name = center;
position = "{170, -140}";
},
{
name = top;
position = "{544, 587}";
},
{
name = top_hook;
position = "{244, 202}";
}
);
hints = (
{
place = "{142, 116}";
type = Stem;
},
{
horizontal = 1;
place = "{502, 64}";
type = Stem;
},
{
horizontal = 1;
place = "{-3, 141}";
type = Stem;
},
{
place = "{568, 64}";
type = Stem;
}
);
layerId = "BBDB329E-CE83-4304-A6B1-53EA5ACC004E";
paths = (
{
closed = 1;
nodes = (
"306 -22 OFFCURVE",
"365 -41 OFFCURVE",
"420 -41 CURVE SMOOTH",
"571 -41 OFFCURVE",
"708 87 OFFCURVE",
"758 273 CURVE SMOOTH",
"806 453 OFFCURVE",
"736 581 OFFCURVE",
"587 581 CURVE SMOOTH",
"519 581 OFFCURVE",
"458 560 OFFCURVE",
"407 520 CURVE",
"407 559 LINE",
"266 559 LINE",
"266 377 OFFCURVE",
"88 -94 OFFCURVE",
"-27 -261 CURVE",
"173 -230 LINE",
"276 16 LINE"
);
},
{
closed = 1;
nodes = (
"611 176 OFFCURVE",
"570 171 OFFCURVE",
"493 171 CURVE SMOOTH",
"392 171 OFFCURVE",
"369 189 OFFCURVE",
"396 289 CURVE SMOOTH",
"426 401 OFFCURVE",
"490 466 OFFCURVE",
"569 466 CURVE SMOOTH",
"649 466 OFFCURVE",
"667 402 OFFCURVE",
"639 289 CURVE SMOOTH"
);
}
);
width = 738;
}
);
rightKerningGroup = RoundRight;
unicode = 0070;
},
{
glyphname = thorn;
lastChange = "2019-09-05 22:37:17 +0000";
layers = (
{
layerId = "BA196CD0-EE58-4274-B8DF-4393D3617A29";
paths = (
{
closed = 1;
nodes = (
"49 -180 LINE",
"138 -180 LINE",
"384 800 LINE",
"295 800 LINE"
);
},
{
closed = 1;
nodes = (
"312 50 OFFCURVE",
"521 151 OFFCURVE",
"584 371 CURVE SMOOTH",
"631 535 OFFCURVE",
"473 636 OFFCURVE",
"328 636 CURVE",
"226 498 OFFCURVE",
"136 188 OFFCURVE",
"166 50 CURVE"
);
},
{
closed = 1;
nodes = (
"188 137 OFFCURVE",
"168 235 OFFCURVE",
"209 375 CURVE SMOOTH",
"233 460 OFFCURVE",
"301 559 OFFCURVE",
"355 559 CURVE SMOOTH",
"407 559 OFFCURVE",
"538 460 OFFCURVE",
"514 375 CURVE SMOOTH",
"473 235 OFFCURVE",
"294 137 OFFCURVE",
"242 137 CURVE SMOOTH"
);
}
);
width = 566;
},
{
layerId = "BBDB329E-CE83-4304-A6B1-53EA5ACC004E";
paths = (
{
closed = 1;
nodes = (
"14 -207 LINE",
"158 -207 LINE",
"419 827 LINE",
"275 827 LINE"
);
},
{
closed = 1;
nodes = (
"159 23 LINE",
"360 23 OFFCURVE",
"554 171 OFFCURVE",
"611 371 CURVE SMOOTH",
"657 528 OFFCURVE",
"526 663 OFFCURVE",
"335 663 CURVE",
"307 647 LINE",
"196 497 OFFCURVE",
"108 179 OFFCURVE",
"138 38 CURVE"
);
},
{
closed = 1;
nodes = (
"213 164 OFFCURVE",
"203 261 OFFCURVE",
"236 374 CURVE SMOOTH",
"259 453 OFFCURVE",
"317 532 OFFCURVE",
"348 532 CURVE SMOOTH",
"407 532 OFFCURVE",
"501 427 OFFCURVE",
"487 376 CURVE SMOOTH",
"450 250 OFFCURVE",
"293 164 OFFCURVE",
"249 164 CURVE SMOOTH"
);
}
);
width = 566;
}
);
unicode = 00FE;
},
{
color = 7;
glyphname = q;
lastChange = "2019-10-04 14:57:55 +0000";
layers = (
{
associatedMasterId = "BA196CD0-EE58-4274-B8DF-4393D3617A29";
layerId = "550EFC85-22CC-4D43-B167-1DAEAAA2FB65";
name = "Regular May 31 12, 16:28";
paths = (
{
closed = 1;
nodes = (
"157 153 OFFCURVE",
"212 136 OFFCURVE",
"308 136 CURVE SMOOTH",
"403 136 OFFCURVE",
"463 153 OFFCURVE",
"463 286 CURVE SMOOTH",
"463 418 OFFCURVE",
"405 498 OFFCURVE",
"310 498 CURVE SMOOTH",
"215 498 OFFCURVE",
"157 418 OFFCURVE",
"157 286 CURVE SMOOTH"
);
},
{
closed = 1;
nodes = (
"497 82 LINE",
"459 17 OFFCURVE",
"402 -14 OFFCURVE",
"321 -14 CURVE SMOOTH",
"189 -14 OFFCURVE",
"98 101 OFFCURVE",
"98 273 CURVE SMOOTH",
"98 445 OFFCURVE",
"189 560 OFFCURVE",
"321 560 CURVE SMOOTH",
"402 560 OFFCURVE",
"459 529 OFFCURVE",
"497 464 CURVE",
"511 547 LINE",
"598 547 LINE",
"561 -118 LINE SMOOTH",
"557 -208 LINE",
"474 -208 LINE"
);
}
);
width = 718;
},
{
anchors = (
{
name = bottom;
position = "{316, 0}";
},
{
name = tail;
position = "{478, -110}";
},
{
name = top;
position = "{450, 500}";
},
{
name = top_hook;
position = "{521, 218}";
}
);
layerId = "BA196CD0-EE58-4274-B8DF-4393D3617A29";
paths = (
{
closed = 1;
nodes = (
"570 -200 LINE",
"609 -80 LINE",
"514 -110 LINE",
"478 -130 LINE",
"700 547 LINE",
"573 547 LINE",
"540 447 LINE",
"522 517 OFFCURVE",
"483 574 OFFCURVE",
"379 571 CURVE SMOOTH",
"260 567 OFFCURVE",
"135 485 OFFCURVE",
"76 286 CURVE SMOOTH",
"25 115 OFFCURVE",
"57 -3 OFFCURVE",
"190 -14 CURVE SMOOTH",
"271 -21 OFFCURVE",
"377 17 OFFCURVE",
"433 82 CURVE",
"318 -268 LINE"
);
},
{
closed = 1;
nodes = (
"173 137 OFFCURVE",
"130 153 OFFCURVE",
"167 273 CURVE SMOOTH",
"199 377 OFFCURVE",
"259 457 OFFCURVE",
"347 462 CURVE SMOOTH",
"432 466 OFFCURVE",
"473 394 OFFCURVE",
"441 273 CURVE SMOOTH",
"408 152 OFFCURVE",
"348 137 OFFCURVE",
"260 137 CURVE SMOOTH"
);
}
);
width = 778;
},
{
associatedMasterId = "BBDB329E-CE83-4304-A6B1-53EA5ACC004E";
layerId = "5892CAD6-04FA-4732-8FAB-EB7591270E8A";
name = "Regular May 31 12, 16:28";
paths = (
{
closed = 1;
nodes = (
"157 153 OFFCURVE",
"212 136 OFFCURVE",
"308 136 CURVE SMOOTH",
"403 136 OFFCURVE",
"463 153 OFFCURVE",
"463 286 CURVE SMOOTH",
"463 418 OFFCURVE",
"405 498 OFFCURVE",
"310 498 CURVE SMOOTH",
"215 498 OFFCURVE",
"157 418 OFFCURVE",
"157 286 CURVE SMOOTH"
);
},
{
closed = 1;
nodes = (
"497 82 LINE",
"459 17 OFFCURVE",
"402 -14 OFFCURVE",
"321 -14 CURVE SMOOTH",
"189 -14 OFFCURVE",
"98 101 OFFCURVE",
"98 273 CURVE SMOOTH",
"98 445 OFFCURVE",
"189 560 OFFCURVE",
"321 560 CURVE SMOOTH",
"402 560 OFFCURVE",
"459 529 OFFCURVE",
"497 464 CURVE",
"511 547 LINE",
"598 547 LINE",
"561 -118 LINE SMOOTH",
"557 -208 LINE",
"474 -208 LINE"
);
}
);
width = 718;
},
{
anchors = (
{
name = bottom;
position = "{389, 0}";
},
{
name = tail;
position = "{527, -127}";
},
{
name = top;
position = "{523, 500}";
},
{
name = top_hook;
position = "{594, 218}";
}
);
layerId = "BBDB329E-CE83-4304-A6B1-53EA5ACC004E";
paths = (
{
closed = 1;
nodes = (
"674 -201 LINE",
"731 -21 LINE",
"656 -45 LINE",
"580 -74 LINE",
"791 574 LINE",
"625 574 LINE",
"608 509 LINE",
"575 562 OFFCURVE",
"531 584 OFFCURVE",
"460 581 CURVE SMOOTH",
"309 574 OFFCURVE",
"176 457 OFFCURVE",
"127 273 CURVE SMOOTH",
"77 88 OFFCURVE",
"146 -35 OFFCURVE",
"296 -41 CURVE SMOOTH",
"353 -43 OFFCURVE",
"404 -27 OFFCURVE",
"449 2 CURVE",
"360 -285 LINE"
);
},
{
closed = 1;
nodes = (
"237 164 OFFCURVE",
"216 186 OFFCURVE",
"245 286 CURVE SMOOTH",
"279 404 OFFCURVE",
"337 465 OFFCURVE",
"417 465 CURVE SMOOTH",
"499 465 OFFCURVE",
"536 400 OFFCURVE",
"510 286 CURVE SMOOTH",
"487 186 OFFCURVE",
"440 164 OFFCURVE",
"337 164 CURVE SMOOTH"
);
}
);
width = 778;
}
);
leftKerningGroup = Round;
unicode = 0071;
},
{
color = 7;
glyphname = r;
lastChange = "2019-10-05 00:13:48 +0000";
layers = (
{
anchors = (
{
name = bottom;
position = "{87, -47}";
},
{
name = bottom_wide;
position = "{125, 0}";
},
{
name = center;
position = "{158, 236}";
},
{
name = top;
position = "{290, 547}";
}
);
layerId = "BA196CD0-EE58-4274-B8DF-4393D3617A29";
paths = (
{
closed = 1;
nodes = (
"371 543 OFFCURVE",
"338 528 OFFCURVE",
"271 486 CURVE",
"286 542 LINE",
"193 545 LINE",
"132 317 OFFCURVE",
"95 196 OFFCURVE",
"1 0 CURVE",
"204 0 LINE",
"218 154 OFFCURVE",
"220 277 OFFCURVE",
"235 314 CURVE SMOOTH",
"286 442 OFFCURVE",
"322 443 OFFCURVE",
"489 459 CURVE",
"489 549 LINE"
);
}
);
width = 517;
},
{
anchors = (
{
name = bottom;
position = "{163, -41}";
},
{
name = bottom_wide;
position = "{205, 0}";
},
{
name = center;
position = "{240, 274}";
},
{
name = top;
position = "{380, 585}";
}
);
layerId = "BBDB329E-CE83-4304-A6B1-53EA5ACC004E";
paths = (
{
closed = 1;
nodes = (
"468 571 OFFCURVE",
"450 566 OFFCURVE",
"392 537 CURVE",
"401 573 LINE",
"254 573 LINE",
"184 314 OFFCURVE",
"147 222 OFFCURVE",
"39 0 CURVE",
"278 0 LINE",
"292 122 OFFCURVE",
"313 204 OFFCURVE",
"333 274 CURVE",
"357 357 OFFCURVE",
"350 435 OFFCURVE",
"594 435 CURVE",
"570 577 LINE"
);
}
);
width = 517;
}
);
unicode = 0072;
},
{
glyphname = ramshorn;
lastChange = "2019-09-05 22:37:17 +0000";
layers = (
{
anchors = (
{
name = _curl;
position = "{334, 459}";
},
{
name = bottom;
position = "{378, 0}";
},
{
name = top;
position = "{522, 540}";
}
);
layerId = "BA196CD0-EE58-4274-B8DF-4393D3617A29";
paths = (
{
closed = 1;
nodes = (
"729 397 OFFCURVE",
"755 515 OFFCURVE",
"631 513 CURVE SMOOTH",
"503 511 OFFCURVE",
"461 427 OFFCURVE",
"370 295 CURVE SMOOTH",
"289 178 OFFCURVE",
"222 96 OFFCURVE",
"240 51 CURVE SMOOTH",
"261 0 OFFCURVE",
"283 -8 OFFCURVE",
"343 -8 CURVE SMOOTH",
"387 -8 OFFCURVE",
"442 1 OFFCURVE",
"490 51 CURVE SMOOTH",
"539 102 OFFCURVE",
"519 172 OFFCURVE",
"497 268 CURVE SMOOTH",
"469 391 OFFCURVE",
"450 511 OFFCURVE",
"362 511 CURVE SMOOTH",
"218 511 OFFCURVE",
"194 422 OFFCURVE",
"172 339 CURVE",
"234 339 LINE",
"256 422 OFFCURVE",
"272 448 OFFCURVE",
"348 448 CURVE SMOOTH",
"409 448 OFFCURVE",
"411 345 OFFCURVE",
"415 224 CURVE SMOOTH",
"418 117 OFFCURVE",
"425 57 OFFCURVE",
"361 57 CURVE SMOOTH",
"308 57 OFFCURVE",
"340 115 OFFCURVE",
"415 224 CURVE SMOOTH",
"504 354 OFFCURVE",
"556 453 OFFCURVE",
"615 453 CURVE SMOOTH",
"659 453 OFFCURVE",
"659 397 OFFCURVE",
"647 339 CURVE",
"713 339 LINE"
);
}
);
width = 703;
},
{
anchors = (
{
name = _curl;
position = "{334, 459}";
},
{
name = bottom;
position = "{378, 0}";
},
{
name = top;
position = "{522, 540}";
}
);
layerId = "BBDB329E-CE83-4304-A6B1-53EA5ACC004E";
paths = (
{
closed = 1;
nodes = (
"756 398 OFFCURVE",
"789 542 OFFCURVE",
"639 540 CURVE SMOOTH",
"488 538 OFFCURVE",
"437 435 OFFCURVE",
"347 305 CURVE SMOOTH",
"268 190 OFFCURVE",
"189 95 OFFCURVE",
"214 36 CURVE SMOOTH",
"236 -20 OFFCURVE",
"262 -35 OFFCURVE",
"336 -35 CURVE SMOOTH",
"405 -35 OFFCURVE",
"462 -12 OFFCURVE",
"509 36 CURVE SMOOTH",
"571 101 OFFCURVE",
"546 185 OFFCURVE",
"524 280 CURVE SMOOTH",
"498 402 OFFCURVE",
"475 538 OFFCURVE",
"369 538 CURVE SMOOTH",
"178 538 OFFCURVE",
"161 394 OFFCURVE",
"137 312 CURVE",
"254 312 LINE",
"282 414 OFFCURVE",
"281 421 OFFCURVE",
"341 421 CURVE SMOOTH",
"369 421 OFFCURVE",
"381 379 OFFCURVE",
"386 216 CURVE SMOOTH",
"390 89 OFFCURVE",
"390 84 OFFCURVE",
"368 84 CURVE SMOOTH",
"355 84 OFFCURVE",
"364 108 OFFCURVE",
"437 214 CURVE SMOOTH",
"526 343 OFFCURVE",
"572 426 OFFCURVE",
"608 426 CURVE SMOOTH",
"627 426 OFFCURVE",
"633 388 OFFCURVE",
"614 312 CURVE",
"733 312 LINE"
);
}
);
width = 703;
}
);
unicode = 0264;
},
{
glyphname = rfishhook;
lastChange = "2019-09-27 22:29:37 +0000";
layers = (
{
anchors = (
{
name = _top_hook;
position = "{65, 58}";
},
{
name = center;
position = "{131, 306}";
}
);
layerId = "BA196CD0-EE58-4274-B8DF-4393D3617A29";
paths = (
{
closed = 1;
nodes = (
"7 4 LINE",
"93 4 LINE",
"199 399 LINE",
"113 399 LINE"
);
},
{
closed = 1;
nodes = (
"188 567 OFFCURVE",
"162 561 OFFCURVE",
"128 449 CURVE SMOOTH",
"113 399 OFFCURVE",
"117 415 OFFCURVE",
"98 345 CURVE",
"184 345 LINE",
"192 376 OFFCURVE",
"199 401 OFFCURVE",
"207 430 CURVE SMOOTH",
"220 478 OFFCURVE",
"224 481 OFFCURVE",
"292 481 CURVE",
"315 566 LINE"
);
}
);
width = 319;
},
{
anchors = (
{
name = _top_hook;
position = "{140, 66}";
},
{
name = center;
position = "{206, 299}";
}
);
layerId = "BBDB329E-CE83-4304-A6B1-53EA5ACC004E";
paths = (
{
closed = 1;
nodes = (
"47 -23 LINE",
"188 -23 LINE",
"308 426 LINE",
"168 426 LINE"
);
},
{
closed = 1;
nodes = (
"253 596 OFFCURVE",
"216 580 OFFCURVE",
"176 450 CURVE SMOOTH",
"159 395 OFFCURVE",
"166 420 OFFCURVE",
"139 318 CURVE",
"279 318 LINE",
"292 365 OFFCURVE",
"299 393 OFFCURVE",
"309 430 CURVE SMOOTH",
"319 466 OFFCURVE",
"303 451 OFFCURVE",
"388 455 CURVE",
"425 593 LINE"
);
}
);
width = 319;
}
);
unicode = 027E;
},
{
glyphname = rlonglegturned;
lastChange = "2019-09-25 15:01:53 +0000";
layers = (
{
components = (
{
name = rturned;
}
);
layerId = "BA196CD0-EE58-4274-B8DF-4393D3617A29";
paths = (
{
closed = 1;
nodes = (
"310 512 LINE",
"514 550 LINE",
"602 800 LINE",
"335 800 LINE"
);
}
);
width = 534;
},
{
components = (
{
name = rturned;
transform = "{1, 0, 0, 1, 5, 0}";
}
);
layerId = "BBDB329E-CE83-4304-A6B1-53EA5ACC004E";
paths = (
{
closed = 1;
nodes = (
"237 468 LINE",
"456 468 LINE",
"580 822 LINE",
"294 822 LINE"
);
}
);
width = 544;
}
);
unicode = 027A;
},
{
color = 7;
glyphname = s;
lastChange = "2019-10-01 01:49:41 +0000";
layers = (
{
anchors = (
{
name = _right_el;
position = "{210, 529}";
},
{
name = bottom;
position = "{215, -55}";
},
{
name = bottom_hook;
position = "{31, -98}";
},
{
name = center;
position = "{338, 269}";
},
{
name = top;
position = "{464, 619}";
}
);
layerId = "BA196CD0-EE58-4274-B8DF-4393D3617A29";
paths = (
{
closed = 1;
nodes = (
"510 553 OFFCURVE",
"480 564 OFFCURVE",
"412 564 CURVE SMOOTH",
"238 564 OFFCURVE",
"151 477 OFFCURVE",
"148 381 CURVE SMOOTH",
"145 287 OFFCURVE",
"226 247 OFFCURVE",
"276 232 CURVE SMOOTH",
"314 220 OFFCURVE",
"380 209 OFFCURVE",
"380 177 CURVE SMOOTH",
"380 136 OFFCURVE",
"330 130 OFFCURVE",
"284 130 CURVE SMOOTH",
"233 130 OFFCURVE",
"201 135 OFFCURVE",
"148 157 CURVE",
"20 48 LINE",
"96 7 OFFCURVE",
"136 -15 OFFCURVE",
"244 -15 CURVE SMOOTH",
"378 -15 OFFCURVE",
"501 40 OFFCURVE",
"515 136 CURVE SMOOTH",
"525 211 OFFCURVE",
"461 282 OFFCURVE",
"362 307 CURVE SMOOTH",
"313 319 OFFCURVE",
"247 346 OFFCURVE",
"249 380 CURVE SMOOTH",
"251 420 OFFCURVE",
"305 465 OFFCURVE",
"378 465 CURVE SMOOTH",
"408 465 OFFCURVE",
"485 458 OFFCURVE",
"525 453 CURVE",
"562 549 LINE"
);
}
);
width = 635;
},
{
anchors = (
{
name = _right_el;
position = "{223, 529}";
},
{
name = bottom;
position = "{247, -53}";
},
{
name = bottom_hook;
position = "{44, -98}";
},
{
name = center;
position = "{328, 269}";
},
{
name = top;
position = "{460, 674}";
}
);
layerId = "BBDB329E-CE83-4304-A6B1-53EA5ACC004E";
paths = (
{
closed = 1;
nodes = (
"551 611 OFFCURVE",
"425 623 OFFCURVE",
"354 618 CURVE SMOOTH",
"192 607 OFFCURVE",
"108 509 OFFCURVE",
"127 406 CURVE SMOOTH",
"139 340 OFFCURVE",
"185 306 OFFCURVE",
"227 286 CURVE SMOOTH",
"294 253 OFFCURVE",
"391 239 OFFCURVE",
"395 207 CURVE SMOOTH",
"399 172 OFFCURVE",
"319 168 OFFCURVE",
"289 170 CURVE SMOOTH",
"244 173 OFFCURVE",
"227 192 OFFCURVE",
"161 219 CURVE",
"-15 71 LINE",
"72 19 OFFCURVE",
"128 -11 OFFCURVE",
"250 -11 CURVE SMOOTH",
"435 -11 OFFCURVE",
"557 39 OFFCURVE",
"563 187 CURVE SMOOTH",
"565 270 OFFCURVE",
"515 313 OFFCURVE",
"386 352 CURVE SMOOTH",
"306 376 OFFCURVE",
"274 408 OFFCURVE",
"276 448 CURVE SMOOTH",
"278 490 OFFCURVE",
"320 506 OFFCURVE",
"411 502 CURVE SMOOTH",
"478 499 OFFCURVE",
"471 494 OFFCURVE",
"548 479 CURVE",
"617 600 LINE"
);
}
);
width = 635;
}
);
unicode = 0073;
},
{
glyphname = saltillo;
lastChange = "2019-09-05 22:37:17 +0000";
layers = (
{
layerId = "BA196CD0-EE58-4274-B8DF-4393D3617A29";
paths = (
{
closed = 1;
nodes = (
"207 336 LINE",
"255 336 LINE",
"406 758 LINE",
"284 758 LINE"
);
}
);
width = 284;
},
{
layerId = "BBDB329E-CE83-4304-A6B1-53EA5ACC004E";
paths = (
{
closed = 1;
nodes = (
"336 309 LINE",
"434 309 LINE",
"605 785 LINE",
"423 785 LINE"
);
}
);
width = 606;
}
);
unicode = A78C;
},
{
glyphname = germandbls;
lastChange = "2019-09-05 22:37:17 +0000";
layers = (
{
layerId = "BA196CD0-EE58-4274-B8DF-4393D3617A29";
paths = (
{
closed = 1;
nodes = (
"217 0 LINE",
"341 553 LINE",
"384 665 OFFCURVE",
"437 705 OFFCURVE",
"522 705 CURVE SMOOTH",
"597 705 OFFCURVE",
"629 699 OFFCURVE",
"648 580 CURVE",
"511 561 OFFCURVE",
"466 502 OFFCURVE",
"444 420 CURVE SMOOTH",
"429 366 OFFCURVE",
"452 319 OFFCURVE",
"472 281 CURVE",
"505 254 LINE",
"532 234 OFFCURVE",
"550 217 OFFCURVE",
"556 203 CURVE SMOOTH",
"562 189 OFFCURVE",
"563 176 OFFCURVE",
"560 162 CURVE SMOOTH",
"549 122 OFFCURVE",
"503 100 OFFCURVE",
"426 100 CURVE SMOOTH",
"383 100 OFFCURVE",
"341 109 OFFCURVE",
"293 129 CURVE",
"261 10 LINE",
"305 -6 OFFCURVE",
"348 -14 OFFCURVE",
"390 -14 CURVE SMOOTH",
"529 -14 OFFCURVE",
"621 47 OFFCURVE",
"651 159 CURVE SMOOTH",
"668 224 OFFCURVE",
"657 260 OFFCURVE",
"568 329 CURVE SMOOTH",
"544 347 LINE SMOOTH",
"509 375 OFFCURVE",
"498 399 OFFCURVE",
"506 430 CURVE SMOOTH",
"523 493 OFFCURVE",
"591 532 OFFCURVE",
"691 537 CURVE",
"730 683 OFFCURVE",
"676 760 OFFCURVE",
"539 760 CURVE SMOOTH",
"396 760 OFFCURVE",
"294 686 OFFCURVE",
"259 555 CURVE",
"81 0 LINE"
);
}
);
width = 689;
},
{
layerId = "BBDB329E-CE83-4304-A6B1-53EA5ACC004E";
paths = (
{
closed = 1;
nodes = (
"238 -27 LINE",
"368 552 LINE",
"404 646 OFFCURVE",
"443 678 OFFCURVE",
"515 678 CURVE SMOOTH",
"582 678 OFFCURVE",
"600 668 OFFCURVE",
"614 600 CURVE",
"505 577 OFFCURVE",
"444 521 OFFCURVE",
"417 420 CURVE SMOOTH",
"399 355 OFFCURVE",
"428 299 OFFCURVE",
"448 261 CURVE",
"484 231 LINE",
"510 212 OFFCURVE",
"525 198 OFFCURVE",
"530 188 CURVE",
"534 177 OFFCURVE",
"534 170 OFFCURVE",
"532 162 CURVE SMOOTH",
"527 141 OFFCURVE",
"496 127 OFFCURVE",
"433 127 CURVE SMOOTH",
"384 127 OFFCURVE",
"336 140 OFFCURVE",
"277 169 CURVE",
"229 -9 LINE",
"282 -31 OFFCURVE",
"332 -41 OFFCURVE",
"383 -41 CURVE SMOOTH",
"536 -41 OFFCURVE",
"644 32 OFFCURVE",
"678 159 CURVE SMOOTH",
"699 239 OFFCURVE",
"679 282 OFFCURVE",
"589 352 CURVE SMOOTH",
"566 370 LINE SMOOTH",
"536 393 OFFCURVE",
"528 409 OFFCURVE",
"533 430 CURVE SMOOTH",
"546 476 OFFCURVE",
"599 506 OFFCURVE",
"685 510 CURVE",
"719 537 LINE",
"761 697 OFFCURVE",
"700 787 OFFCURVE",
"546 787 CURVE SMOOTH",
"388 787 OFFCURVE",
"271 701 OFFCURVE",
"232 556 CURVE",
"45 -27 LINE"
);
}
);
width = 689;
}
);
unicode = 00DF;
},
